<svg width="150" height="150" viewBox="0 0 150 150" fill="none" xmlns="http://www.w3.org/2000/svg">
<rect width="150" height="150" rx="75" fill="#FFEBD1"/>
<path d="M93.2219 74.6328C93.2219 74.6328 97.5529 76.7899 99.0765 82.3617C100.6 87.9334 105.256 102.443 105.256 102.443C105.256 102.443 107.918 105.645 108.205 108.015C108.489 110.385 107.921 116.121 107.063 117.191C106.209 118.262 104.988 118.085 104.988 118.085L93.7802 116.998L89.3672 86.792L93.2219 74.6328Z" fill="url(#paint0_linear_1_569)"/>
<path d="M56.1574 74.1056C56.1574 74.1056 48.1452 76.6754 46.1484 78.9099L52.7096 110.112L52.6055 119.956H90.5974C90.5974 119.469 90.9381 87.2707 90.9381 87.2707L93.2187 74.6344L79.7146 72.2032L77.0523 70.0654L62.0278 70.8425L59.7471 73.1737L56.1606 74.1024L56.1574 74.1056Z" fill="url(#paint1_linear_1_569)"/>
<g opacity="0.3">
<path d="M59.2003 101.173C59.0836 100.909 58.9164 100.622 58.6388 100.564C58.1814 100.467 57.8755 101.022 57.7209 101.47C56.4875 105.043 54.8535 108.328 52.7306 111.43L52.6328 116.221C54.8472 114.316 57.0301 112.275 58.4433 109.692C59.8564 107.109 60.3958 103.869 59.2035 101.173H59.2003Z" fill="black"/>
</g>
<path d="M46.1453 78.9102C46.1453 78.9102 43.505 82.5892 42.4073 84.9913C41.3095 87.3935 32.2248 107.565 31.6791 109.648C31.1302 111.731 29.7202 118.293 33.8714 119.815H42.4073L50.9747 102.103L51.4131 81.5477L46.1421 78.9102H46.1453Z" fill="url(#paint2_linear_1_569)"/>
<path d="M42.9595 107.021C42.9595 107.021 42.7702 106.85 42.3759 106.621C41.9848 106.395 41.3728 106.134 40.5842 105.957C40.1899 105.87 39.7514 105.799 39.2783 105.77C38.8051 105.741 38.2972 105.747 37.7799 105.87C36.7453 106.105 35.7169 106.776 34.9062 107.714C34.0829 108.653 33.5782 109.762 33.2786 110.806C32.9757 111.854 32.8464 112.838 32.7644 113.66C32.6855 114.485 32.654 115.156 32.6256 115.62C32.613 115.836 32.6004 116.014 32.594 116.156C32.5846 116.278 32.5783 116.343 32.572 116.343C32.5657 116.343 32.5625 116.278 32.5625 116.156C32.5625 116.014 32.5625 115.836 32.5625 115.62C32.572 115.156 32.5846 114.482 32.6477 113.65C32.7139 112.822 32.8338 111.829 33.1303 110.761C33.4237 109.7 33.9378 108.562 34.7801 107.601C35.6097 106.641 36.6696 105.954 37.7452 105.718C38.2815 105.596 38.8051 105.593 39.2846 105.631C39.764 105.667 40.2088 105.744 40.6063 105.841C41.4043 106.034 42.0163 106.315 42.4043 106.563C42.5967 106.689 42.7387 106.802 42.827 106.886C42.9153 106.969 42.9595 107.018 42.9532 107.021H42.9595Z" fill="#263238"/>
<path d="M38.9062 103.496C38.9062 103.496 39.0072 103.467 39.1933 103.448C39.3794 103.425 39.6507 103.419 39.9851 103.438C40.3194 103.454 40.7169 103.512 41.149 103.616C41.578 103.725 42.0449 103.886 42.5086 104.109C42.9691 104.338 43.3855 104.605 43.7388 104.88C44.089 105.16 44.3823 105.437 44.6063 105.695C44.8303 105.95 44.9974 106.169 45.0952 106.33C45.1962 106.492 45.2498 106.582 45.2403 106.588C45.2151 106.608 44.9848 106.256 44.5211 105.776C44.2908 105.534 43.9943 105.27 43.6473 105.005C43.294 104.744 42.8871 104.486 42.436 104.264C41.9818 104.044 41.5307 103.886 41.1112 103.77C40.6885 103.661 40.3037 103.593 39.9756 103.564C39.3195 103.499 38.9094 103.535 38.9062 103.503V103.496Z" fill="#263238"/>
<path d="M46.6199 102.527C46.6199 102.527 46.478 102.527 46.2256 102.494C45.9733 102.462 45.6074 102.423 45.1563 102.388C44.2541 102.317 42.9987 102.301 41.6233 102.468C40.2512 102.639 39.0336 102.959 38.1724 103.242C37.7403 103.384 37.3933 103.51 37.1567 103.603C36.9201 103.694 36.7845 103.739 36.7813 103.729C36.7782 103.72 36.9012 103.652 37.1346 103.542C37.3649 103.429 37.7056 103.287 38.1377 103.129C38.9957 102.813 40.2196 102.472 41.6076 102.301C42.9924 102.133 44.2636 102.169 45.1689 102.269C45.6231 102.317 45.9891 102.375 46.2383 102.427C46.4875 102.478 46.6263 102.51 46.6231 102.523L46.6199 102.527Z" fill="#263238"/>
<path d="M70.9412 85.2916C70.9412 85.2916 70.9096 85.2594 70.8528 85.1852C70.7929 85.1014 70.714 84.995 70.6194 84.866C70.4112 84.5693 70.121 84.1599 69.7614 83.6504C69.0233 82.5864 67.9981 81.1064 66.7868 79.362L66.9193 79.3426C66.4587 80.7227 65.9509 82.2478 65.4178 83.8503L65.3831 83.9503L65.2979 83.8922C65.2411 83.8568 65.1812 83.8148 65.1213 83.7761C64.4147 83.3183 63.7901 82.7669 63.2633 82.1704C62.7365 81.5707 62.2981 80.9322 61.9353 80.2938C61.2098 79.0137 60.7713 77.753 60.4748 76.6857C60.1783 75.6152 60.0237 74.7253 59.9228 74.1159C59.8723 73.8225 59.8345 73.5903 59.8029 73.413C59.7871 73.3324 59.7714 73.2743 59.7619 73.2324C59.7461 73.197 59.7398 73.1744 59.743 73.1744C59.7777 73.1583 59.8692 73.4968 59.9859 74.1062C60.1089 74.7124 60.2792 75.5959 60.5884 76.6567C60.8975 77.7143 61.3423 78.9621 62.0678 80.2197C62.4305 80.8484 62.8627 81.4739 63.3832 82.064C63.9068 82.6476 64.5188 83.1893 65.2096 83.6375C65.2695 83.6762 65.3295 83.7149 65.3831 83.7504L65.2632 83.7955C65.8026 82.193 66.3136 80.6711 66.7773 79.2943L66.8246 79.1492L66.9098 79.2749C68.099 81.0322 69.1084 82.5251 69.834 83.5988C70.1809 84.1179 70.4554 84.5371 70.6573 84.8402C70.7456 84.9756 70.815 85.0852 70.8718 85.1723C70.9191 85.2497 70.9412 85.2884 70.938 85.2916H70.9412Z" fill="#263238"/>
<g opacity="0.3">
<path d="M80.8332 100.186C80.4799 103.794 81.2591 107.509 83.0287 110.649C84.7952 113.793 87.3881 116.592 90.6151 118.097C90.7192 114.896 90.5678 111.123 90.6719 107.921L80.8332 100.186Z" fill="black"/>
</g>
<path d="M80.4788 95.9708C80.4788 95.9708 79.1003 96.361 80.135 99.2533C81.1696 102.142 81.5135 101.968 82.2043 104.673C82.8951 107.375 83.6995 109.845 84.9076 111.374C86.1158 112.902 90.6013 116.017 90.6013 116.017L94.6264 112.138C94.6264 112.138 93.964 109.246 94.1217 107.282C94.2794 105.318 94.6832 100.498 94.6264 99.6757C94.5696 98.8534 93.7053 96.8543 93.7053 96.8543V95.4872L91.636 88.9772C91.636 88.9772 90.4846 88.4484 90.084 90.3282L89.3932 88.3323C89.3932 88.3323 88.3018 88.1549 88.0147 90.4475C87.7277 92.74 88.245 95.9128 88.245 95.9128L87.6709 99.911L86.8097 102.613L86.0621 102.729C86.0621 102.729 84.936 102.416 84.3209 100.25C83.7058 98.086 82.0371 95.5001 80.4851 95.9708H80.4788Z" fill="#FFBE9D"/>
<path d="M93.2736 106.192C93.2736 106.192 93.2641 106.14 93.2547 106.043C93.2484 105.931 93.2389 105.789 93.2263 105.611C93.2042 105.218 93.1758 104.673 93.1411 103.993C93.078 102.59 92.9929 100.636 92.8919 98.3565L92.9108 98.4048C92.7247 98.1791 92.3967 98.1114 92.097 98.1888C91.791 98.263 91.5197 98.4564 91.3494 98.7466C90.9993 99.3238 90.9772 100.078 90.8699 100.807C90.6523 102.455 90.4441 104.022 90.2548 105.453C90.1602 106.166 90.0592 106.846 89.9205 107.475C89.788 108.104 89.6019 108.678 89.4221 109.19C89.2454 109.703 89.0877 110.167 88.9899 110.587C88.8921 111.006 88.8511 111.373 88.8606 111.676C88.8732 112.283 89.0467 112.592 89.0183 112.599C89.012 112.599 88.9804 112.524 88.9205 112.373C88.8732 112.218 88.8069 111.986 88.7943 111.68C88.7754 111.373 88.8069 110.993 88.8984 110.567C88.9899 110.142 89.1413 109.671 89.3117 109.155C89.4851 108.639 89.6618 108.075 89.788 107.449C89.9173 106.827 90.0119 106.15 90.1034 105.437C90.2895 104.006 90.4914 102.439 90.7059 100.791C90.7564 100.423 90.7942 100.062 90.8573 99.6978C90.9204 99.3367 91.0182 98.9755 91.2138 98.666C91.3967 98.35 91.7185 98.1179 92.0592 98.0372C92.3967 97.9502 92.7973 98.0276 93.0276 98.3113L93.0433 98.3339V98.3597C93.1222 100.639 93.1853 102.593 93.2326 103.999C93.2484 104.679 93.2641 105.224 93.2736 105.621C93.2736 105.798 93.2768 105.94 93.2768 106.053C93.2768 106.15 93.2768 106.201 93.2704 106.201L93.2736 106.192Z" fill="#EB996E"/>
<path d="M91.076 98.7852C91.076 98.7852 91.0034 98.6595 90.9056 98.4176C90.811 98.1758 90.6848 97.8179 90.5681 97.3633C90.4514 96.9119 90.341 96.3605 90.2779 95.7446C90.2464 95.4351 90.2243 95.1062 90.2622 94.7644C90.2968 94.4226 90.3946 94.0615 90.6091 93.7584C90.7921 93.494 91.0508 93.2812 91.3441 93.1942L91.4072 93.1748L91.4387 93.2328C92.0223 94.284 92.527 95.2126 92.8835 95.8801C93.0475 96.1928 93.1831 96.454 93.2967 96.67C93.3913 96.857 93.4386 96.9602 93.4292 96.9667C93.4197 96.9731 93.3566 96.8764 93.2462 96.6991C93.1232 96.4927 92.9718 96.238 92.792 95.9349C92.4103 95.2803 91.8867 94.3646 91.2968 93.3167L91.3914 93.3554C91.1391 93.4328 90.9088 93.6165 90.7448 93.8584C90.5524 94.1357 90.4577 94.4646 90.423 94.787C90.3883 95.1127 90.4041 95.4319 90.4293 95.735C90.483 96.3444 90.5776 96.8893 90.6817 97.3407C90.7826 97.7921 90.8899 98.1533 90.9656 98.4015C91.0413 98.6498 91.0854 98.7852 91.076 98.7917V98.7852Z" fill="#EB996E"/>
<path d="M90.1086 99.3173C90.1086 99.3173 90.0834 99.1851 90.0708 98.9432C90.0613 98.6659 90.0455 98.3241 90.0298 97.9211C90.0014 97.057 89.9761 95.8639 89.9572 94.5452C89.9478 93.2264 89.8973 92.0301 90.0077 91.1628C90.0613 90.7307 90.1465 90.3857 90.2222 90.1568C90.2979 89.9246 90.361 89.8053 90.3704 89.8118C90.3988 89.8214 90.1938 90.3212 90.1212 91.1789C90.0424 92.0334 90.1086 93.2264 90.1212 94.5452C90.1402 95.8639 90.1465 97.057 90.1465 97.9211C90.1433 98.3241 90.137 98.6659 90.1339 98.9464C90.1276 99.1883 90.1181 99.3205 90.1086 99.3237V99.3173Z" fill="#EB996E"/>
<path d="M86.7063 110.152C86.6842 110.133 86.9334 109.83 87.2457 109.278C87.4034 109.004 87.5643 108.662 87.7125 108.275C87.8545 107.882 87.9838 107.44 88.0721 106.966C88.1542 106.489 88.1825 106.031 88.1825 105.612C88.1762 105.193 88.1415 104.816 88.0879 104.506C87.9838 103.881 87.8513 103.507 87.8797 103.497C87.8892 103.494 87.9302 103.584 87.9933 103.752C88.0595 103.919 88.1321 104.171 88.2015 104.484C88.2709 104.8 88.3182 105.183 88.334 105.609C88.3434 106.038 88.315 106.508 88.233 106.995C88.1447 107.482 88.0091 107.934 87.8545 108.33C87.6936 108.724 87.517 109.069 87.3435 109.339C87.1731 109.61 87.0186 109.82 86.8987 109.952C86.782 110.088 86.7126 110.158 86.7031 110.149L86.7063 110.152Z" fill="#EB996E"/>
<path d="M93.7732 108.129L97.2651 109.367C97.2651 109.367 100.599 107.603 102.899 109.367C105.198 111.131 107.195 115.777 106.564 117.657C106.564 117.657 104.978 119.659 103.77 119.953C102.561 120.246 97.8676 119.085 95.915 118.663C93.9561 118.241 90.5935 116.006 90.5935 116.006L93.77 108.126L93.7732 108.129Z" fill="#FFBE9D"/>
<path d="M94.2011 113.391C94.2011 113.391 94.1758 113.278 94.1632 113.075C94.1506 112.833 94.1317 112.546 94.1128 112.214C94.0749 111.485 94.0276 110.479 94.0118 109.363C93.996 108.248 94.0276 107.239 94.0938 106.51C94.1254 106.146 94.1632 105.852 94.1979 105.649C94.2326 105.446 94.2579 105.336 94.2705 105.339C94.2957 105.343 94.2421 105.791 94.2074 106.516C94.1727 107.242 94.1601 108.248 94.1758 109.36C94.1948 110.45 94.2137 111.437 94.2263 112.211C94.2295 112.575 94.2263 112.872 94.2263 113.075C94.22 113.278 94.2105 113.391 94.2011 113.391Z" fill="#EB996E"/>
<path d="M105.719 109.231C105.693 109.257 105.334 108.747 104.558 108.16C103.791 107.574 102.548 106.948 101.078 106.864C99.6054 106.784 98.3026 107.264 97.4793 107.761C96.6434 108.257 96.2333 108.721 96.2112 108.692C96.2049 108.686 96.3027 108.567 96.4983 108.373C96.6939 108.18 97.003 107.922 97.4194 107.657C98.2427 107.125 99.5738 106.613 101.088 106.697C102.602 106.784 103.87 107.445 104.63 108.064C105.015 108.373 105.296 108.667 105.469 108.879C105.646 109.092 105.728 109.224 105.722 109.228L105.719 109.231Z" fill="#263238"/>
<path d="M105.268 106.252C105.246 106.288 104.779 105.804 103.814 105.433C102.864 105.053 101.391 104.878 99.8804 105.314C99.1264 105.53 98.4356 105.836 97.8458 106.178C97.2559 106.523 96.7638 106.9 96.3726 107.242C95.9815 107.584 95.6818 107.884 95.4768 108.09C95.2717 108.3 95.1582 108.412 95.1487 108.406C95.1424 108.4 95.2402 108.271 95.4326 108.045C95.625 107.822 95.9121 107.51 96.3001 107.152C96.6849 106.794 97.177 106.4 97.7732 106.042C98.3694 105.688 99.0697 105.369 99.8393 105.149C101.388 104.704 102.899 104.904 103.858 105.32C104.344 105.523 104.703 105.759 104.934 105.939C105.054 106.026 105.132 106.11 105.189 106.162C105.246 106.217 105.274 106.246 105.268 106.249V106.252Z" fill="#263238"/>
<path d="M105.298 103.672C105.288 103.704 104.68 103.514 103.664 103.375C103.156 103.301 102.547 103.259 101.872 103.259C101.197 103.269 100.456 103.327 99.6862 103.459C98.9197 103.601 98.2037 103.807 97.5633 104.033C96.9293 104.268 96.3709 104.52 95.9199 104.768C95.0145 105.255 94.5035 105.645 94.4846 105.619C94.4783 105.61 94.6013 105.51 94.8347 105.332C94.9483 105.242 95.0934 105.139 95.2669 105.029C95.4404 104.92 95.636 104.784 95.8631 104.665C96.311 104.404 96.8725 104.139 97.5097 103.891C98.1532 103.656 98.8787 103.443 99.6547 103.298C100.434 103.162 101.185 103.107 101.869 103.107C102.554 103.117 103.169 103.172 103.677 103.262C103.932 103.294 104.159 103.356 104.361 103.398C104.563 103.44 104.733 103.488 104.869 103.53C105.147 103.614 105.295 103.665 105.292 103.675L105.298 103.672Z" fill="#263238"/>
<path d="M78.5345 72.0986C78.5345 72.0986 78.6953 72.4082 78.7774 73.0466C78.8625 73.6818 78.8499 74.6362 78.6449 75.8163C78.5408 76.4064 78.402 77.0545 78.1938 77.7478C77.9761 78.441 77.6481 79.1504 77.2759 79.892C76.5251 81.3752 75.5756 82.9906 74.481 84.7156L74.3517 84.9188V84.6769C74.3517 83.5387 74.3485 82.3425 74.3454 81.0979L74.4684 81.1591C73.5284 81.933 72.5411 82.7488 71.5222 83.5903L71.5474 83.5516C70.8661 85.7636 70.415 88.227 70.2383 90.7904C69.9513 94.7144 70.1816 98.4676 70.3645 101.873C70.5191 105.281 70.62 108.354 70.7241 110.93C70.8251 113.509 70.9165 115.592 70.9922 117.034C71.0333 117.746 71.0648 118.304 71.0869 118.691C71.0995 118.875 71.109 119.017 71.1153 119.123C71.1216 119.22 71.1184 119.271 71.1184 119.271C71.1184 119.271 71.109 119.223 71.0963 119.126C71.0869 119.023 71.0711 118.878 71.0522 118.697C71.0175 118.32 70.9733 117.759 70.926 117.04C70.8314 115.599 70.721 113.516 70.6074 110.936C70.4938 108.357 70.3614 105.287 70.21 101.882C70.0207 98.4805 69.7841 94.7177 70.0712 90.7807C70.251 88.2076 70.702 85.7313 71.3929 83.5065L71.3992 83.4839L71.4181 83.4678C72.437 82.6295 73.4275 81.8169 74.3675 81.0431L74.4905 80.9431V81.1043C74.4905 82.3457 74.4873 83.542 74.4842 84.6834L74.3549 84.6447C76.5219 81.2107 78.2853 78.225 78.5565 75.8099C78.7742 74.6394 78.7994 73.6947 78.7269 73.0595C78.6953 72.7403 78.6354 72.5049 78.5976 72.3437C78.5471 72.1857 78.5282 72.1051 78.5282 72.1051L78.5345 72.0986Z" fill="#263238"/>
<path d="M72.8763 113.69H72.7628C72.3054 113.7 71.8984 114.125 71.8984 114.593C71.8984 115.06 72.3022 115.489 72.7564 115.505C73.2138 115.521 73.646 115.122 73.6744 114.657C73.7059 114.193 73.3274 113.738 72.8732 113.693L72.8763 113.69Z" fill="white"/>
<path d="M72.8763 101.261H72.7628C72.3054 101.271 71.8984 101.697 71.8984 102.164C71.8984 102.632 72.3022 103.06 72.7564 103.077C73.2138 103.093 73.646 102.693 73.6744 102.229C73.7059 101.764 73.3274 101.31 72.8732 101.264L72.8763 101.261Z" fill="white"/>
<path d="M72.7596 90.1441C73.217 90.1603 73.6491 89.7604 73.6775 89.2961C73.7091 88.8318 73.3305 88.3772 72.8763 88.332H72.7628C72.3054 88.3417 71.8984 88.7673 71.8984 89.2349C71.8984 89.7024 72.3022 90.1312 72.7564 90.1474L72.7596 90.1441Z" fill="white"/>
<path d="M59.1375 57.5337C58.0303 56.2826 56.9168 55.0155 56.1092 53.5451C55.3017 52.0748 54.8222 50.3562 55.0904 48.6924C55.2449 47.7187 55.6519 46.7933 55.7149 45.8066C55.8033 44.4524 55.2481 43.0369 55.7149 41.7697C56.4499 39.7867 59.0618 39.4804 60.6453 38.11C61.8787 37.0428 62.478 35.3113 63.8376 34.4117C65.0236 33.6281 66.5472 33.6443 67.9446 33.8474C69.342 34.0505 70.7489 34.4117 72.1495 34.2182C73.1463 34.0795 74.0863 33.67 75.0642 33.4218C76.042 33.1735 77.1303 33.109 78.0009 33.6249C78.8715 34.1408 79.3605 35.4048 78.7895 36.2528C80.4109 35.4886 82.4707 36.7816 82.9155 38.5485C83.3603 40.3155 82.4707 42.2276 81.0954 43.3916C79.7201 44.5588 77.9441 45.1005 76.1903 45.439C71.2221 46.3967 65.8343 45.855 61.5538 43.1078" fill="#263238"/>
<path d="M76.6065 74.6065C76.3636 72.6848 76.1649 71.0823 76.1523 70.8823C76.1523 70.8823 82.4359 69.4378 82.0889 62.9439C81.9217 59.8066 81.0605 53.3675 80.2183 47.5539C79.313 41.3115 73.859 36.8296 67.6984 37.2488L67.0865 37.2907C60.5063 38.1355 57.5349 44.3231 58.5443 51.0202L62.093 73.4844C62.093 73.4844 63.6071 78.4532 66.8499 79.3141L70.938 85.2857L71.6131 82.7158L74.6602 80.0041C74.6602 80.0041 75.3605 79.2303 76.1617 77.718C76.8178 76.4799 76.6791 75.2095 76.6002 74.6065H76.6065Z" fill="#FFBE9D"/>
<path d="M76.1537 70.7861C76.1537 70.7861 72.1633 71.3955 67.7188 68.9482C67.7188 68.9482 69.9805 73.4849 76.2767 72.466L76.1505 70.7861H76.1537Z" fill="#EB996E"/>
<path d="M78.1679 53.1351C78.2183 53.622 77.8524 54.0669 77.354 54.1314C76.8556 54.1927 76.414 53.8477 76.3635 53.3608C76.3162 52.8739 76.679 52.4257 77.1742 52.3645C77.6726 52.3032 78.1142 52.6482 78.1647 53.1383L78.1679 53.1351Z" fill="#263238"/>
<path d="M79.0578 50.8318C78.9537 50.9608 78.2314 50.4868 77.2567 50.5577C76.2819 50.6125 75.5974 51.1736 75.4839 51.0607C75.4271 51.0091 75.528 50.7834 75.8245 50.5319C76.1179 50.2804 76.6258 50.0192 77.2346 49.9806C77.8434 49.9419 78.3702 50.1353 78.6793 50.3514C78.9947 50.5674 79.1115 50.777 79.0578 50.835V50.8318Z" fill="#263238"/>
<path d="M68.9491 53.806C68.9996 54.2929 68.6337 54.7378 68.1353 54.8023C67.6369 54.8636 67.1952 54.5186 67.1448 54.0317C67.0975 53.5448 67.4602 53.0966 67.9555 53.0354C68.4539 52.9741 68.8955 53.3191 68.9459 53.8092L68.9491 53.806Z" fill="#263238"/>
<path d="M69.4797 51.6726C69.3756 51.8016 68.6532 51.3276 67.6785 51.3985C66.7038 51.4534 66.0193 52.0144 65.9057 51.9015C65.849 51.8499 65.9499 51.6242 66.2464 51.3727C66.5366 51.1212 67.0476 50.8601 67.6533 50.8214C68.2621 50.7827 68.7889 50.9761 69.098 51.1922C69.4135 51.4082 69.5302 51.6178 69.4765 51.6758L69.4797 51.6726Z" fill="#263238"/>
<path d="M73.5071 58.8279C73.4976 58.7731 74.0969 58.6215 75.0717 58.4281C75.3177 58.3862 75.5511 58.3184 75.5827 58.1411C75.63 57.9541 75.507 57.6865 75.3682 57.3963C75.0937 56.7965 74.8067 56.1678 74.5039 55.5068C73.2989 52.8144 72.4093 50.596 72.5166 50.5477C72.6238 50.4993 73.6837 52.6403 74.8887 55.3327C75.1789 55.9969 75.4565 56.6289 75.7215 57.235C75.835 57.5188 76.018 57.8348 75.917 58.2249C75.8634 58.4184 75.6899 58.5699 75.5322 58.6248C75.3745 58.686 75.2357 58.6989 75.1127 58.715C74.1285 58.8376 73.5134 58.8827 73.5071 58.8279Z" fill="#263238"/>
<path d="M69.4778 47.7444C69.3989 48.0217 68.4179 47.9604 67.2823 48.1797C66.1436 48.3764 65.2414 48.7827 65.0742 48.5473C64.9985 48.4344 65.1436 48.17 65.5 47.8798C65.8533 47.5929 66.4274 47.3027 67.1088 47.1769C67.7902 47.0544 68.4273 47.1221 68.8563 47.2672C69.2885 47.4123 69.5125 47.609 69.4809 47.7412L69.4778 47.7444Z" fill="#263238"/>
<path d="M78.5063 47.9696C78.3485 48.2082 77.6609 48.0179 76.8533 48.0631C76.0426 48.0792 75.3708 48.3178 75.1973 48.0921C75.1216 47.9825 75.213 47.7471 75.5001 47.5117C75.7808 47.2796 76.2635 47.07 76.8186 47.0474C77.3738 47.028 77.8691 47.1989 78.1656 47.4117C78.4652 47.6246 78.5757 47.8503 78.5063 47.9663V47.9696Z" fill="#263238"/>
<path d="M59.3769 55.7911C59.2665 55.7492 54.9291 54.769 55.3581 59.1993C55.7871 63.6264 60.4809 62.1851 60.4778 62.0561C60.4715 61.9271 59.38 55.7944 59.38 55.7944L59.3769 55.7911Z" fill="#FFBE9D"/>
<path d="M58.5565 60.6015C58.5376 60.5886 58.4871 60.6627 58.3641 60.7369C58.2442 60.8078 58.036 60.8691 57.8026 60.8046C57.3295 60.6789 56.8721 59.976 56.7743 59.1795C56.7238 58.7765 56.7711 58.3863 56.8784 58.0542C56.9793 57.7157 57.1623 57.4706 57.3894 57.4061C57.6133 57.3287 57.79 57.4545 57.8562 57.5738C57.9256 57.6931 57.9067 57.7834 57.9319 57.7866C57.9446 57.7963 58.0171 57.7028 57.9666 57.5222C57.9414 57.4351 57.8783 57.3384 57.7679 57.261C57.6544 57.1836 57.4998 57.1578 57.3389 57.1901C57.0077 57.2481 56.7364 57.5931 56.6166 57.9575C56.4778 58.3251 56.4178 58.7668 56.4746 59.2182C56.5882 60.1082 57.115 60.8981 57.7616 61.0174C58.0739 61.069 58.3199 60.9497 58.4398 60.8304C58.5628 60.7079 58.5754 60.6047 58.5597 60.5983L58.5565 60.6015Z" fill="#EB996E"/>
<path d="M79.9014 41.5042C79.6049 43.2679 76.1067 44.8801 73.2078 44.7963C70.536 44.7157 69.2143 43.3614 67.2712 42.3973C66.451 41.9911 65.4858 41.8803 64.3754 42.0652C63.0253 42.2909 62.3282 43.916 61.5711 45.08C63.0127 48.2947 62.4291 52.0318 61.8203 55.5141C61.7541 55.8978 61.6689 56.3138 61.3819 56.5717C60.8961 57.0102 60.1043 56.749 59.628 56.3009C58.8615 55.5818 58.5113 54.5178 58.2621 53.4892C57.6912 51.1418 57.4704 48.6816 57.8331 46.2892C58.1959 43.8967 59.1643 41.5751 60.7636 39.7888C62.7603 37.5575 65.6813 36.271 68.637 36.1162C71.5927 35.9615 74.561 36.8965 77.0341 38.5539C78.1823 39.3213 79.2548 40.2725 79.9046 41.5106" fill="#263238"/>
<path d="M74.147 61.0711C73.412 60.7196 72.6739 60.3681 71.9389 60.0199C71.8128 59.9586 71.6771 59.8974 71.5383 59.9167C71.3806 59.9393 71.2576 60.0586 71.1566 60.1811C70.6456 60.8163 70.5163 61.7707 70.9106 62.4866C71.3081 63.2024 72.2386 63.5796 72.983 63.2636C73.7653 62.9315 74.147 62.0029 74.207 61.1388L74.147 61.0678V61.0711Z" fill="#EB996E"/>
<path d="M73.0536 63.4256C73.0599 63.4449 72.9527 63.5094 72.7319 63.5578C72.5142 63.5997 72.1735 63.619 71.7824 63.4868C71.3944 63.3611 70.9559 63.0516 70.6847 62.555C70.4102 62.0713 70.3093 61.391 70.549 60.7751C70.6626 60.4688 70.8424 60.198 71.06 59.9852C71.1704 59.8788 71.2872 59.7885 71.4196 59.7079C71.489 59.6692 71.5742 59.6305 71.6751 59.624C71.7729 59.6176 71.8613 59.6434 71.9307 59.6756C72.0758 59.7401 72.1672 59.8111 72.2745 59.8755C72.3786 59.94 72.4764 60.0045 72.5742 60.0658C72.7634 60.1883 72.9432 60.3012 73.1104 60.4108C73.7665 60.8364 74.1577 61.1169 74.1356 61.1588C74.1135 61.1975 73.6782 60.988 72.9937 60.6171C72.8202 60.5204 72.6341 60.4172 72.4354 60.3076C72.3344 60.2496 72.2303 60.1915 72.1262 60.1335C72.0221 60.0755 71.9054 60.0013 71.8139 59.9658C71.713 59.9304 71.6688 59.9336 71.5711 59.9884C71.4733 60.0497 71.3692 60.1335 71.2808 60.2238C71.0979 60.4076 70.9496 60.6365 70.8518 60.8977C70.65 61.4168 70.7225 61.9811 70.9465 62.4099C71.1673 62.842 71.5237 63.1257 71.8581 63.2676C72.1956 63.4127 72.5048 63.432 72.713 63.432C72.9243 63.4256 73.041 63.4062 73.0505 63.432L73.0536 63.4256Z" fill="#263238"/>
<path d="M72.3555 53.2478C72.3302 53.2478 72.3586 52.8351 72.182 52.1258C72.0085 51.4325 71.5542 50.4104 70.5322 49.6172C70.0243 49.2303 69.3871 48.9046 68.6522 48.7724C67.9235 48.6466 67.097 48.6692 66.3147 48.9755C65.9204 49.1174 65.5388 49.327 65.1918 49.5946C64.8385 49.8558 64.5167 50.1815 64.2517 50.5587C63.706 51.3035 63.3969 52.258 63.3874 53.2414C63.3969 54.2248 63.7029 55.1825 64.2517 55.9273C64.5167 56.3046 64.8385 56.6302 65.1918 56.8946C65.5419 57.1622 65.9204 57.3751 66.3147 57.5137C67.097 57.82 67.9235 57.8426 68.6522 57.7168C69.3871 57.5846 70.0243 57.259 70.5322 56.872C71.5542 56.0821 72.0085 55.0599 72.182 54.3635C72.3586 53.6541 72.3302 53.2414 72.3555 53.2414C72.3555 53.2414 72.3586 53.2672 72.3586 53.3156C72.3586 53.3768 72.3586 53.4478 72.3586 53.5348C72.3586 53.6315 72.3555 53.7508 72.3302 53.8927C72.3113 54.0346 72.2955 54.1958 72.245 54.3764C72.1725 54.7375 72.0116 55.1664 71.7561 55.6242C71.4974 56.0789 71.1221 56.5561 70.6048 56.9623C70.0906 57.3654 69.4376 57.7072 68.6806 57.849C67.9298 57.9845 67.0781 57.9651 66.2674 57.6556C65.8573 57.5137 65.463 57.2944 65.1003 57.0171C64.7344 56.7463 64.4 56.411 64.1256 56.0208C63.5578 55.2502 63.236 54.2603 63.2266 53.2382C63.236 52.216 63.5578 51.2262 64.1256 50.4555C64.4 50.0654 64.7344 49.73 65.1003 49.4592C65.463 49.1851 65.8573 48.9659 66.2674 48.824C67.0781 48.5112 67.9298 48.4919 68.6806 48.6305C69.4376 48.7724 70.0906 49.1174 70.6048 49.5172C71.1221 49.9235 71.4974 50.4007 71.7561 50.8554C72.0116 51.3132 72.1725 51.7421 72.245 52.1032C72.2955 52.2805 72.3113 52.445 72.3302 52.5868C72.3523 52.7287 72.3586 52.848 72.3586 52.9448C72.3586 53.0318 72.3586 53.106 72.3586 53.164C72.3586 53.2124 72.3586 53.2382 72.3555 53.2382V53.2478Z" fill="#263238"/>
<path d="M83.1518 52.813C83.1265 52.813 83.1518 52.41 82.9814 51.72C82.8111 51.0429 82.3695 50.0465 81.3727 49.2791C80.8806 48.9019 80.2592 48.5826 79.5431 48.4569C78.8334 48.3344 78.029 48.3569 77.2656 48.6568C76.8808 48.7922 76.5117 48.9986 76.171 49.2598C75.8272 49.5145 75.5149 49.8337 75.2563 50.2013C74.7232 50.9268 74.4235 51.8554 74.414 52.8163C74.4235 53.7771 74.7232 54.7057 75.2531 55.4312C75.5118 55.7988 75.8241 56.1148 76.1679 56.3728C76.5086 56.6339 76.8776 56.8403 77.2625 56.9757C78.0258 57.2724 78.8271 57.2982 79.54 57.1724C80.256 57.0434 80.8774 56.7242 81.3695 56.3502C82.3663 55.5796 82.8079 54.5864 82.9751 53.9093C83.1455 53.2193 83.1202 52.8163 83.1455 52.8163C83.1518 52.8163 83.1518 52.9162 83.1455 53.1032C83.1455 53.1967 83.1423 53.316 83.1202 53.4515C83.1013 53.5901 83.0855 53.7481 83.0382 53.9222C82.8836 54.6122 82.4515 55.6408 81.4389 56.4437C80.9374 56.8371 80.3002 57.1724 79.562 57.3078C78.8302 57.44 78.0006 57.4207 77.2088 57.1176C76.8114 56.9789 76.4265 56.7661 76.0733 56.4953C75.7168 56.2309 75.3919 55.9052 75.1238 55.5247C74.5686 54.7735 74.2563 53.8094 74.25 52.813C74.2595 51.8167 74.5718 50.8526 75.1269 50.1013C75.3951 49.7209 75.72 49.392 76.0764 49.1308C76.4297 48.8632 76.8145 48.6504 77.212 48.5117C78.0038 48.2086 78.8334 48.1893 79.5652 48.3215C80.3033 48.4601 80.9405 48.7955 81.4421 49.1856C82.4546 49.9885 82.8868 51.0138 83.0414 51.7071C83.0887 51.8812 83.1076 52.0392 83.1234 52.1778C83.1455 52.3133 83.1518 52.4326 83.1486 52.5261C83.1518 52.7163 83.1518 52.813 83.1486 52.813H83.1518Z" fill="#263238"/>
<path d="M74.3445 51.7919C74.3256 51.8113 74.2215 51.721 74.0322 51.6275C73.843 51.534 73.5591 51.4437 73.2373 51.4501C72.9187 51.4534 72.6348 51.5566 72.4487 51.6565C72.2594 51.7565 72.1616 51.85 72.1427 51.8338C72.1269 51.8209 72.1995 51.692 72.3888 51.5565C72.5749 51.4211 72.8777 51.2889 73.2341 51.2825C73.5874 51.276 73.8966 51.3953 74.089 51.5243C74.2814 51.6533 74.3603 51.779 74.3445 51.7919Z" fill="#263238"/>
<path d="M63.5775 52.5932C63.6059 52.6319 62.7195 53.3541 61.5997 54.2054C60.4799 55.0598 59.5525 55.7208 59.5241 55.6853C59.4957 55.6467 60.3821 54.9276 61.5019 54.0732C62.6217 53.2187 63.5491 52.5577 63.5775 52.5932Z" fill="#263238"/>
<g opacity="0.3">
<path d="M59.8514 73.5784C59.4129 77.9539 61.0406 82.5744 64.4726 85.2249C64.7407 85.4345 65.0814 85.6376 65.3968 85.5215C65.6176 85.4409 65.7596 85.2249 65.8763 85.0153C66.8542 83.2838 67.1822 81.3717 66.9015 79.392C66.3589 80.8558 65.8921 82.2907 65.3432 83.8223C62.3528 81.965 60.4854 78.0184 59.8514 73.5752V73.5784Z" fill="black"/>
</g>
<path opacity="0.3" d="M71.4766 83.5302L73.9969 82.5887L74.4133 86.9449C74.4133 86.9449 77.1324 81.8794 78.2586 79.5675C79.3847 77.2556 78.8043 73.1768 78.8043 73.1768C78.8043 73.1768 79.208 76.73 76.4826 81.2603L74.4259 84.6781V81.0991L71.4766 83.527V83.5302Z" fill="black"/>
<g opacity="0.3">
<path d="M42.1663 105.666C41.0434 105.125 39.75 105.05 38.5167 105.199C37.2139 105.354 35.9048 105.763 34.8828 106.605C33.8607 107.446 33.1699 108.775 33.2961 110.11L33.4223 110.129C34.3024 107.698 36.0499 105.927 38.3053 105.711C40.5607 105.499 42.7594 106.524 44.3082 108.214C44.1568 106.953 43.2893 106.211 42.1663 105.666Z" fill="black"/>
</g>
<g opacity="0.3">
<path d="M105.882 108.15C105.037 107.219 103.851 106.654 102.627 106.435C100.479 106.051 98.1729 106.735 96.5547 108.231L97.0342 107.831C98.2549 107.099 99.6618 106.667 101.078 106.709C102.491 106.751 103.908 107.286 104.933 108.283C105.876 109.198 106.441 110.44 106.98 111.649C107.191 110.398 106.725 109.079 105.879 108.147L105.882 108.15Z" fill="black"/>
</g>
<path d="M89.6406 87.9205C89.6406 87.9205 89.6722 87.7915 89.7542 87.569C89.852 87.3143 89.9718 87.0015 90.1138 86.6307C90.4198 85.8408 90.8362 84.7477 91.2809 83.5353C91.7225 82.3197 92.1042 81.2138 92.3787 80.4109C92.508 80.0369 92.6184 79.7209 92.7067 79.4629C92.7856 79.2405 92.8361 79.1179 92.8455 79.1212C92.855 79.1244 92.8266 79.2534 92.7667 79.4823C92.7067 79.7112 92.6121 80.0433 92.4891 80.4496C92.243 81.2621 91.8771 82.3778 91.4355 83.5934C90.9939 84.809 90.5554 85.8956 90.2242 86.6759C90.057 87.066 89.9182 87.3788 89.8173 87.5948C89.7163 87.8109 89.6564 87.9269 89.6469 87.9205H89.6406Z" fill="#263238"/>
<path d="M49.8691 88.2379C49.8249 88.2476 49.4811 86.7128 49.1026 84.8104C48.724 82.908 48.4527 81.3603 48.4969 81.3506C48.5411 81.341 48.8849 82.8758 49.2634 84.7782C49.642 86.6805 49.9132 88.2282 49.8691 88.2379Z" fill="#263238"/>
<path d="M49.2795 107.42C49.3805 107.472 48.125 97.3733 48.125 97.3733C48.125 97.3733 48.9168 89.709 49.3615 89.3543L49.3742 86.649C49.3742 86.649 50.6012 85.8881 50.9293 87.1165C50.9293 87.1165 52.0176 86.1525 52.2068 88.4482C52.3961 90.744 52.4371 93.0945 52.4371 93.0945L54.8565 99.2789L55.254 99.4853C55.254 99.4853 55.7745 94.639 56.0773 93.9264C56.3801 93.2139 56.5883 91.4791 57.7334 91.7403C58.8816 92.0015 58.9762 92.972 58.7712 94.552C58.5661 96.1319 58.3075 97.7667 58.4053 98.7856C58.503 99.8045 58.9541 102.055 58.8153 103.838C58.6765 105.621 57.7207 107.508 56.7145 108.83C55.7114 110.152 53.7935 112.886 52.7494 113.711C52.3866 113.998 49.2827 107.417 49.2827 107.417L49.2795 107.42Z" fill="#FFBE9D"/>
<path d="M50.4977 99.201C50.4977 99.201 50.4882 99.0463 50.504 98.769C50.5261 98.4594 50.5513 98.0661 50.5828 97.5953C50.6554 96.6054 50.769 95.2383 50.9046 93.7293C50.974 92.978 51.0402 92.259 51.1002 91.6044C51.1317 91.2787 51.1506 90.9724 51.1096 90.6919C51.0718 90.4114 50.9645 90.1696 50.8068 89.9954C50.4882 89.6408 50.075 89.5505 49.8195 89.5537C49.5514 89.5537 49.4126 89.6246 49.4062 89.6085C49.4062 89.6021 49.4378 89.5859 49.504 89.5569C49.5734 89.5311 49.6775 89.4989 49.8163 89.4892C50.0876 89.4699 50.5292 89.5408 50.892 89.9181C51.0718 90.1051 51.198 90.3759 51.2421 90.6726C51.2926 90.9724 51.2737 91.2916 51.2484 91.6205C51.1917 92.2783 51.1286 92.9941 51.0655 93.7486C50.9298 95.2576 50.7973 96.6215 50.6964 97.6082C50.6428 98.0757 50.5986 98.4691 50.5639 98.7754C50.5292 99.0495 50.504 99.2043 50.4945 99.201H50.4977Z" fill="#EB996E"/>
<path d="M51.798 95.0685C51.8201 95.0879 51.5519 95.3297 51.369 95.865C51.1734 96.3905 51.104 97.1837 50.9652 98.0446C50.8359 98.9088 50.7065 99.6891 50.6088 100.25C50.5078 100.814 50.4353 101.159 50.4132 101.156C50.3911 101.153 50.4226 100.798 50.4952 100.231C50.5646 99.6633 50.675 98.8798 50.8043 98.0156C50.94 97.1579 51.0283 96.3615 51.2617 95.8166C51.3721 95.5457 51.5046 95.3491 51.6119 95.2265C51.7191 95.104 51.7948 95.0556 51.798 95.0621V95.0685Z" fill="#EB996E"/>
<path d="M50.9108 86.9814C50.9108 86.9814 50.9518 87.0911 50.996 87.3007C51.0402 87.507 51.0938 87.8069 51.1537 88.1809C51.2736 88.9257 51.4061 89.9608 51.4913 91.1119C51.5733 92.263 51.5922 93.3077 51.5796 94.0622C51.5733 94.4394 51.5638 94.7458 51.548 94.9553C51.5354 95.1649 51.5228 95.281 51.5102 95.281C51.4849 95.281 51.4818 94.8135 51.4629 94.0622C51.4439 93.3077 51.4092 92.2694 51.3272 91.1248C51.2452 89.9801 51.1317 88.9451 51.0402 88.197C50.9487 87.449 50.8888 86.9879 50.9108 86.9814Z" fill="#EB996E"/>
<path d="M57.8935 96.4501C57.9187 96.4888 57.5402 96.6662 57.0796 96.5211C56.6159 96.3792 56.4014 96.0148 56.4424 95.9987C56.4803 95.9665 56.72 96.2405 57.1269 96.3631C57.5307 96.4953 57.8809 96.405 57.8935 96.4533V96.4501Z" fill="#EB996E"/>
<path d="M49.4138 106.163L43.0198 108.911H39.2093C39.2093 108.911 35.4429 110.113 34.8625 113.721C34.2821 117.333 34.2001 119.19 35.8562 119.635C37.5122 120.08 42.1902 120.131 44.5087 119.345C46.8272 118.558 52.8995 113.547 52.8995 113.547L53.4862 109.923L49.4107 106.16L49.4138 106.163Z" fill="#FFBE9D"/>
<path d="M50.9102 110.15C50.9102 110.15 50.8377 110.099 50.7273 109.979C50.6137 109.867 50.4749 109.68 50.3109 109.441C49.9955 108.957 49.6485 108.225 49.4182 107.374C49.1785 106.523 49.0775 105.727 49.0239 105.153C48.9766 104.579 48.9766 104.221 48.9987 104.218C49.0239 104.218 49.0618 104.569 49.1375 105.136C49.2195 105.704 49.3393 106.487 49.5728 107.326C49.7999 108.167 50.1216 108.886 50.4055 109.377C50.6926 109.863 50.926 110.128 50.9039 110.15H50.9102Z" fill="#EB996E"/>
<path d="M53.6907 111.3C53.656 111.287 53.943 110.79 54.0534 109.9C54.1071 109.458 54.1008 108.92 53.9777 108.343C53.8547 107.766 53.5866 107.172 53.1954 106.618C52.8074 106.06 52.369 105.576 52.0031 105.109C51.6309 104.641 51.3343 104.187 51.1388 103.774C50.9432 103.361 50.8517 102.997 50.817 102.742C50.7855 102.487 50.7981 102.346 50.8075 102.346C50.8391 102.339 50.8296 102.923 51.2429 103.719C51.4447 104.116 51.7476 104.554 52.1198 105.009C52.492 105.467 52.9336 105.95 53.3311 106.518C53.7317 107.082 54.0124 107.708 54.1291 108.304C54.249 108.901 54.2396 109.459 54.1702 109.91C54.1008 110.365 53.9777 110.716 53.8768 110.948C53.8295 111.064 53.7822 111.151 53.7475 111.209C53.7159 111.267 53.6938 111.296 53.6907 111.293V111.3Z" fill="#EB996E"/>
<path d="M43.8325 95.5616C43.7914 95.5842 43.0943 94.2848 42.2742 92.6629C41.454 91.0411 40.8231 89.7094 40.861 89.6868C40.902 89.6642 41.5991 90.9637 42.4193 92.5855C43.2394 94.2074 43.8703 95.5391 43.8325 95.5616Z" fill="white"/>
<path d="M54.1746 83.7959C54.1336 83.7765 54.5657 82.6964 55.1367 81.3808C55.7108 80.0653 56.2092 79.0141 56.2502 79.0335C56.2912 79.0528 55.859 80.133 55.2881 81.4485C54.714 82.7641 54.2156 83.8152 54.1746 83.7959Z" fill="white"/>
<path d="M64.3023 91.4351C64.2676 91.4641 63.6178 90.7225 62.8544 89.7777C62.0879 88.833 61.498 88.043 61.5327 88.014C61.5674 87.985 62.2172 88.7266 62.9806 89.6713C63.7471 90.6161 64.337 91.4061 64.3023 91.4351Z" fill="white"/>
<path d="M61.9708 101.936C61.933 101.91 62.4219 101.156 63.0622 100.253C63.7026 99.3501 64.2515 98.6408 64.2862 98.6698C64.324 98.6956 63.8351 99.4501 63.1947 100.353C62.5544 101.256 62.0055 101.965 61.9708 101.936Z" fill="white"/>
<path d="M58.836 116.768C58.8171 116.777 58.672 116.532 58.467 116.119C58.2588 115.707 57.9906 115.13 57.7225 114.481C57.4512 113.83 57.2336 113.234 57.0853 112.795C56.9402 112.357 56.8645 112.079 56.8866 112.073C56.9087 112.066 57.0222 112.328 57.1957 112.753C57.3945 113.237 57.6216 113.798 57.8739 114.417C58.1326 115.033 58.3692 115.587 58.5742 116.071C58.754 116.493 58.8613 116.758 58.8392 116.771L58.836 116.768Z" fill="white"/>
<path d="M67.7433 110.465C67.7339 110.511 66.8758 110.378 65.8286 110.172C64.7782 109.966 63.9359 109.759 63.9454 109.714C63.9549 109.669 64.8129 109.801 65.8601 110.008C66.9105 110.214 67.7528 110.42 67.7433 110.465Z" fill="white"/>
<path d="M74.6573 96.6036C74.6226 96.5714 75.4428 95.617 76.4837 94.4659C77.5247 93.318 78.3985 92.412 78.43 92.4442C78.4647 92.4764 77.6446 93.4309 76.6036 94.582C75.5626 95.7298 74.6889 96.6359 74.6573 96.6036Z" fill="white"/>
<path d="M81.6016 115.086C81.5669 115.115 80.548 113.91 79.3241 112.391C78.1002 110.872 77.1381 109.618 77.1728 109.589C77.2075 109.56 78.2264 110.766 79.4503 112.284C80.6742 113.803 81.6363 115.057 81.6016 115.086Z" fill="white"/>
<path d="M38.4589 107.209C38.481 107.254 37.5504 107.738 36.5347 108.534C35.5158 109.324 34.8124 110.117 34.7745 110.082C34.7588 110.069 34.9133 109.853 35.2035 109.534C35.4906 109.218 35.9196 108.805 36.4338 108.402C36.9479 108.002 37.4526 107.689 37.828 107.486C38.2034 107.286 38.4494 107.19 38.4589 107.209Z" fill="white"/>
<path d="M41.0587 100.088C41.0965 100.114 40.7653 100.691 40.3174 101.378C39.8694 102.064 39.4783 102.6 39.4404 102.574C39.4026 102.548 39.7338 101.971 40.1817 101.284C40.6297 100.597 41.0208 100.062 41.0587 100.088Z" fill="white"/>
<path d="M46.9058 107.083C46.8711 107.106 46.5399 106.542 46.3696 105.758C46.1929 104.978 46.2529 104.323 46.2939 104.326C46.3443 104.326 46.3601 104.962 46.5305 105.719C46.6976 106.477 46.95 107.061 46.9058 107.08V107.083Z" fill="white"/>
<path d="M47.7823 84.8584C47.7886 84.9036 47.2461 85.0229 46.5679 85.1196C45.8897 85.2196 45.3345 85.2615 45.3282 85.2163C45.3219 85.1712 45.8644 85.0519 46.5426 84.9552C47.2208 84.8552 47.776 84.8133 47.7823 84.8584Z" fill="white"/>
<path d="M52.1744 76.8874C52.1965 76.9293 51.7202 77.2421 51.1114 77.5871C50.5026 77.9321 49.9884 78.1804 49.9695 78.1385C49.9474 78.0966 50.4237 77.7838 51.0325 77.4388C51.6413 77.0938 52.1523 76.8455 52.1744 76.8874Z" fill="white"/>
<path d="M64.547 80.2547C64.5123 80.2837 63.9666 79.6131 63.3294 78.7586C62.6922 77.9041 62.2064 77.1915 62.2443 77.1625C62.279 77.1335 62.8247 77.8042 63.4619 78.6586C64.0991 79.5131 64.5848 80.2257 64.547 80.2547Z" fill="white"/>
<path d="M80.2478 88.2707C80.2163 88.2997 79.6422 87.6968 79.1122 86.8197C78.576 85.9427 78.3015 85.1527 78.3394 85.1366C78.3836 85.1172 78.7242 85.8685 79.251 86.7327C79.7746 87.5968 80.2857 88.2417 80.2478 88.2739V88.2707Z" fill="white"/>
<path d="M86.2361 90.2904C86.2772 90.3098 85.9869 91.0578 85.5863 91.9574C85.1857 92.8603 84.8293 93.5761 84.7851 93.5567C84.7441 93.5374 85.0343 92.7893 85.4349 91.8897C85.8355 90.9869 86.192 90.2711 86.2361 90.2904Z" fill="white"/>
<path d="M87.0767 81.9293C87.042 81.9583 86.3291 81.1426 85.4837 80.1043C84.6384 79.0661 83.9822 78.1987 84.0169 78.1697C84.0516 78.1407 84.7645 78.9564 85.6099 79.9947C86.4553 81.0329 87.1114 81.9003 87.0767 81.9293Z" fill="white"/>
<path d="M77.9291 75.139C77.8845 75.139 77.8176 74.4425 77.7858 73.5752C77.7507 72.711 77.7635 72.0081 77.808 72.0049C77.8526 72.0049 77.9195 72.7014 77.9514 73.5687C77.9864 74.4328 77.9736 75.1358 77.9291 75.139Z" fill="white"/>
<path d="M85.3834 74.7186C85.3897 74.7637 84.516 74.9217 83.4371 75.07C82.3552 75.2183 81.4751 75.299 81.4688 75.2538C81.4625 75.2087 82.3331 75.0507 83.4151 74.9024C84.497 74.754 85.3771 74.6734 85.3834 74.7186Z" fill="white"/>
<path d="M97.1387 83.5415C97.0977 83.5609 96.574 82.5387 95.9652 81.2587C95.3596 79.9786 94.899 78.921 94.94 78.9016C94.981 78.8823 95.5047 79.9044 96.1135 81.1845C96.7191 82.4646 97.1797 83.5222 97.1387 83.5415Z" fill="white"/>
<path d="M95.1652 91.1616C95.1211 91.1519 95.2441 90.3297 95.4397 89.3269C95.6352 88.3209 95.8308 87.5148 95.875 87.5245C95.9191 87.5342 95.7961 88.3564 95.6005 89.3592C95.405 90.362 95.2094 91.1713 95.1652 91.1616Z" fill="white"/>
<path d="M100.61 97.1788C100.566 97.195 100.15 96.0858 99.6735 94.7025C99.2004 93.3192 98.8502 92.1843 98.8944 92.1681C98.9385 92.152 99.3549 93.2612 99.8312 94.6445C100.304 96.0277 100.655 97.1627 100.61 97.1788Z" fill="white"/>
<path d="M99.8475 100.692C99.838 100.734 99.0841 100.573 98.2545 100.108C97.4217 99.6505 96.876 99.0927 96.9075 99.0637C96.9391 99.025 97.5195 99.5151 98.3334 99.9633C99.144 100.415 99.8632 100.644 99.8475 100.692Z" fill="white"/>
<path d="M106.838 108.714C106.797 108.733 106.545 108.243 106.274 107.621C106.002 106.998 105.816 106.479 105.857 106.46C105.898 106.44 106.151 106.931 106.422 107.553C106.693 108.175 106.879 108.694 106.838 108.714Z" fill="white"/>
<path d="M65.5893 119.895C65.5452 119.901 65.4347 119.259 65.3433 118.466C65.2518 117.673 65.2171 117.025 65.2613 117.018C65.3054 117.012 65.4158 117.654 65.5073 118.447C65.5988 119.24 65.6335 119.888 65.5893 119.895Z" fill="white"/>
<path d="M87.0189 119.342C86.9748 119.332 87.0662 118.706 87.224 117.946C87.3817 117.185 87.5457 116.575 87.5899 116.585C87.634 116.595 87.5426 117.22 87.3848 117.981C87.2271 118.742 87.0631 119.351 87.0189 119.342Z" fill="white"/>
<path d="M91.125 55.4014L93.8946 50.41C92.6675 48.3754 91.9609 45.9829 91.9609 43.4195C91.9609 36.0454 97.8092 30.0674 105.023 30.0674C112.238 30.0674 118.086 36.0454 118.086 43.4195C118.086 50.7937 112.238 56.7717 105.023 56.7717C102.011 56.7717 99.2382 55.727 97.0301 53.9762V53.9826L91.125 55.4046V55.4014Z" fill="white"/>
<path d="M91.1282 55.402C91.4089 55.3376 93.2795 54.899 97.0458 54.0188L97.1058 54.0059L97.0679 53.9543V53.9479L97.008 54.0059C97.7524 54.596 98.6451 55.1763 99.6956 55.6632C100.746 56.1404 101.951 56.5274 103.279 56.7079C103.941 56.795 104.635 56.8498 105.348 56.8143C105.705 56.795 106.067 56.7853 106.433 56.7531C106.796 56.6982 107.165 56.6402 107.537 56.5822C109.017 56.2823 110.528 55.7084 111.941 54.8152C113.351 53.9221 114.657 52.7129 115.704 51.2265C116.748 49.74 117.54 47.9795 117.912 46.0675C118.278 44.1554 118.25 42.1079 117.758 40.1249C117.263 38.1484 116.338 36.2202 114.957 34.6338L114.424 34.0341C114.247 33.8309 114.039 33.6665 113.849 33.4795C113.651 33.3054 113.471 33.1054 113.256 32.9507L112.629 32.4702C112.427 32.3026 112.203 32.1672 111.979 32.0317C111.758 31.8931 111.537 31.7577 111.316 31.619C111.083 31.5029 110.853 31.3901 110.622 31.274C110.389 31.1644 110.165 31.0354 109.922 30.9548C108.023 30.1842 106.001 29.8907 104.064 30.0358C102.128 30.1777 100.276 30.7452 98.6893 31.6609C97.0963 32.567 95.7525 33.7793 94.7147 35.1304C93.6738 36.4846 92.9419 37.9743 92.4877 39.4607C92.0366 40.9536 91.9136 42.4336 91.9199 43.8039C91.9578 45.1775 92.2038 46.4447 92.5603 47.5539C92.9167 48.6663 93.3867 49.624 93.8693 50.4268V50.3881C92.1218 53.5899 91.2669 55.1538 91.1313 55.3988C91.2701 55.1538 92.1439 53.6028 93.9356 50.4268L93.9482 50.4075L93.9356 50.3881C93.4593 49.5853 92.9987 48.6308 92.6486 47.5249C92.3016 46.4189 92.0619 45.1646 92.0303 43.8007C92.0303 42.44 92.1565 40.9762 92.6076 39.4994C93.0618 38.0291 93.7905 36.5555 94.822 35.2174C95.8503 33.8825 97.1815 32.6863 98.7587 31.7931C100.33 30.8903 102.162 30.3325 104.074 30.1938C105.985 30.0552 107.985 30.3454 109.859 31.1063C110.099 31.1837 110.32 31.3127 110.55 31.4223C110.777 31.5352 111.007 31.648 111.234 31.7641C111.452 31.8995 111.67 32.035 111.887 32.1704C112.108 32.3058 112.329 32.438 112.528 32.6057L113.146 33.0797C113.357 33.2312 113.534 33.4279 113.73 33.602C113.916 33.7858 114.124 33.9502 114.297 34.1501L114.824 34.7434C116.19 36.3105 117.102 38.2161 117.591 40.1668C118.076 42.124 118.108 44.149 117.748 46.0384C117.382 47.9279 116.603 49.6723 115.572 51.1394C114.54 52.613 113.25 53.8124 111.856 54.6959C110.462 55.5858 108.966 56.1566 107.503 56.4564C107.134 56.5145 106.768 56.5725 106.411 56.6273C106.049 56.6596 105.692 56.6692 105.339 56.6918C104.632 56.7305 103.945 56.6757 103.288 56.5918C101.97 56.4177 100.774 56.0373 99.7303 55.5697C98.6861 55.0925 97.7966 54.5218 97.0522 53.9414L96.8093 53.7512L96.9954 53.9994V54.0059L97.0238 53.9414C93.27 54.8732 91.4026 55.3343 91.125 55.4053L91.1282 55.402Z" fill="url(#paint3_linear_1_569)"/>
<path d="M108.555 42.8611C108.555 43.5801 109.126 44.1669 109.832 44.1669C110.539 44.1669 111.11 43.5833 111.11 42.8611C111.11 42.1388 110.539 41.5552 109.832 41.5552C109.126 41.5552 108.555 42.1388 108.555 42.8611Z" fill="url(#paint4_linear_1_569)"/>
<path d="M103.445 42.8611C103.445 43.5801 104.016 44.1669 104.723 44.1669C105.429 44.1669 106 43.5833 106 42.8611C106 42.1388 105.429 41.5552 104.723 41.5552C104.016 41.5552 103.445 42.1388 103.445 42.8611Z" fill="url(#paint5_linear_1_569)"/>
<path d="M98.351 42.2075C97.9977 42.833 98.209 43.6294 98.8178 43.9906C99.4298 44.3517 100.209 44.1357 100.562 43.5134C100.916 42.8878 100.704 42.0914 100.095 41.7303C99.4834 41.3691 98.7043 41.5852 98.351 42.2075Z" fill="url(#paint6_linear_1_569)"/>
<defs>
<linearGradient id="paint0_linear_1_569" x1="98.8232" y1="74.6328" x2="98.8232" y2="118.096" gradientUnits="userSpaceOnUse">
<stop stop-color="#FFB171"/>
<stop offset="1" stop-color="#FF943D"/>
</linearGradient>
<linearGradient id="paint1_linear_1_569" x1="69.6836" y1="70.0654" x2="69.6836" y2="119.956" gradientUnits="userSpaceOnUse">
<stop stop-color="#FFB171"/>
<stop offset="1" stop-color="#FF943D"/>
</linearGradient>
<linearGradient id="paint2_linear_1_569" x1="41.2066" y1="78.9102" x2="41.2066" y2="119.815" gradientUnits="userSpaceOnUse">
<stop stop-color="#FFB171"/>
<stop offset="1" stop-color="#FF943D"/>
</linearGradient>
<linearGradient id="paint3_linear_1_569" x1="104.643" y1="30" x2="104.643" y2="56.8253" gradientUnits="userSpaceOnUse">
<stop stop-color="#FFB171"/>
<stop offset="1" stop-color="#FF943D"/>
</linearGradient>
<linearGradient id="paint4_linear_1_569" x1="109.832" y1="41.5552" x2="109.832" y2="44.1669" gradientUnits="userSpaceOnUse">
<stop stop-color="#FFB171"/>
<stop offset="1" stop-color="#FF943D"/>
</linearGradient>
<linearGradient id="paint5_linear_1_569" x1="104.723" y1="41.5552" x2="104.723" y2="44.1669" gradientUnits="userSpaceOnUse">
<stop stop-color="#FFB171"/>
<stop offset="1" stop-color="#FF943D"/>
</linearGradient>
<linearGradient id="paint6_linear_1_569" x1="99.4566" y1="41.5552" x2="99.4566" y2="44.1657" gradientUnits="userSpaceOnUse">
<stop stop-color="#FFB171"/>
<stop offset="1" stop-color="#FF943D"/>
</linearGradient>
</defs>
</svg>
