<svg width="144" height="144" viewBox="0 0 144 144" fill="none" xmlns="http://www.w3.org/2000/svg">
<rect x="0.182617" y="0.710938" width="143.099" height="143.099" rx="71.5497" fill="#FFF7ED"/>
<path d="M94.8392 26.8145H31.9365V112.924H94.8392V26.8145Z" fill="white"/>
<path d="M94.8386 113.088H31.9351C31.8357 113.088 31.7549 113.014 31.7549 112.923V26.8131C31.7549 26.7222 31.8357 26.6484 31.9351 26.6484H94.8378C94.9372 26.6484 95.018 26.7222 95.018 26.8131V112.923C95.018 113.014 94.9372 113.087 94.8378 113.087L94.8386 113.088ZM32.1153 112.759H94.6576V26.9777H32.1153V112.758V112.759Z" fill="black"/>
<path d="M48.8682 43.3583C48.7789 44.4844 48.3238 45.3707 47.5036 46.0179C46.6827 46.6651 45.6007 46.988 44.2587 46.988C42.79 46.988 41.6351 46.5367 40.7931 45.6333C39.9512 44.73 39.5303 43.4902 39.5303 41.9135V41.2734C39.5303 40.2672 39.7244 39.3808 40.1128 38.6137C40.5011 37.8473 41.0557 37.2591 41.7764 36.8489C42.4972 36.4395 43.3352 36.2344 44.2897 36.2344C45.6116 36.2344 46.6764 36.558 47.4842 37.2044C48.2919 37.8516 48.7587 38.7592 48.8845 39.9287H46.5242C46.466 39.2531 46.2609 38.7635 45.9068 38.459C45.5526 38.1546 45.0144 38.0027 44.2905 38.0027C43.5037 38.0027 42.915 38.2603 42.5244 38.7755C42.1337 39.2907 41.9333 40.0897 41.9224 41.1726V41.9631C41.9224 43.0943 42.1096 43.921 42.4847 44.4433C42.8599 44.9656 43.4509 45.2267 44.2587 45.2267C44.988 45.2267 45.5316 45.0748 45.8912 44.7704C46.25 44.466 46.4566 43.9955 46.5087 43.3576H48.869L48.8682 43.3583Z" fill="#F57A3E"/>
<path d="M52.7773 45.1122H57.7884V46.8444H50.417V36.3789H52.7773V45.1122Z" fill="#F57A3E"/>
<path d="M65.7595 44.6879H61.6214L60.8346 46.8444H58.3252L62.5891 36.3789H64.7762L69.0642 46.8444H66.5548L65.7603 44.6879H65.7595ZM62.2583 42.9415H65.1219L63.6819 39.0244L62.2575 42.9415H62.2583Z" fill="#F57A3E"/>
<path d="M72.6435 46.8444H70.2832V36.3789H72.6435V46.8444Z" fill="#F57A3E"/>
<path d="M77.9133 36.3789L80.8561 43.9697L83.7826 36.3789H86.8823V46.8444H84.5142V43.9832L84.7503 39.045L81.6584 46.8437H80.0375L76.9533 39.052L77.1894 43.9832V46.8444H74.8291V36.3789H77.9133Z" fill="#F57A3E"/>
<path d="M80.6603 71.5163H42.7113C39.544 71.5163 36.9756 69.1703 36.9756 66.2757C36.9756 63.3819 39.5433 61.0352 42.7113 61.0352H80.6603C83.8284 61.0352 86.396 63.3812 86.396 66.2757C86.396 69.1695 83.8284 71.5163 80.6603 71.5163Z" fill="#D8E5F3"/>
<path d="M79.4376 51.342H60.0666C59.954 51.342 59.8623 51.2583 59.8623 51.1554C59.8623 51.0525 59.954 50.9688 60.0666 50.9688H79.4376C79.5502 50.9688 79.6418 51.0525 79.6418 51.1554C79.6418 51.2583 79.5502 51.342 79.4376 51.342Z" fill="black"/>
<path d="M56.4728 51.342H47.3966C47.284 51.342 47.1924 51.2583 47.1924 51.1554C47.1924 51.0525 47.284 50.9688 47.3966 50.9688H56.4728C56.5855 50.9688 56.6771 51.0525 56.6771 51.1554C56.6771 51.2583 56.5855 51.342 56.4728 51.342Z" fill="black"/>
<path d="M79.4361 53.719H74.8273C74.7147 53.719 74.623 53.6352 74.623 53.5323C74.623 53.4294 74.7147 53.3457 74.8273 53.3457H79.4361C79.5487 53.3457 79.6404 53.4294 79.6404 53.5323C79.6404 53.6352 79.5487 53.719 79.4361 53.719Z" fill="black"/>
<path d="M68.7505 53.719H47.3966C47.284 53.719 47.1924 53.6352 47.1924 53.5323C47.1924 53.4294 47.284 53.3457 47.3966 53.3457H68.7505C68.8631 53.3457 68.9548 53.4294 68.9548 53.5323C68.9548 53.6352 68.8631 53.719 68.7505 53.719Z" fill="black"/>
<path d="M55.1121 75.3672H36.9131V79.4809H55.1121V75.3672Z" fill="#D8E5F3"/>
<path d="M51.1107 82.8008H36.9131V86.9145H51.1107V82.8008Z" fill="#D8E5F3"/>
<path d="M48.3302 97.666H36.9131V101.78H48.3302V97.666Z" fill="#D8E5F3"/>
<path d="M53.3444 90.2285H36.9131V94.3422H53.3444V90.2285Z" fill="#D8E5F3"/>
<path d="M89.8608 79.6457H58.1694C58.07 79.6457 57.9893 79.5719 57.9893 79.481C57.9893 79.3902 58.07 79.3164 58.1694 79.3164H89.8608C89.9602 79.3164 90.041 79.3902 90.041 79.481C90.041 79.5719 89.9602 79.6457 89.8608 79.6457Z" fill="black"/>
<path d="M89.8608 87.0754H58.1694C58.07 87.0754 57.9893 87.0016 57.9893 86.9107C57.9893 86.8199 58.07 86.7461 58.1694 86.7461H89.8608C89.9602 86.7461 90.041 86.8199 90.041 86.9107C90.041 87.0016 89.9602 87.0754 89.8608 87.0754Z" fill="black"/>
<path d="M89.8608 94.5109H58.1694C58.07 94.5109 57.9893 94.4371 57.9893 94.3463C57.9893 94.2554 58.07 94.1816 58.1694 94.1816H89.8608C89.9602 94.1816 90.041 94.2554 90.041 94.3463C90.041 94.4371 89.9602 94.5109 89.8608 94.5109Z" fill="black"/>
<path d="M89.8608 101.941H58.1694C58.07 101.941 57.9893 101.867 57.9893 101.776C57.9893 101.685 58.07 101.611 58.1694 101.611H89.8608C89.9602 101.611 90.041 101.685 90.041 101.776C90.041 101.867 89.9602 101.941 89.8608 101.941Z" fill="black"/>
<path d="M65.293 90.8474L53.4521 83.1191L37.8543 103.069L49.6952 110.797L65.293 90.8474Z" fill="#8ABAE7"/>
<path d="M37.7709 103.124C37.7445 103.092 37.7422 103.046 37.7693 103.012L53.368 83.0626C53.4007 83.0208 53.4651 83.0108 53.511 83.0406L65.3521 90.7691C65.3746 90.7833 65.3894 90.8053 65.3933 90.8301C65.3979 90.855 65.3917 90.8798 65.3754 90.9004L49.7767 110.851C49.7612 110.871 49.7371 110.885 49.7099 110.888C49.6827 110.893 49.6556 110.886 49.633 110.872L37.7926 103.143C37.7841 103.138 37.7763 103.131 37.7709 103.124V103.124ZM53.4744 83.2478L37.9954 103.045L49.6695 110.665L65.1486 90.8678L53.4744 83.2478Z" fill="black"/>
<path d="M47.216 107.457L42.1156 104.128C42.9521 103.058 42.681 101.571 41.5098 100.806L52.2931 87.0144C53.4643 87.7787 55.0922 87.531 55.9295 86.4609L61.0299 89.7905C60.1934 90.8606 60.4645 92.348 61.6357 93.1129L50.8524 106.904C49.6811 106.14 48.0532 106.388 47.216 107.458V107.457Z" fill="#D8E5F3"/>
<path d="M54.7231 99.01C55.9658 97.4205 55.5635 95.2114 53.8237 94.0753C52.084 92.9399 49.6654 93.3075 48.4228 94.897C47.1801 96.4866 47.5824 98.6964 49.3221 99.8318C51.0619 100.967 53.4797 100.6 54.7231 99.01Z" fill="#8ABAE7"/>
<path d="M49.3114 98.5282C49.0342 98.1961 48.8485 97.8058 48.7709 97.3822C48.6458 96.6981 48.8206 96.0112 49.2617 95.4471C49.7029 94.8829 50.3576 94.5096 51.1063 94.3954C51.8543 94.2811 52.6069 94.4408 53.2243 94.8439C53.8418 95.2469 54.2503 95.8452 54.3753 96.5292C54.4996 97.2126 54.3256 97.9002 53.8845 98.4644C53.4433 99.0285 52.7886 99.4018 52.0399 99.516C51.2912 99.6303 50.5394 99.4706 49.9219 99.0675C49.6866 98.9143 49.4823 98.7326 49.3114 98.5282ZM53.6709 95.4967C53.5125 95.3073 53.323 95.1391 53.1047 94.9964C52.5323 94.6225 51.8341 94.4749 51.1397 94.5806C50.4454 94.6863 49.838 95.0326 49.4287 95.5556C49.0194 96.0786 48.8579 96.7166 48.9736 97.351C49.0893 97.9854 49.4683 98.5403 50.0407 98.9143C50.6131 99.2882 51.3114 99.4358 52.0057 99.3301C52.7001 99.2244 53.3074 98.8781 53.7167 98.3544C54.126 97.8314 54.2876 97.1934 54.1719 96.559C54.1004 96.1659 53.9272 95.804 53.6701 95.496L53.6709 95.4967Z" fill="black"/>
<path d="M54.9838 92.5454C54.9574 92.5134 54.9551 92.468 54.9822 92.434L56.8835 90.0021C56.9169 89.9602 56.9806 89.9503 57.0264 89.9801C57.073 90.0106 57.0831 90.0688 57.0505 90.1107L55.1492 92.5425C55.1166 92.5844 55.0521 92.5943 55.0063 92.5645C54.9978 92.5589 54.99 92.5525 54.9846 92.5454H54.9838Z" fill="black"/>
<path d="M46.0063 104.026C45.9798 103.994 45.9775 103.948 46.0047 103.914L47.906 101.483C47.9386 101.441 48.0031 101.431 48.0489 101.461C48.0947 101.49 48.1056 101.549 48.073 101.591L46.1717 104.023C46.1391 104.065 46.0746 104.075 46.0288 104.045C46.0202 104.039 46.0125 104.033 46.007 104.026H46.0063Z" fill="black"/>
<path d="M70.1307 94.19L59.6807 84.9375L41.006 102.545L51.456 111.797L70.1307 94.19Z" fill="#8ABAE7"/>
<path d="M40.9331 102.601C40.9028 102.565 40.9052 102.513 40.9409 102.479L59.6137 84.8702C59.6323 84.8524 59.6587 84.8418 59.6859 84.8418C59.7131 84.8418 59.7395 84.851 59.7589 84.8681L70.2098 94.1201C70.251 94.1563 70.2517 94.2152 70.2121 94.2528L51.5394 111.861C51.5207 111.878 51.4943 111.889 51.4671 111.889C51.44 111.889 51.4136 111.88 51.3941 111.863L40.9432 102.611C40.9432 102.611 40.9362 102.604 40.9331 102.6V102.601ZM59.6898 85.0682L41.1599 102.542L51.4633 111.663L69.9931 94.1896L59.6898 85.0682Z" fill="black"/>
<path d="M49.5598 108.155L45.0583 104.169C46.0602 103.225 46.0338 101.717 45 100.802L57.9083 88.6294C58.9421 89.5448 60.5925 89.5207 61.5944 88.5762L66.096 92.5614C65.0941 93.5059 65.1205 95.0139 66.1542 95.9286L53.2452 108.101C52.2114 107.186 50.561 107.21 49.5591 108.155H49.5598Z" fill="#D8E5F3"/>
<path d="M58.3573 100.827C59.8454 99.4243 59.8066 97.1848 58.2711 95.8251C56.7356 94.4655 54.2844 94.501 52.7963 95.9039C51.3082 97.3068 51.347 99.5464 52.8825 100.906C54.418 102.266 56.8692 102.23 58.3573 100.827Z" fill="#8ABAE7"/>
<path d="M53.3155 99.9366C52.9497 99.4987 52.7477 98.9679 52.7376 98.4073C52.726 97.714 53.0103 97.0583 53.5376 96.5609C54.0658 96.0627 54.7741 95.7832 55.5329 95.7718C56.2917 95.7612 57.0094 96.0202 57.5538 96.5027C58.0982 96.9853 58.405 97.6324 58.4175 98.3257C58.4291 99.019 58.1456 99.6747 57.6175 100.173C56.5278 101.2 54.7259 101.227 53.6013 100.231C53.4972 100.139 53.4017 100.041 53.3155 99.9373V99.9366ZM57.6757 96.9093C57.5957 96.8135 57.5072 96.7227 57.4109 96.6368C56.9053 96.1891 56.2397 95.9485 55.5352 95.9584C54.8316 95.9684 54.1745 96.2288 53.6844 96.6908C52.6732 97.6438 52.6996 99.1709 53.7434 100.095C54.7873 101.019 56.4587 100.995 57.4699 100.041C57.96 99.5789 58.2233 98.9708 58.2124 98.3279C58.2031 97.8077 58.0159 97.3152 57.6765 96.9093H57.6757Z" fill="black"/>
<path d="M59.6763 94.48C59.646 94.4438 59.6483 94.392 59.6841 94.358L61.9605 92.2121C62.0001 92.1752 62.0646 92.1738 62.1057 92.21C62.1461 92.2461 62.1477 92.3051 62.1081 92.3427L59.8324 94.4886C59.7928 94.5255 59.7276 94.5269 59.6872 94.4907C59.6833 94.4871 59.6802 94.4836 59.6771 94.48H59.6763Z" fill="black"/>
<path d="M48.9292 104.617C48.8989 104.581 48.9013 104.529 48.937 104.495L51.2134 102.349C51.253 102.312 51.3175 102.31 51.3587 102.347C51.3998 102.383 51.4006 102.442 51.361 102.479L49.0846 104.625C49.0449 104.663 48.9805 104.664 48.9393 104.627C48.9354 104.624 48.9323 104.62 48.9292 104.617Z" fill="black"/>
<path d="M52.0151 81.5254H36.4902V114.435H52.0151V81.5254Z" fill="#F57A3E"/>
<path d="M39.929 81.5254H37.8545V114.435H39.929V81.5254Z" fill="white"/>
<path d="M52.0159 81.6548H36.491C36.4125 81.6548 36.3496 81.5973 36.3496 81.5256C36.3496 81.454 36.4133 81.3965 36.491 81.3965H52.0159C52.0943 81.3965 52.1572 81.4547 52.1572 81.5256C52.1572 81.5966 52.0935 81.6548 52.0159 81.6548Z" fill="black"/>
<path d="M52.0159 84.6489H36.491C36.4125 84.6489 36.3496 84.5914 36.3496 84.5198C36.3496 84.4481 36.4133 84.3906 36.491 84.3906H52.0159C52.0943 84.3906 52.1572 84.4488 52.1572 84.5198C52.1572 84.5907 52.0935 84.6489 52.0159 84.6489Z" fill="black"/>
<path d="M52.0159 87.6411H36.491C36.4125 87.6411 36.3496 87.5829 36.3496 87.512C36.3496 87.441 36.4133 87.3828 36.491 87.3828H52.0159C52.0943 87.3828 52.1572 87.4403 52.1572 87.512C52.1572 87.5836 52.0935 87.6411 52.0159 87.6411Z" fill="black"/>
<path d="M52.0159 90.6333H36.491C36.4125 90.6333 36.3496 90.5751 36.3496 90.5041C36.3496 90.4332 36.4133 90.375 36.491 90.375H52.0159C52.0943 90.375 52.1572 90.4332 52.1572 90.5041C52.1572 90.5751 52.0935 90.6333 52.0159 90.6333Z" fill="black"/>
<path d="M52.0159 93.6216H36.491C36.4125 93.6216 36.3496 93.5634 36.3496 93.4924C36.3496 93.4215 36.4133 93.3633 36.491 93.3633H52.0159C52.0943 93.3633 52.1572 93.4215 52.1572 93.4924C52.1572 93.5634 52.0935 93.6216 52.0159 93.6216Z" fill="black"/>
<path d="M52.0159 96.6157H36.491C36.4125 96.6157 36.3496 96.5582 36.3496 96.4866C36.3496 96.4149 36.4133 96.3574 36.491 96.3574H52.0159C52.0943 96.3574 52.1572 96.4156 52.1572 96.4866C52.1572 96.5575 52.0935 96.6157 52.0159 96.6157Z" fill="black"/>
<path d="M52.0159 99.606H36.491C36.4125 99.606 36.3496 99.5478 36.3496 99.4768C36.3496 99.4059 36.4133 99.3477 36.491 99.3477H52.0159C52.0943 99.3477 52.1572 99.4059 52.1572 99.4768C52.1572 99.5478 52.0935 99.606 52.0159 99.606Z" fill="black"/>
<path d="M52.0159 102.6H36.491C36.4125 102.6 36.3496 102.542 36.3496 102.471C36.3496 102.4 36.4133 102.342 36.491 102.342H52.0159C52.0943 102.342 52.1572 102.4 52.1572 102.471C52.1572 102.542 52.0935 102.6 52.0159 102.6Z" fill="black"/>
<path d="M52.0159 105.592H36.491C36.4125 105.592 36.3496 105.534 36.3496 105.463C36.3496 105.392 36.4133 105.334 36.491 105.334H52.0159C52.0943 105.334 52.1572 105.392 52.1572 105.463C52.1572 105.534 52.0935 105.592 52.0159 105.592Z" fill="black"/>
<path d="M52.0159 108.584H36.491C36.4125 108.584 36.3496 108.526 36.3496 108.455C36.3496 108.384 36.4133 108.326 36.491 108.326H52.0159C52.0943 108.326 52.1572 108.384 52.1572 108.455C52.1572 108.526 52.0935 108.584 52.0159 108.584Z" fill="black"/>
<path d="M52.0159 111.577H36.491C36.4125 111.577 36.3496 111.518 36.3496 111.448C36.3496 111.377 36.4133 111.318 36.491 111.318H52.0159C52.0943 111.318 52.1572 111.377 52.1572 111.448C52.1572 111.518 52.0935 111.577 52.0159 111.577Z" fill="black"/>
<path d="M52.0159 114.565H36.491C36.4125 114.565 36.3496 114.507 36.3496 114.436C36.3496 114.365 36.4133 114.307 36.491 114.307H52.0159C52.0943 114.307 52.1572 114.365 52.1572 114.436C52.1572 114.507 52.0935 114.565 52.0159 114.565Z" fill="black"/>
<path d="M42.655 93.0888C42.5774 93.0888 42.5137 93.0306 42.5137 92.9596V91.1409C42.5137 91.0692 42.5774 91.0117 42.655 91.0117C42.7327 91.0117 42.7964 91.0699 42.7964 91.1409V92.9596C42.7964 93.0313 42.7327 93.0888 42.655 93.0888Z" fill="black"/>
<path d="M43.6316 93.0888C43.5531 93.0888 43.4902 93.0306 43.4902 92.9596V91.1409C43.4902 91.0692 43.5539 91.0117 43.6316 91.0117C43.7093 91.0117 43.7729 91.0699 43.7729 91.1409V92.9596C43.7729 93.0313 43.7093 93.0888 43.6316 93.0888Z" fill="black"/>
<path d="M44.6101 93.0888C44.5324 93.0888 44.4688 93.0306 44.4688 92.9596V91.1409C44.4688 91.0692 44.5324 91.0117 44.6101 91.0117C44.6878 91.0117 44.7515 91.0699 44.7515 91.1409V92.9596C44.7515 93.0313 44.6878 93.0888 44.6101 93.0888Z" fill="black"/>
<path d="M41.1501 83.4743C41.0725 83.4743 41.0088 83.4168 41.0088 83.3451V81.5256C41.0088 81.454 41.0725 81.3965 41.1501 81.3965C41.2278 81.3965 41.2915 81.4547 41.2915 81.5256V83.3451C41.2915 83.4168 41.2278 83.4743 41.1501 83.4743Z" fill="black"/>
<path d="M42.1287 83.4743C42.051 83.4743 41.9873 83.4168 41.9873 83.3451V81.5256C41.9873 81.454 42.051 81.3965 42.1287 81.3965C42.2063 81.3965 42.27 81.4547 42.27 81.5256V83.3451C42.27 83.4168 42.2063 83.4743 42.1287 83.4743Z" fill="black"/>
<path d="M43.1052 83.4743C43.0268 83.4743 42.9639 83.4168 42.9639 83.3451V81.5256C42.9639 81.454 43.0276 81.3965 43.1052 81.3965C43.1829 81.3965 43.2466 81.4547 43.2466 81.5256V83.3451C43.2466 83.4168 43.1829 83.4743 43.1052 83.4743Z" fill="black"/>
<path d="M37.3748 90.0719C37.2971 90.0719 37.2334 90.0137 37.2334 89.9428V88.1233C37.2334 88.0516 37.2971 87.9941 37.3748 87.9941C37.4524 87.9941 37.5161 88.0523 37.5161 88.1233V89.9428C37.5161 90.0137 37.4524 90.0719 37.3748 90.0719Z" fill="black"/>
<path d="M38.3533 90.0719C38.2748 90.0719 38.2119 90.0137 38.2119 89.9428V88.1233C38.2119 88.0516 38.2756 87.9941 38.3533 87.9941C38.4309 87.9941 38.4946 88.0523 38.4946 88.1233V89.9428C38.4946 90.0137 38.4309 90.0719 38.3533 90.0719Z" fill="black"/>
<path d="M39.3298 90.0719C39.2514 90.0719 39.1885 90.0137 39.1885 89.9428V88.1233C39.1885 88.0516 39.2522 87.9941 39.3298 87.9941C39.4075 87.9941 39.4712 88.0523 39.4712 88.1233V89.9428C39.4712 90.0137 39.4075 90.0719 39.3298 90.0719Z" fill="black"/>
<path d="M38.9509 99.0192C38.8725 99.0192 38.8096 98.961 38.8096 98.89V97.0706C38.8096 96.9996 38.8733 96.9414 38.9509 96.9414C39.0286 96.9414 39.0923 96.9996 39.0923 97.0706V98.89C39.0923 98.9617 39.0286 99.0192 38.9509 99.0192Z" fill="black"/>
<path d="M39.9294 99.0192C39.851 99.0192 39.7881 98.961 39.7881 98.89V97.0706C39.7881 96.9996 39.8518 96.9414 39.9294 96.9414C40.0071 96.9414 40.0708 96.9996 40.0708 97.0706V98.89C40.0708 98.9617 40.0079 99.0192 39.9294 99.0192Z" fill="black"/>
<path d="M40.906 99.0192C40.8283 99.0192 40.7646 98.961 40.7646 98.89V97.0706C40.7646 96.9996 40.8283 96.9414 40.906 96.9414C40.9837 96.9414 41.0474 96.9996 41.0474 97.0706V98.89C41.0474 98.9617 40.9837 99.0192 40.906 99.0192Z" fill="black"/>
<path d="M78.5636 93.9294C78.5636 93.9294 77.2388 92.6822 76.73 92.351C76.2211 92.0197 75.0778 91.5641 74.6512 91.5237C74.2246 91.4817 72.228 92.0617 72.228 92.0617C72.228 92.0617 69.282 91.7989 68.7856 92.1441C68.2907 92.4894 68.331 92.8486 68.5374 93.1099C68.7437 93.3727 69.5426 93.2887 70.4238 93.3027C71.3049 93.3167 71.5392 93.3991 71.5392 93.3991L70.2593 94.766L73.5776 95.6913L75.6021 95.6151L76.3313 96.5357L78.5652 93.9294H78.5636Z" fill="#FFBF9D"/>
<path d="M68.4629 90.8441L68.5436 93.7863L68.6863 94.1518L70.1337 95.9215L73.6676 95.6882L70.8535 94.5887L69.8529 93.8267L69.4666 92.5687C69.4666 92.5687 69.5861 90.6295 68.466 90.8425L68.4629 90.8441Z" fill="#FFBF9D"/>
<path d="M68.7082 94.2177H67.8472C67.8472 94.2177 66.724 92.3671 65.697 92.9954L65.9328 93.3608C65.9328 93.3608 65.4705 93.1509 65.1758 93.5412L68.0085 96.0325H68.1388L71.1562 95.8381L68.7066 94.2192L68.7082 94.2177Z" fill="#FFBF9D"/>
<path d="M69.2226 94.7803C69.2226 94.7896 69.1311 94.7849 68.9791 94.7911C68.8286 94.8005 68.6052 94.8098 68.3833 94.9109L68.3539 94.9233L68.3352 94.8969C68.2484 94.774 68.1398 94.6403 68.0296 94.5019C67.8 94.2189 67.5937 93.9623 67.4184 93.7461C67.2633 93.5517 67.1671 93.4304 67.1764 93.4242C67.1842 93.4164 67.2959 93.5237 67.4618 93.7088C67.6294 93.8939 67.8528 94.1551 68.0917 94.4506C68.2034 94.5905 68.3089 94.7227 68.3973 94.8549L68.3492 94.8409C68.5974 94.7352 68.8239 94.7398 68.9775 94.7429C69.1326 94.7507 69.2226 94.7709 69.2211 94.7787L69.2226 94.7803Z" fill="#FF9A6C"/>
<path d="M75.3459 93.0697C75.3537 93.0961 74.8696 93.1941 74.3499 93.4926C73.8287 93.7881 73.4983 94.1551 73.4781 94.1349C73.4703 94.1287 73.5448 94.0291 73.6875 93.8892C73.8302 93.7492 74.0443 93.5735 74.3096 93.4227C74.5749 93.2718 74.8355 93.177 75.0279 93.1256C75.2202 93.0743 75.3428 93.0619 75.3443 93.0712L75.3459 93.0697Z" fill="#FF9A6C"/>
<path d="M72.5187 92.3077C72.5342 92.3248 72.3388 92.5348 72.1138 92.8069C71.8873 93.0775 71.7136 93.3076 71.695 93.2936C71.6763 93.2812 71.8222 93.0293 72.0518 92.754C72.2814 92.4788 72.5048 92.2906 72.5187 92.3077Z" fill="#FF9A6C"/>
<path d="M69.5689 95.1923C69.5689 95.1923 69.5441 95.1705 69.5006 95.1254C69.4541 95.0725 69.3936 95.0057 69.3191 94.9217C69.2385 94.8299 69.1438 94.7211 69.0352 94.5967C68.9794 94.5329 68.9204 94.4645 68.8584 94.393C68.7963 94.3214 68.7265 94.2452 68.6676 94.1535C68.5497 93.9715 68.4674 93.7367 68.4659 93.4801C68.4612 93.2298 68.4566 92.9623 68.4504 92.6808C68.4411 92.1163 68.4302 91.4974 68.4209 90.8442V90.8085L68.4535 90.8038C68.483 90.7991 68.5155 90.796 68.5466 90.7914C68.7544 90.768 68.9778 90.8411 69.1174 90.9951C69.2586 91.1444 69.3377 91.331 69.3905 91.5114C69.4929 91.8784 69.5099 92.2376 69.496 92.5719V92.5595C69.6371 93.0369 69.7659 93.4615 69.8729 93.8191L69.8636 93.8051C70.1677 94.0431 70.4128 94.2359 70.5912 94.3743C70.6703 94.4381 70.7339 94.4894 70.7836 94.5298C70.827 94.5656 70.8487 94.5858 70.8472 94.5873C70.8456 94.5889 70.8208 94.5734 70.7743 94.5407C70.7215 94.5034 70.6548 94.4552 70.5726 94.3961C70.3911 94.2608 70.1398 94.0757 69.8295 93.8456L69.8233 93.8409L69.8202 93.8316C69.7085 93.4755 69.5751 93.0525 69.4246 92.5766V92.5704V92.5626C69.4339 92.2392 69.4153 91.8799 69.3145 91.5285C69.2633 91.3543 69.1857 91.1801 69.0585 91.0448C68.9328 90.9096 68.7436 90.8474 68.5528 90.866C68.5233 90.8707 68.4938 90.8738 68.4674 90.8785L68.5 90.838C68.5078 91.4896 68.5155 92.1101 68.5233 92.6746C68.5466 93.2329 68.4597 93.7663 68.7141 94.1193C68.7684 94.2079 68.8351 94.281 68.8972 94.3556C68.9577 94.4287 69.0151 94.4987 69.0694 94.564C69.1748 94.6931 69.2664 94.8035 69.3439 94.8984C69.4138 94.9855 69.4696 95.057 69.5146 95.1114C69.5534 95.1612 69.572 95.1876 69.5704 95.1892L69.5689 95.1923Z" fill="#FF9A6C"/>
<path d="M68.1386 96.0314C68.1386 96.0314 68.0781 96.0392 67.9882 95.9878C67.8982 95.9396 67.7834 95.8479 67.6562 95.7219C67.4002 95.47 67.0884 95.0859 66.7688 94.6458C66.4492 94.2057 66.1778 93.7936 65.9869 93.4935C65.8923 93.3426 65.8163 93.2198 65.7667 93.1327C65.717 93.0456 65.6922 92.9974 65.6968 92.9943C65.7015 92.9912 65.7356 93.0347 65.793 93.1156C65.8597 93.212 65.9404 93.3271 66.0335 93.4608C66.2352 93.7532 66.5144 94.1591 66.834 94.5976C67.1535 95.0361 67.4545 95.4233 67.6965 95.6815C67.8175 95.8106 67.923 95.907 68.0037 95.9599C68.0843 96.0158 68.1386 96.0221 68.1386 96.0298V96.0314Z" fill="#FF9A6C"/>
<path d="M73.2943 94.1319L71.7352 94.0262L71.2698 92.7448L71.1845 91.8832C71.1426 91.4618 70.792 91.1306 70.37 91.1368C70.3654 91.1368 70.3607 91.1368 70.3545 91.1368L70.4414 93.2471L70.7609 94.558L72.0284 95.3076H73.5782L73.2958 94.1304L73.2943 94.1319Z" fill="#FFBF9D"/>
<path d="M73.2992 94.13L71.7401 94.0242L71.2747 92.7428L71.1893 91.8813C71.1475 91.4599 70.7969 91.1286 70.3749 91.1349C70.3702 91.1349 70.3656 91.1349 70.3594 91.1349L70.4462 93.2451L70.7658 94.5561L72.0333 95.3056" fill="#FFBF9D"/>
<path d="M72.0316 95.3069C72.0316 95.3069 71.999 95.2945 71.9401 95.2618C71.8749 95.2245 71.7896 95.1778 71.6857 95.1203C71.4576 94.9881 71.1396 94.8062 70.7502 94.5822L70.7393 94.576L70.7362 94.5636C70.6416 94.1872 70.5315 93.744 70.4089 93.2542V93.2511V93.2479C70.381 92.6135 70.35 91.895 70.3174 91.1377V91.0973L70.3562 91.0957C70.3701 91.0957 70.3856 91.0957 70.4012 91.0957C70.7936 91.0988 71.1272 91.4052 71.2047 91.7551C71.2265 91.8437 71.2311 91.9308 71.2389 92.0132C71.2466 92.0972 71.2544 92.1796 71.2637 92.262C71.2792 92.4253 71.2947 92.5855 71.3102 92.7394V92.7301C71.4793 93.2075 71.6329 93.6383 71.7679 94.0131L71.7431 93.9944C72.2162 94.0317 72.6041 94.0628 72.8833 94.0846C73.0105 94.097 73.1129 94.1064 73.1936 94.1141C73.2649 94.1219 73.3006 94.1266 73.3006 94.1297C73.3006 94.1328 73.2634 94.1328 73.192 94.1297C73.1129 94.1266 73.0089 94.1219 72.8817 94.1172C72.6025 94.1017 72.2147 94.0799 71.74 94.0535H71.7213L71.7151 94.0348C71.5771 93.6616 71.4173 93.2324 71.242 92.7565V92.7519L71.2404 92.7472C71.2249 92.5917 71.2078 92.4331 71.1908 92.2698C71.183 92.1874 71.1737 92.105 71.166 92.0225C71.1567 91.9386 71.152 91.8546 71.1318 91.7753C71.0605 91.4565 70.7564 91.1797 70.4043 91.1781C70.3903 91.1781 70.3763 91.1781 70.3624 91.1781L70.4012 91.1361C70.4306 91.895 70.4601 92.6119 70.4849 93.2464V93.2386C70.6013 93.73 70.7068 94.1748 70.7967 94.5511L70.7828 94.534C71.166 94.7673 71.4793 94.957 71.7043 95.0938C71.8067 95.1576 71.8873 95.2089 71.9509 95.2494C72.0068 95.2851 72.0363 95.3053 72.0347 95.3084L72.0316 95.3069Z" fill="#FF9A6C"/>
<path d="M106.687 69.2336C105.351 64.1282 104.118 58.1862 96.6711 58.7212C96.6711 58.7212 92.0822 59.606 89.9026 63.0008C88.6212 64.9975 87.5105 73.6065 87.2886 80.4054C87.2886 80.4054 87.2886 80.4069 87.2886 80.4085C87.2793 80.6853 87.3941 82.6152 87.3864 82.8857L107.098 84.531H110.649C110.649 84.531 110.425 80.9232 109.356 77.4258C108.315 74.0233 107.16 71.0406 106.687 69.2336Z" fill="#263238"/>
<path d="M95.6786 60.6674L96.144 60.2227L101.178 62.2567C101.907 62.2971 102.483 62.8896 102.504 63.6205L102.461 80.0641C102.467 81.1791 102.244 82.1448 101.574 83.0343L100.866 83.9705C99.2544 86.1041 95.9377 85.9283 94.6609 83.577C94.5709 83.4122 94.5104 83.2691 94.4825 83.1525C94.4561 83.0063 94.4158 82.9099 94.4081 82.7855C94.2576 81.4621 94.2498 80.316 94.2498 80.316C94.1598 78.8635 94.1304 78.2679 94.1304 78.2804C94.1304 78.2804 91.0463 77.9258 90.2132 73.9572C89.799 71.9838 89.8766 69.2686 89.993 66.597C90.1543 62.899 92.7124 60.6659 95.677 60.669L95.6786 60.6674Z" fill="#FFBF9D"/>
<path d="M96.9756 69.2324C96.9802 69.5046 97.2114 69.7238 97.4953 69.7254C97.7776 69.7254 98.0041 69.5077 97.9995 69.2371C97.9948 68.9665 97.7621 68.7457 97.4813 68.7441C97.199 68.7441 96.9725 68.9619 96.9771 69.234L96.9756 69.2324Z" fill="#263238"/>
<path d="M91.7178 69.3711C91.7225 69.6433 91.9536 69.8625 92.2375 69.8641C92.5198 69.8641 92.7463 69.6464 92.7417 69.3758C92.737 69.1052 92.5043 68.8844 92.2235 68.8828C91.9412 68.8828 91.7147 69.1005 91.7178 69.3727V69.3711Z" fill="#263238"/>
<path d="M90.523 67.6501C90.5897 67.7138 90.9636 67.4075 91.5143 67.381C92.0635 67.3468 92.4823 67.6112 92.5382 67.5397C92.5661 67.5086 92.4947 67.3904 92.3132 67.2706C92.1333 67.1509 91.8323 67.042 91.4895 67.0607C91.1466 67.0794 90.8643 67.2209 90.7045 67.3593C90.5416 67.4977 90.4904 67.6221 90.523 67.6501Z" fill="#263238"/>
<path d="M95.9854 67.4646C96.0584 67.5206 96.3981 67.1769 96.9442 67.0945C97.4871 67.0043 97.9308 67.2236 97.9789 67.1474C98.0037 67.1132 97.9215 67.0043 97.7276 66.9032C97.5368 66.8037 97.225 66.7259 96.8868 66.7788C96.547 66.8332 96.2818 67.0027 96.1375 67.1567C95.9901 67.3107 95.9513 67.4397 95.987 67.4646H95.9854Z" fill="#263238"/>
<path d="M94.1868 71.724C94.1868 71.6929 93.8424 71.6509 93.2839 71.6073C93.1427 71.5996 93.0078 71.5778 92.9798 71.4829C92.9411 71.3834 92.9923 71.2279 93.0528 71.0599C93.1676 70.7116 93.2886 70.3477 93.4142 69.9652C93.9153 68.4085 94.2706 67.1302 94.2069 67.1116C94.1449 67.0914 93.6873 68.3385 93.1862 69.8952C93.0667 70.2793 92.9504 70.6447 92.8418 70.9946C92.7968 71.1579 92.7146 71.3445 92.7968 71.5514C92.8402 71.6555 92.9473 71.7255 93.0388 71.7457C93.1303 71.7691 93.2094 71.766 93.2793 71.7675C93.8393 71.7691 94.1852 71.7551 94.1852 71.724H94.1868Z" fill="#263238"/>
<path d="M94.1299 78.2747C94.1299 78.2747 96.823 78.3136 99.4013 76.5781C99.4013 76.5781 98.1959 79.4146 94.1842 79.2404L94.1299 78.2747Z" fill="#FF9A6C"/>
<path d="M95.9057 72.8482C95.7505 72.66 95.5039 72.5574 95.2634 72.5434C94.9175 72.5231 94.6739 72.5667 94.4877 72.8404C94.4009 72.9912 94.4086 73.2229 94.449 73.2867C94.4893 73.3504 94.4598 73.352 94.5203 73.3971C94.7437 73.5588 95.0012 73.663 95.2681 73.7252C95.5349 73.7874 95.8421 73.7237 95.9801 73.506C96.1027 73.3131 96.0592 73.0379 95.9041 72.8497L95.9057 72.8482Z" fill="#FF9A6C"/>
<path d="M95.8479 64.928C95.9193 65.0695 96.3925 64.9249 96.9758 64.914C97.5575 64.8907 98.0462 65.0073 98.1005 64.8627C98.1238 64.7943 98.0229 64.6667 97.815 64.5517C97.6087 64.4366 97.2938 64.3448 96.9447 64.3542C96.5957 64.3651 96.2916 64.4739 96.0993 64.6014C95.9038 64.7289 95.8169 64.8611 95.8479 64.928Z" fill="#263238"/>
<path d="M90.6006 66.6531C90.703 66.7728 91.0769 66.6251 91.533 66.5955C91.9875 66.5504 92.38 66.6375 92.4622 66.5022C92.4979 66.4369 92.4312 66.3141 92.2559 66.2037C92.0837 66.0932 91.8014 66.0108 91.488 66.0357C91.1746 66.0621 90.9093 66.1881 90.7573 66.325C90.6022 66.4618 90.5556 66.594 90.6022 66.6531H90.6006Z" fill="#263238"/>
<path d="M102.408 70.6339C102.408 70.6339 100.289 71.147 97.2812 64.6545C96.2574 62.4447 94.2686 60.2179 94.2686 60.2179L96.1348 59.9473C96.1348 59.9473 101.696 61.5179 101.789 61.5879C101.883 61.6579 103.192 64.471 103.192 64.471L102.407 70.6323L102.408 70.6339Z" fill="#263238"/>
<path d="M101.711 70.3748C101.697 70.0763 102.005 69.3578 102.295 69.2972C103.073 69.1354 104.489 69.1277 104.601 71.1213C104.754 73.8474 101.993 73.4399 101.984 73.3622C101.976 73.3015 101.759 71.4028 101.709 70.3748H101.711Z" fill="#FFBF9D"/>
<path d="M102.759 72.2833C102.769 72.274 102.808 72.3144 102.89 72.3455C102.971 72.3766 103.106 72.3937 103.246 72.3331C103.526 72.2118 103.744 71.7406 103.728 71.2476C103.72 70.9988 103.655 70.7655 103.557 70.5758C103.463 70.3814 103.326 70.2493 103.18 70.2321C103.035 70.2073 102.937 70.299 102.909 70.3783C102.876 70.4561 102.897 70.5105 102.883 70.5152C102.875 70.523 102.822 70.4732 102.838 70.3597C102.845 70.3052 102.873 70.2384 102.935 70.1824C102.997 70.1248 103.092 70.0922 103.193 70.0984C103.404 70.1015 103.602 70.2835 103.711 70.4934C103.83 70.7033 103.91 70.9646 103.919 71.2445C103.933 71.795 103.682 72.3253 103.294 72.4606C103.106 72.5212 102.943 72.473 102.856 72.4124C102.768 72.3502 102.751 72.2895 102.76 72.2849L102.759 72.2833Z" fill="#FF9A6C"/>
<path d="M96.2582 72.96C96.2505 73.03 95.7851 73.0191 95.2343 73.1264C94.6821 73.2275 94.2523 73.4063 94.2198 73.3441C94.1856 73.2897 94.5936 72.9973 95.1893 72.8869C95.7851 72.7718 96.2706 72.8962 96.2582 72.9584V72.96Z" fill="#263238"/>
<path d="M117.517 94.0838C117.517 94.0838 119.794 92.1275 120.455 92.0762C121.114 92.0233 122.852 92.3467 122.852 92.3467C122.852 92.3467 123.948 92.3561 124.493 92.2876C125.314 92.185 125.875 92.2705 126.204 92.3716C126.369 92.4214 126.573 92.8319 126.091 93.1103C125.886 93.2285 123.894 93.3638 123.894 93.3638L128.877 94.7913L128.23 95.3263C128.145 95.3978 128.038 95.4383 127.926 95.4414L120.751 95.6964L120.422 96.5004L117.518 94.0838H117.517Z" fill="#FFBF9D"/>
<path d="M122.958 94.0861H125.285C125.285 94.0861 126.101 92.9991 126.397 92.5465C126.655 92.15 126.967 92.0349 127.238 92.1282C127.308 92.1531 127.367 92.206 127.403 92.2697C127.457 92.3661 127.458 92.4843 127.407 92.5807L126.383 94.4951L126.92 94.3131C126.92 94.3131 127.995 93.2588 128.203 93.0146C128.411 92.7705 129.176 91.7441 129.854 92.4921L128.915 93.5371L129.854 92.8762C129.854 92.8762 130.6 92.2324 131 92.9975L128.211 95.355" fill="#FFBF9D"/>
<path d="M120.532 93.1192C120.532 93.1192 120.563 93.1052 120.625 93.0865C120.687 93.0694 120.777 93.0337 120.901 93.0228C121.145 92.9808 121.517 92.9886 121.947 93.1316C122.161 93.2047 122.388 93.3058 122.619 93.4411C122.734 93.5095 122.85 93.5826 122.968 93.665C123.025 93.707 123.084 93.749 123.145 93.791C123.201 93.8314 123.27 93.8843 123.317 93.9092C123.906 93.9558 124.58 93.9947 125.286 94.0445L125.253 94.0585C125.47 93.7988 125.686 93.5173 125.894 93.2218C125.974 93.1068 126.052 92.9917 126.128 92.8766C126.202 92.7615 126.274 92.6418 126.357 92.5314C126.44 92.421 126.528 92.3152 126.632 92.2266C126.683 92.1815 126.741 92.141 126.801 92.1099C126.865 92.0804 126.927 92.0509 127.015 92.0633H127.001C127.124 92.0493 127.265 92.0633 127.369 92.1504C127.473 92.2406 127.501 92.3774 127.492 92.4987V92.5049L127.487 92.5112C127.043 93.3074 126.658 94.0009 126.359 94.539V94.5328C126.294 94.7629 126.109 94.8967 125.951 94.9682C125.787 95.0397 125.633 95.0537 125.512 95.0615C125.391 95.0677 125.296 95.0615 125.234 95.0584C125.171 95.0553 125.138 95.0506 125.138 95.0491C125.138 95.046 125.171 95.0444 125.234 95.0444C125.298 95.0444 125.391 95.0444 125.51 95.0335C125.63 95.0226 125.779 95.004 125.934 94.9309C126.084 94.8593 126.255 94.7272 126.311 94.5188V94.5157L126.312 94.5126C126.606 93.9714 126.986 93.2747 127.42 92.4723L127.415 92.4847C127.423 92.3852 127.397 92.2686 127.318 92.2032C127.24 92.1379 127.122 92.1224 127.007 92.1348H127.004H126.994C126.953 92.1286 126.886 92.1488 126.835 92.1768C126.781 92.2064 126.73 92.2406 126.682 92.2841C126.586 92.3681 126.5 92.4692 126.421 92.5765C126.268 92.7926 126.125 93.0368 125.96 93.2654C125.751 93.5624 125.535 93.8454 125.313 94.1067L125.301 94.1222H125.281C124.57 94.0678 123.909 94.0274 123.301 93.9745C123.213 93.9325 123.168 93.8874 123.106 93.8439C123.047 93.8003 122.99 93.7583 122.932 93.7164C122.817 93.6339 122.703 93.5593 122.589 93.4909C122.363 93.3556 122.141 93.2514 121.933 93.1767C121.514 93.029 121.15 93.015 120.908 93.0461C120.785 93.0523 120.694 93.0834 120.632 93.0959C120.569 93.1099 120.535 93.1161 120.535 93.1145L120.532 93.1192Z" fill="#FF9A6C"/>
<path d="M129.85 92.4943C129.85 92.4943 129.823 92.5441 129.759 92.6218C129.697 92.7011 129.604 92.8131 129.489 92.9515C129.258 93.2283 128.935 93.6047 128.575 94.0183C128.209 94.4257 127.904 94.8238 127.635 95.0696C127.503 95.194 127.387 95.2842 127.3 95.337C127.213 95.3899 127.159 95.407 127.157 95.4039C127.154 95.3977 127.202 95.3712 127.283 95.3121C127.362 95.2531 127.471 95.1566 127.596 95.0291C127.851 94.7772 128.146 94.3775 128.513 93.967C128.875 93.5533 129.205 93.1801 129.447 92.9142C129.568 92.7805 129.667 92.6732 129.737 92.6016C129.807 92.5285 129.847 92.4912 129.852 92.4943H129.85Z" fill="#FF9A6C"/>
<path d="M128.574 92.6031C128.582 92.6109 128.473 92.7384 128.292 92.9359C128.11 93.1349 127.854 93.4055 127.569 93.6994C127.335 93.942 127.116 94.1629 126.942 94.3355L126.936 94.3417H126.93C126.584 94.4537 126.357 94.5112 126.353 94.4925C126.353 94.4879 126.405 94.4677 126.501 94.4303C126.619 94.3868 126.754 94.337 126.908 94.281L126.896 94.2888C127.063 94.1084 127.277 93.8829 127.511 93.6419C127.797 93.3464 128.059 93.0821 128.251 92.8939C128.444 92.7057 128.566 92.5922 128.576 92.6L128.574 92.6031Z" fill="#FF9A6C"/>
<path d="M109.79 82.4805C109.79 82.4805 113.134 83.3451 113.463 87.9015C113.649 90.4985 112.272 98.8385 112.272 98.8385L117.211 93.7533L121.614 96.8231C121.614 96.8231 115.626 104.163 114.244 105.267C112.861 106.371 110.66 108.146 109.943 108.001C109.227 107.856 109.227 104.547 109.227 104.547V86.2687L109.791 82.4805H109.79Z" fill="url(#paint0_linear_1385_17365)"/>
<path d="M85.7447 83.0367C85.7447 83.0367 82.7693 84.018 82.8903 89.8433C83.0113 95.6687 82.9166 97.6312 82.9166 97.6312L78.4565 92.9007L74.752 96.9968C74.752 96.9968 78.8971 103.169 81.7966 106.169C84.53 108.996 86.9594 106.54 87.749 104.553C88.3882 102.943 88.9032 96.8226 88.9032 96.8226L85.7447 83.0352V83.0367Z" fill="url(#paint1_linear_1385_17365)"/>
<g opacity="0.3">
<path d="M110.051 92.9763C110.32 91.272 110.391 89.4136 109.615 87.8477C107.709 92.5736 107.794 97.9977 108.477 103.004L109.988 107.335C110.94 104.433 110.034 101.341 110.056 98.3088C110.068 96.5857 109.783 94.6807 110.051 92.9763Z" fill="black"/>
</g>
<path d="M85.1279 86.7482C85.1279 86.7482 87.1167 100.159 87.503 101.335C87.8878 102.509 87.8878 105.971 87.8878 105.971C87.8878 105.971 85.7997 109.866 85.6709 112.575L110.813 112.627L109.18 101.498C109.124 101.083 109.119 99.8032 109.143 99.3849C109.248 97.4255 109.4 93.2205 109.96 90.636C110.612 87.6315 109.735 82.4904 109.735 82.4904L102.225 80.6367C100.447 83.198 96.0121 83.2322 94.2637 80.6367L85.7872 83.0393L85.1279 86.7498V86.7482Z" fill="url(#paint2_linear_1385_17365)"/>
<path d="M109.674 100.966C109.674 100.966 109.697 100.921 109.748 100.846C109.801 100.771 109.88 100.667 109.98 100.541C110.181 100.289 110.468 99.9409 110.842 99.6143C111.218 99.2877 111.613 99.0638 111.906 98.9285C112.054 98.8617 112.176 98.8134 112.262 98.7839C112.347 98.7544 112.395 98.7404 112.397 98.745C112.414 98.7761 111.635 99.028 110.893 99.6734C110.524 99.9938 110.234 100.333 110.021 100.575C109.811 100.82 109.68 100.972 109.671 100.964L109.674 100.966Z" fill="#263238"/>
<path d="M86.3865 100.682C86.3709 100.686 86.3135 100.41 86.1227 99.999C85.935 99.5916 85.5937 99.055 85.0709 98.6103C84.5481 98.1655 83.9648 97.9136 83.532 97.7954C83.0976 97.6741 82.8153 97.6617 82.8184 97.6461C82.8184 97.6415 82.8897 97.6399 83.0154 97.6508C83.1426 97.6601 83.3257 97.6866 83.5475 97.741C83.9896 97.8467 84.5885 98.094 85.1237 98.5496C85.6589 99.0037 86.0002 99.5573 86.1755 99.9772C86.2655 100.187 86.3197 100.364 86.3508 100.489C86.3818 100.613 86.3911 100.683 86.3865 100.683V100.682Z" fill="#263238"/>
<path d="M86.5475 93.413C86.5475 93.413 86.504 93.3959 86.4342 93.3508C86.3629 93.3073 86.2651 93.2389 86.1457 93.1487C85.9068 92.9698 85.595 92.7008 85.2816 92.3711C84.9698 92.0399 84.7154 91.718 84.5369 91.4785C84.3601 91.2406 84.2593 91.0866 84.267 91.0804C84.2763 91.0726 84.3942 91.2141 84.5819 91.4427C84.7712 91.6713 85.0303 91.987 85.3405 92.3136C85.6493 92.6417 85.9533 92.9138 86.1814 93.102C86.4094 93.2902 86.5552 93.4006 86.549 93.4115L86.5475 93.413Z" fill="#263238"/>
<path d="M104.102 100.673C104.102 100.673 104.096 100.684 104.082 100.704C104.064 100.727 104.042 100.755 104.015 100.789C103.955 100.862 103.873 100.977 103.75 101.111C103.516 101.386 103.151 101.764 102.661 102.189C102.172 102.615 101.552 103.075 100.826 103.528C100.101 103.982 99.2699 104.427 98.3825 104.854C97.4921 105.28 96.6326 105.658 95.8554 106.008C95.0766 106.358 94.3801 106.682 93.8046 106.972C93.2275 107.262 92.7698 107.512 92.4564 107.692C92.2982 107.779 92.1803 107.854 92.0965 107.901C92.0593 107.922 92.0283 107.94 92.0019 107.954C91.9802 107.964 91.9693 107.971 91.9678 107.969C91.9678 107.969 91.9771 107.96 91.9972 107.946C92.0221 107.93 92.0515 107.91 92.0872 107.885C92.1679 107.834 92.2842 107.756 92.4394 107.663C92.7481 107.473 93.2026 107.215 93.7766 106.918C94.3506 106.621 95.0456 106.291 95.8228 105.937C96.6001 105.582 97.4579 105.203 98.3469 104.778C99.2342 104.352 100.063 103.91 100.787 103.462C101.512 103.015 102.134 102.561 102.624 102.142C103.116 101.725 103.485 101.354 103.725 101.086C103.851 100.956 103.936 100.845 104.001 100.775C104.031 100.743 104.054 100.716 104.074 100.694C104.091 100.677 104.101 100.668 104.101 100.668L104.102 100.673Z" fill="#263238"/>
<path d="M85.7275 112.363C85.7275 112.363 85.7275 112.352 85.7275 112.33C85.7275 112.305 85.7306 112.272 85.7322 112.232C85.7384 112.142 85.7462 112.016 85.7555 111.853C85.8005 111.524 85.8687 111.041 86.0394 110.451C86.3636 109.268 87.0027 107.637 87.9754 105.825L87.9708 105.845C87.8715 104.387 87.7195 102.757 87.5457 101.042C87.2137 97.8054 86.8662 94.8802 86.6118 92.7638C86.4846 91.7094 86.3807 90.8541 86.3077 90.257C86.2736 89.9646 86.2457 89.736 86.2271 89.5758C86.2193 89.5012 86.2131 89.4421 86.2085 89.3985C86.2038 89.3581 86.2038 89.3379 86.2054 89.3379C86.2054 89.3379 86.2116 89.3581 86.2178 89.397C86.224 89.4405 86.2333 89.4996 86.2457 89.5727C86.269 89.7329 86.3 89.9615 86.3419 90.2523C86.4194 90.8479 86.5327 91.7016 86.6708 92.756C86.9391 94.8709 87.2959 97.796 87.6279 101.034C87.8017 102.749 87.9506 104.379 88.0452 105.841V105.851L88.0406 105.861C87.0663 107.663 86.4194 109.287 86.0828 110.462C85.9075 111.049 85.8315 111.529 85.7803 111.856C85.7648 112.017 85.7539 112.143 85.7446 112.232C85.7399 112.272 85.7368 112.303 85.7337 112.328C85.7306 112.35 85.7291 112.361 85.7275 112.361V112.363Z" fill="#263238"/>
<path d="M110.267 87.0586C110.267 87.0586 110.27 87.0804 110.27 87.1255C110.27 87.1737 110.27 87.2374 110.27 87.3198C110.269 87.4909 110.273 87.7444 110.256 88.0694C110.238 88.721 110.171 89.6618 110.056 90.8219C109.943 91.982 109.774 93.3583 109.605 94.8885C109.436 96.4187 109.267 98.1029 109.212 99.8788C109.155 101.655 109.329 103.344 109.555 104.864C109.779 106.387 110.042 107.749 110.245 108.895C110.453 110.041 110.607 110.971 110.692 111.618C110.739 111.94 110.765 112.192 110.784 112.363C110.792 112.445 110.799 112.509 110.804 112.557C110.809 112.601 110.81 112.624 110.809 112.624C110.809 112.624 110.802 112.603 110.796 112.559C110.79 112.512 110.781 112.447 110.768 112.366C110.745 112.197 110.712 111.946 110.661 111.624C110.565 110.981 110.404 110.052 110.19 108.908C109.979 107.763 109.709 106.401 109.481 104.877C109.25 103.354 109.073 101.659 109.13 99.8788C109.184 98.0997 109.355 96.4125 109.529 94.8823C109.702 93.3521 109.876 91.9758 109.997 90.8188C110.12 89.6618 110.196 88.721 110.222 88.071C110.242 87.7459 110.244 87.4925 110.25 87.3214C110.253 87.239 110.256 87.1737 110.258 87.127C110.259 87.0835 110.261 87.0601 110.263 87.0601L110.267 87.0586Z" fill="#263238"/>
<g opacity="0.3">
<path d="M86.276 89.9336C85.8276 94.1479 86.3644 98.6406 87.7342 102.651L86.276 89.9336Z" fill="black"/>
</g>
<g opacity="0.3">
<path d="M101.827 104.792C99.9223 106.546 98.0111 108.045 95.667 108.88C97.434 109.031 99.2164 108.353 100.582 107.221C101.947 106.087 102.919 104.893 103.545 103.23L101.827 104.793V104.792Z" fill="black"/>
</g>
<path d="M99.6613 106.723C99.6458 106.706 100.831 105.616 102.308 104.289C103.785 102.961 104.995 101.899 105.009 101.916C105.024 101.933 103.839 103.022 102.362 104.35C100.885 105.678 99.6768 106.74 99.6613 106.723Z" fill="#263238"/>
<path d="M103.875 73.8129C103.875 74.351 103.441 74.788 102.902 74.788C102.364 74.788 101.93 74.351 101.93 73.8129C101.93 73.2749 102.364 72.8379 102.902 72.8379C103.441 72.8379 103.875 73.2749 103.875 73.8129Z" fill="#455A64"/>
<path d="M109.664 86.6223C109.377 84.2399 109.092 81.8591 108.805 79.4767L102.653 77.6152C102.534 81.87 101.791 86.6488 100.724 90.7682C102.99 91.5053 105.412 91.7572 107.782 91.5053C107.888 90.3545 107.992 89.2038 108.097 88.053C108.251 88.9208 108.404 89.7885 108.558 90.6547C109.203 90.2923 109.583 89.5692 109.714 88.8399C109.842 88.109 109.754 87.3594 109.666 86.6239L109.664 86.6223Z" fill="#263238"/>
<path d="M104.853 91.5239C104.853 91.5239 104.857 91.4928 104.871 91.4338C104.885 91.3715 104.905 91.2845 104.932 91.1725C104.986 90.9392 105.067 90.6002 105.169 90.1664C105.371 89.2908 105.669 88.0265 105.959 86.4481C106.25 84.8713 106.534 82.9772 106.629 80.8576C106.722 78.7427 106.593 76.3914 106.008 74.0136C105.433 71.6359 104.426 69.4867 103.157 67.7933C102.996 67.5833 102.844 67.3703 102.672 67.179C102.502 66.9846 102.344 66.784 102.169 66.6052C102.084 66.5134 101.998 66.4232 101.913 66.333C101.826 66.2459 101.739 66.1588 101.652 66.0733C101.482 65.8991 101.305 65.739 101.134 65.5772C100.444 64.9365 99.769 64.3736 99.1655 63.8449C98.5621 63.3177 98.0222 62.8294 97.577 62.3738C97.4637 62.2618 97.3613 62.1467 97.2589 62.0394C97.1565 61.9321 97.0604 61.8264 96.9735 61.7222C96.8851 61.618 96.7997 61.52 96.7175 61.4251C96.6415 61.3272 96.5686 61.2339 96.4988 61.1452C96.3561 60.9711 96.249 60.8031 96.1497 60.6616C96.0489 60.5216 95.9729 60.3957 95.9139 60.293C95.855 60.1935 95.81 60.1158 95.7774 60.0613C95.7464 60.0085 95.7324 59.9805 95.7324 59.9805C95.7324 59.9805 95.751 60.0054 95.7836 60.0567C95.8177 60.1111 95.8658 60.1857 95.9279 60.2837C95.9899 60.3848 96.0675 60.5076 96.1699 60.646C96.2707 60.786 96.3809 60.9524 96.5252 61.1235C96.595 61.2105 96.6679 61.3039 96.7454 61.4003C96.8277 61.4936 96.913 61.5915 97.003 61.6942C97.0914 61.7984 97.1876 61.9026 97.29 62.0083C97.3924 62.1141 97.4963 62.2291 97.6095 62.3395C98.0579 62.7921 98.5977 63.2757 99.2028 63.7998C99.8078 64.3254 100.484 64.8852 101.179 65.5259C101.351 65.6877 101.53 65.8478 101.7 66.022C101.787 66.1075 101.874 66.1946 101.963 66.2817C102.048 66.3719 102.133 66.4621 102.22 66.5538C102.397 66.7327 102.557 66.9333 102.726 67.1292C102.9 67.3221 103.053 67.5351 103.215 67.7466C104.494 69.4463 105.507 71.6063 106.086 73.9918C106.672 76.3789 106.8 78.738 106.702 80.8576C106.604 82.9818 106.314 84.879 106.015 86.4559C105.717 88.0343 105.411 89.2986 105.2 90.171C105.093 90.6064 105.008 90.9455 104.949 91.1741C104.919 91.286 104.896 91.3731 104.881 91.4338C104.865 91.4928 104.854 91.5224 104.854 91.5224L104.853 91.5239Z" fill="#455A64"/>
<defs>
<linearGradient id="paint0_linear_1385_17365" x1="115.42" y1="82.4805" x2="115.42" y2="108.009" gradientUnits="userSpaceOnUse">
<stop stop-color="#FFB171"/>
<stop offset="1" stop-color="#FF943D"/>
</linearGradient>
<linearGradient id="paint1_linear_1385_17365" x1="81.8276" y1="83.0352" x2="81.8276" y2="107.449" gradientUnits="userSpaceOnUse">
<stop stop-color="#FFB171"/>
<stop offset="1" stop-color="#FF943D"/>
</linearGradient>
<linearGradient id="paint2_linear_1385_17365" x1="97.9707" y1="80.6367" x2="97.9707" y2="112.627" gradientUnits="userSpaceOnUse">
<stop stop-color="#FFB171"/>
<stop offset="1" stop-color="#FF943D"/>
</linearGradient>
</defs>
</svg>
