<svg width="150" height="150" viewBox="0 0 150 150" fill="none" xmlns="http://www.w3.org/2000/svg">
<rect width="150" height="150" rx="75" fill="#D4E9FF"/>
<g clip-path="url(#clip0_1_1082)">
<path d="M77.1937 32.5952H73.0312V39.0493H77.1937V32.5952Z" fill="#263238"/>
<path d="M79.4241 34.5252H70.8516V27.5679C73.8527 26.8334 76.7181 26.7884 79.4241 27.5679V34.5252Z" fill="#177ED7"/>
<path d="M79.5252 27.5979C79.5252 27.5979 79.4175 27.6622 79.2085 27.7543C79.0017 27.8485 78.6936 27.9641 78.3058 28.084C77.918 28.2082 77.4462 28.3196 76.9162 28.4117C76.384 28.4952 75.7937 28.553 75.1732 28.5594C74.5506 28.5594 73.9603 28.508 73.4281 28.4288C72.896 28.3431 72.4242 28.2339 72.0342 28.114C71.6442 27.9962 71.3362 27.8849 71.1293 27.7928C70.9203 27.7029 70.8083 27.6493 70.8126 27.6408C70.8234 27.6151 71.2866 27.8078 72.0644 28.0155C72.4522 28.1226 72.924 28.2189 73.4497 28.296C73.9775 28.3667 74.5614 28.4138 75.1754 28.4138C75.7894 28.4074 76.3733 28.3539 76.899 28.2789C77.4246 28.1954 77.8943 28.0947 78.2821 27.9855C79.0577 27.7714 79.5188 27.5722 79.5295 27.5979H79.5252Z" fill="#263238"/>
<path d="M73.6826 34.5074C73.6417 34.5074 73.6094 33.1712 73.6094 31.5244C73.6094 29.8777 73.6417 28.5415 73.6826 28.5415C73.7236 28.5415 73.7559 29.8777 73.7559 31.5244C73.7559 33.1712 73.7236 34.5074 73.6826 34.5074Z" fill="#263238"/>
<path d="M75.3154 34.5472C75.2745 34.5472 75.2422 33.2046 75.2422 31.5514C75.2422 29.8983 75.2745 28.5557 75.3154 28.5557C75.3564 28.5557 75.3887 29.8962 75.3887 31.5514C75.3887 33.2067 75.3564 34.5472 75.3154 34.5472Z" fill="#263238"/>
<path d="M76.9483 34.5214C76.9073 34.5214 76.875 33.1787 76.875 31.5256C76.875 29.8724 76.9073 28.5298 76.9483 28.5298C76.9892 28.5298 77.0215 29.8703 77.0215 31.5256C77.0215 33.1809 76.9892 34.5214 76.9483 34.5214Z" fill="#263238"/>
<path d="M78.3076 34.5198C78.2667 34.5198 78.2344 33.0701 78.2344 31.2799C78.2344 29.4897 78.2667 28.04 78.3076 28.04C78.3486 28.04 78.3809 29.4897 78.3809 31.2799C78.3809 33.0701 78.3486 34.5198 78.3076 34.5198Z" fill="#263238"/>
<path d="M72.1436 34.4769C72.1026 34.4769 72.0703 33.0272 72.0703 31.237C72.0703 29.4468 72.1026 27.9971 72.1436 27.9971C72.1845 27.9971 72.2168 29.4468 72.2168 31.237C72.2168 33.0272 72.1845 34.4769 72.1436 34.4769Z" fill="#263238"/>
<path d="M100.892 43.0627L98.8125 40.8999L95.4169 44.1251L97.4963 46.2878L100.892 43.0627Z" fill="#263238"/>
<path d="M100.986 45.1859L96.7031 40.7318L100.364 37.2563C102.249 38.4491 103.705 39.9159 104.647 41.7104L100.986 45.1859Z" fill="#177ED7"/>
<path d="M97.4224 41.4772C97.3987 41.4515 98.2281 40.6163 99.2752 39.6099C100.322 38.6034 101.191 37.809 101.214 37.8325C101.238 37.8582 100.408 38.6934 99.3614 39.6998C98.3143 40.7063 97.4461 41.5007 97.4224 41.4772Z" fill="#263238"/>
<path d="M98.2348 42.3242C98.224 42.3113 98.4373 42.0994 98.7906 41.7632C99.1461 41.4291 99.6395 40.973 100.191 40.4719C100.73 39.988 101.217 39.549 101.606 39.1978C101.77 39.0522 101.915 38.9258 102.037 38.8145C102.141 38.7224 102.192 38.6774 102.197 38.6753C102.244 38.7181 101.376 39.5618 100.275 40.5618C99.7256 41.0608 99.2194 41.5083 98.8509 41.8253C98.4804 42.1422 98.2455 42.3328 98.2348 42.3199V42.3242Z" fill="#263238"/>
<path d="M99.3225 43.4564C99.3117 43.4436 99.5271 43.2294 99.8869 42.8932C100.247 42.557 100.749 42.0988 101.307 41.5956C101.854 41.1095 102.352 40.6705 102.746 40.3193C102.914 40.1737 103.06 40.0473 103.188 39.9381C103.295 39.846 103.345 39.8075 103.356 39.8032C103.377 39.8182 103.162 40.0452 102.806 40.3835C102.451 40.724 101.951 41.1844 101.391 41.6876C100.833 42.1887 100.32 42.6384 99.9451 42.9575C99.5702 43.2765 99.3332 43.4693 99.3203 43.4564H99.3225Z" fill="#263238"/>
<path d="M100.344 44.4853C100.321 44.4596 101.161 43.6308 102.221 42.6308C103.281 41.6308 104.16 40.8406 104.183 40.8663C104.207 40.892 103.367 41.7207 102.307 42.7208C101.247 43.7208 100.368 44.511 100.344 44.4853Z" fill="#263238"/>
<path d="M48.4519 42.7466L46.1953 44.7261L49.3031 48.2261L51.5598 46.2466L48.4519 42.7466Z" fill="#263238"/>
<path d="M50.5911 42.7331L45.9439 46.8102L42.5938 43.0371C43.867 41.2127 45.3988 39.8251 47.2409 38.96L50.5911 42.7331Z" fill="#177ED7"/>
<path d="M46.7177 46.1261C46.6918 46.1497 45.8839 45.291 44.9144 44.2118C43.9449 43.1325 43.1779 42.2374 43.2038 42.2139C43.2296 42.1903 44.0375 43.0468 45.007 44.1282C45.9765 45.2075 46.7414 46.1026 46.7155 46.1261H46.7177Z" fill="#263238"/>
<path d="M47.609 45.3507C47.5961 45.3614 47.3893 45.1408 47.0682 44.7746C46.7451 44.4085 46.3077 43.8988 45.8273 43.3335C45.3619 42.7789 44.9396 42.2778 44.6036 41.8774C44.4635 41.7082 44.3407 41.5604 44.2351 41.4341C44.1468 41.327 44.1037 41.2756 44.1016 41.2692C44.1468 41.2242 44.9612 42.1193 45.9221 43.2521C46.4025 43.8196 46.8313 44.3378 47.135 44.7168C47.4388 45.0958 47.6219 45.3378 47.609 45.3485V45.3507Z" fill="#263238"/>
<path d="M48.7852 44.3162C48.7723 44.3269 48.5654 44.1042 48.2401 43.7337C47.917 43.3633 47.4753 42.8472 46.9927 42.2712C46.5252 41.708 46.1029 41.1983 45.7668 40.7915C45.6268 40.618 45.5061 40.4681 45.4006 40.3375C45.3122 40.2262 45.2756 40.1769 45.2734 40.1662C45.2885 40.1469 45.5083 40.3675 45.8336 40.7337C46.1611 41.0998 46.6049 41.6159 47.0875 42.1898C47.5701 42.7658 48.001 43.2905 48.3069 43.6759C48.6128 44.0614 48.796 44.3055 48.783 44.3162H48.7852Z" fill="#263238"/>
<path d="M49.8615 43.3478C49.8357 43.3713 49.0342 42.5019 48.0712 41.4098C47.1082 40.3177 46.3498 39.4119 46.3756 39.3905C46.4015 39.3691 47.203 40.2342 48.166 41.3285C49.129 42.4206 49.8874 43.3264 49.8615 43.3478Z" fill="#263238"/>
<path d="M98.5617 94.2773C111.959 80.9615 111.959 59.3724 98.5617 46.0567C85.1646 32.741 63.4437 32.7409 50.0466 46.0567C36.6495 59.3724 36.6495 80.9615 50.0466 94.2773C63.4437 107.593 85.1646 107.593 98.5617 94.2773Z" fill="#177ED7"/>
<path d="M96.5931 92.3177C108.901 80.0841 108.901 60.2494 96.5931 48.0158C84.2847 35.7822 64.329 35.7822 52.0206 48.0158C39.7123 60.2494 39.7123 80.0841 52.0206 92.3177C64.329 104.551 84.2847 104.551 96.5931 92.3177Z" fill="white"/>
<path d="M74.3127 101.601C56.8746 101.601 42.6875 87.4999 42.6875 70.1676C42.6875 52.8353 56.8724 38.7344 74.3127 38.7344C91.753 38.7344 105.938 52.8353 105.938 70.1676C105.938 87.4999 91.7509 101.601 74.3127 101.601ZM74.3127 38.9485C56.9931 38.9485 42.9008 52.9531 42.9008 70.1676C42.9008 87.3821 56.9909 101.387 74.3106 101.387C91.6302 101.387 105.72 87.3821 105.72 70.1676C105.72 52.9531 91.6302 38.9485 74.3127 38.9485Z" fill="#263238"/>
<path d="M54.5234 57.6543C55.8355 53.6029 58.5286 50.8619 62.092 48.5021C65.6576 46.1423 70.5181 45.2601 74.7861 45.6177V70.8645L54.5234 57.6522V57.6543Z" fill="#177ED7"/>
<g opacity="0.8">
<path d="M54.5234 57.6543C55.8355 53.6029 58.5286 50.8619 62.092 48.5021C65.6576 46.1423 70.5181 45.2601 74.7861 45.6177V70.8645L54.5234 57.6522V57.6543Z" fill="white"/>
</g>
<path d="M72.0591 70.7294L57.8828 59.7827L74.485 67.3932L74.9741 70.284L72.0591 70.7294Z" fill="#177ED7"/>
<g opacity="0.4">
<path d="M57.8828 59.7827L72.6861 68.436L74.485 67.3932L57.8828 59.7827Z" fill="#177ED7"/>
</g>
<path d="M76.1 73.0463C77.6071 72.432 78.3278 70.7196 77.7097 69.2216C77.0916 67.7237 75.3688 67.0074 73.8617 67.6217C72.3546 68.2361 71.6339 69.9485 72.252 71.4464C72.8701 72.9444 74.5929 73.6607 76.1 73.0463Z" fill="#FAFAFA"/>
<path d="M74.981 67.4006C74.981 67.4199 74.7181 67.4028 74.2678 67.5206C73.8262 67.6362 73.1777 67.9296 72.6779 68.5913C72.4344 68.9189 72.2254 69.33 72.1436 69.8033C72.0638 70.2744 72.0811 70.8054 72.275 71.3087C72.3633 71.5635 72.499 71.8076 72.6692 72.0324C72.8351 72.2594 73.042 72.4671 73.2811 72.6363C73.7529 72.9875 74.3583 73.1866 74.9831 73.1909C75.6079 73.1845 76.2133 72.9875 76.6851 72.6363C76.9243 72.465 77.1311 72.2594 77.297 72.0324C77.4672 71.8076 77.6008 71.5635 77.6913 71.3087C77.8852 70.8033 77.9024 70.2722 77.8227 69.8011C77.7408 69.3279 77.5318 68.9146 77.2884 68.5891C76.7886 67.9274 76.1401 67.6341 75.6984 67.5184C75.2481 67.4028 74.9831 67.4178 74.9853 67.3985C74.9853 67.3985 75.2481 67.3621 75.7113 67.4627C76.1659 67.5634 76.8403 67.8503 77.3703 68.5249C77.6288 68.8589 77.8507 69.2851 77.9412 69.7776C78.0295 70.2679 78.0166 70.8204 77.8184 71.3515C77.7257 71.617 77.5879 71.8761 77.4112 72.1117C77.2367 72.3515 77.0212 72.5678 76.7713 72.7477C76.2779 73.1181 75.6402 73.328 74.9853 73.3344C74.3303 73.328 73.6926 73.1181 73.1992 72.7477C72.9493 72.5678 72.7339 72.3515 72.5594 72.1117C72.3827 71.8761 72.2427 71.617 72.1522 71.3515C71.9518 70.8226 71.941 70.2679 72.0294 69.7776C72.1199 69.2851 72.3418 68.8589 72.6003 68.5249C73.1303 67.8482 73.8046 67.5612 74.2592 67.4627C74.7224 67.3621 74.9874 67.3985 74.9874 67.3985L74.981 67.4006Z" fill="#177ED7"/>
<path d="M74.9845 68.1499C76.1974 68.1499 77.1798 69.1264 77.1798 70.332C77.1798 71.5376 76.1974 72.514 74.9845 72.514C73.7715 72.514 72.7891 71.5376 72.7891 70.332C72.7891 69.1264 73.7715 68.1499 74.9845 68.1499Z" fill="#177ED7"/>
<path d="M74.836 69.4728C74.836 69.4728 74.2306 50.5923 75.1096 46.6094C75.1096 46.6094 76.579 58.055 74.836 69.4728Z" fill="#177ED7"/>
<path d="M73.1194 99.1248H73.0806L73.1646 96.7693H73.2314L73.1172 99.1248H73.1194ZM84.9452 97.2169L84.0597 95.0326L84.1265 95.007L84.9775 97.2061L84.9452 97.219V97.2169ZM61.4897 96.0926L61.453 96.0755L62.5066 93.9662L62.5647 93.9962L61.4875 96.0948L61.4897 96.0926ZM94.9935 90.6749L93.3045 89.0239L93.3497 88.979L95.0259 90.645L94.9957 90.6749H94.9935ZM52.1178 88.6257L52.0833 88.5828L53.9211 87.0946L53.9512 87.1331L52.1199 88.6278L52.1178 88.6257ZM101.515 80.6362L99.2938 79.816L99.3175 79.7539L101.53 80.5998L101.515 80.6362ZM46.6002 78.013L46.583 77.953L48.8732 77.3492L48.8839 77.3899L46.5981 78.0151L46.6002 78.013ZM100.985 68.9593V68.9207L103.349 68.7794L103.353 68.8458L100.985 68.9593ZM100.985 68.9164V68.8651L103.349 68.7237V68.7773L100.985 68.9186V68.9164ZM48.2505 66.4389L45.9065 66.0855L45.9151 66.032L48.257 66.3875L48.2484 66.4389H48.2505ZM98.0852 58.3316L98.0636 58.2888L100.169 57.2074L100.194 57.2567L98.0852 58.3316ZM52.1479 56.1817L50.1551 54.9076L50.1809 54.8669L52.1781 56.1346L52.1479 56.1817ZM91.1005 49.8475L91.0595 49.8154L92.5396 47.9759L92.5806 48.0081L91.1005 49.8475ZM59.8997 48.3807L58.6005 46.4106L58.6372 46.387L59.9514 48.3464L59.8997 48.3807ZM81.246 44.9052L81.2007 44.8945L81.7954 42.6139L81.8535 42.6289L81.246 44.9052ZM70.1786 44.3913L69.7929 42.0679L69.8468 42.0593L70.2303 44.3849L70.1786 44.3934V44.3913Z" fill="#263238"/>
<path d="M88.4202 59.538C88.7261 59.2725 89.2108 59.2339 89.5556 59.4459C90.1286 59.2725 90.8073 59.553 91.0874 60.0776C91.4946 60.0113 91.9298 60.174 92.1948 60.4867C92.4598 60.7993 92.5459 61.2554 92.4102 61.643C92.8174 61.7329 93.147 62.0991 93.1901 62.5124C93.2332 62.9257 92.9854 63.3518 92.6063 63.5231C92.9704 63.8208 93.0565 64.4032 92.7958 64.793C92.5352 65.1827 91.9599 65.3283 91.5441 65.1077L88.1724 60.6451C88.0065 60.2768 88.1099 59.8036 88.418 59.538H88.4202Z" fill="#263238"/>
<path d="M91.6306 65.2837C92.249 63.258 91.1976 61.1037 89.2155 60.3286L89.0194 60.2515C86.8477 59.5448 85.0315 60.9838 84.3809 63.1595L81.9097 70.3052L81.8516 71.3031L84.0556 74.6051L85.9321 73.7507L87.0072 71.7507C87.0072 71.7507 89.1724 72.2325 89.9997 70.2153C90.3983 69.241 91.0575 67.1681 91.6328 65.2837H91.6306Z" fill="#FFBF9D"/>
<path d="M87.0225 71.7554C87.0225 71.7554 85.6889 71.325 84.6569 69.9331C84.6569 69.9331 84.5708 71.7447 86.68 72.3571L87.0225 71.7554Z" fill="#FF9A6C"/>
<path d="M90.2968 66.931C90.2408 67.0851 90.0641 67.1665 89.9004 67.113C89.7367 67.0595 89.6483 66.8903 89.7043 66.734C89.7604 66.5776 89.937 66.4963 90.1008 66.5519C90.2645 66.6055 90.3528 66.7768 90.299 66.931H90.2968Z" fill="#263238"/>
<path d="M90.7801 66.217C90.7284 66.2405 90.5733 65.9922 90.2588 65.8701C89.9464 65.7438 89.6534 65.8144 89.634 65.763C89.6232 65.7395 89.6878 65.6859 89.8171 65.6517C89.9442 65.6174 90.1403 65.6131 90.3342 65.6902C90.5281 65.7673 90.666 65.9022 90.7306 66.0136C90.7974 66.1249 90.8038 66.2063 90.778 66.2149L90.7801 66.217Z" fill="#263238"/>
<path d="M87.5546 66.0162C87.4986 66.1704 87.322 66.2517 87.1582 66.1982C86.9945 66.1447 86.9061 65.9755 86.9622 65.8192C87.0182 65.665 87.1948 65.5815 87.3586 65.6372C87.5223 65.6907 87.6107 65.8599 87.5568 66.0162H87.5546Z" fill="#263238"/>
<path d="M87.7958 65.0007C87.7441 65.0242 87.5889 64.7758 87.2744 64.6538C86.962 64.5274 86.669 64.5981 86.6496 64.5467C86.6388 64.5232 86.7035 64.4696 86.8327 64.4354C86.9598 64.4011 87.1559 64.3968 87.3498 64.4739C87.5437 64.551 87.6816 64.6859 87.7462 64.7973C87.813 64.9086 87.8195 64.99 87.7958 64.9985V65.0007Z" fill="#263238"/>
<path d="M87.9163 67.7144C87.9228 67.6952 88.1296 67.738 88.4614 67.8215C88.5454 67.8451 88.6273 67.8579 88.6617 67.8087C88.7027 67.7594 88.7048 67.6588 88.7027 67.5517C88.7027 67.329 88.7027 67.0977 88.7048 66.8536C88.7177 65.8622 88.7608 65.0613 88.7996 65.0613C88.8405 65.0613 88.8621 65.8664 88.8492 66.8579C88.8449 67.102 88.8405 67.3333 88.8341 67.556C88.8276 67.6588 88.8405 67.7808 88.7522 67.8836C88.707 67.935 88.6316 67.9543 88.5756 67.9479C88.5174 67.9436 88.4721 67.9264 88.4312 67.9136C88.1059 67.8065 87.9098 67.7316 87.9141 67.7123L87.9163 67.7144Z" fill="#263238"/>
<path d="M88.0496 64.0779C87.9892 64.1529 87.7286 64.003 87.386 63.9216C87.0456 63.8316 86.7418 63.8359 86.7267 63.7439C86.7224 63.701 86.8 63.6389 86.9379 63.5982C87.0758 63.5576 87.274 63.5447 87.4786 63.5982C87.6833 63.6496 87.8492 63.7546 87.9462 63.8552C88.0453 63.9558 88.0776 64.0458 88.0496 64.0822V64.0779Z" fill="#263238"/>
<path d="M90.0554 64.6967C90.1352 64.6432 90.3312 64.7909 90.5941 64.8808C90.8547 64.9815 91.1004 64.9922 91.1262 65.0864C91.137 65.1314 91.0767 65.1913 90.956 65.2277C90.8375 65.2642 90.6565 65.2663 90.4756 65.2021C90.2946 65.1357 90.1589 65.02 90.0921 64.9151C90.0231 64.8102 90.0167 64.7267 90.0533 64.6988L90.0554 64.6967Z" fill="#263238"/>
<path d="M91.8007 64.2781C91.8007 64.2781 91.7641 62.7984 91.2664 62.2609C90.6632 61.6099 90.019 62.2995 89.3878 61.8241C88.7543 61.3487 88.1791 60.7256 87.2376 60.9889C86.2056 61.2759 86.4125 61.8412 86.0074 62.7213C84.3657 66.291 83.2863 67.0597 83.7754 65.2674C83.8293 65.0704 83.3617 64.7149 83.5987 63.8905C83.9047 62.8198 84.3614 61.5521 84.8828 60.9097C85.3223 60.3701 85.8437 60.081 86.6645 59.8604C87.9594 59.5093 89.3425 60.0317 90.2388 60.49C91.135 60.9483 92.5139 62.7213 91.8007 64.2781Z" fill="#263238"/>
<path d="M83.9273 65.262C84.0393 64.945 83.8648 64.5917 83.5395 64.4975C83.1452 64.384 82.6367 64.4332 82.3524 65.2256C81.8482 66.6282 83.3693 66.8423 83.3865 66.8037C83.3973 66.778 83.7204 65.8508 83.9273 65.262Z" fill="#FFBF9D"/>
<path d="M83.2709 66.1677C83.2709 66.1677 83.2407 66.1763 83.1912 66.1806C83.1438 66.1849 83.0705 66.172 83.0059 66.1185C82.8766 66.0114 82.8357 65.7309 82.9197 65.4761C82.9628 65.3476 83.0318 65.2341 83.1136 65.1506C83.1933 65.0628 83.286 65.0157 83.3657 65.0285C83.4476 65.0371 83.4842 65.1013 83.4863 65.1463C83.4907 65.1913 83.4713 65.217 83.4799 65.2212C83.482 65.2255 83.5187 65.2084 83.5273 65.1463C83.5316 65.1163 83.5273 65.0778 83.5036 65.0392C83.4799 65.0007 83.4346 64.9686 83.3808 64.9557C83.2687 64.9236 83.1352 64.99 83.0447 65.0821C82.9477 65.1741 82.8659 65.2983 82.8185 65.4439C82.7258 65.7309 82.7775 66.0457 82.9607 66.1784C83.0511 66.2384 83.1438 66.2384 83.1998 66.2213C83.2558 66.202 83.2752 66.1742 83.2709 66.1699V66.1677Z" fill="#FF9A6C"/>
<path d="M85.0201 62.5882C85.1536 62.7809 85.2937 62.9843 85.5027 63.0893C85.7116 63.1963 86.0111 63.1685 86.1339 62.9693C86.1878 62.8794 86.2093 62.7573 86.302 62.7081C86.414 62.6481 86.5433 62.7317 86.6553 62.7895C87.0431 62.9908 87.5709 62.8687 87.8295 62.5154C87.8726 62.7102 88.116 62.798 88.3121 62.7573C88.5081 62.7188 88.674 62.5925 88.8507 62.5025C89.0274 62.4126 89.2493 62.3526 89.4238 62.4511C89.5207 62.5068 89.594 62.6053 89.7017 62.6353C89.8913 62.691 90.0658 62.5132 90.1649 62.3419C90.264 62.1728 90.3696 61.9693 90.5635 61.9329C90.7423 61.8987 90.9082 62.0229 91.0676 62.1149C91.227 62.2049 91.4597 62.252 91.5675 62.1042C91.6235 62.0271 91.6235 61.9222 91.6041 61.828C91.5222 61.404 91.1086 61.0678 90.6734 61.0721C90.7186 60.5603 90.4277 60.0357 89.971 59.798C89.5121 59.5603 88.9132 59.6267 88.5189 59.9564C88.3293 59.5753 87.9458 59.2969 87.5214 59.2326C87.0991 59.1684 86.6488 59.3226 86.3537 59.6309C86.0499 59.4104 85.6104 59.389 85.2872 59.5795C84.9641 59.7701 84.7723 60.1641 84.824 60.5346C84.5159 60.5796 84.2035 60.7423 84.085 61.0271C83.9665 61.3119 84.1346 61.7081 84.4427 61.7402C84.2423 61.9201 84.2143 62.2584 84.3823 62.4683C84.5504 62.6781 84.8886 62.7252 85.1106 62.571" fill="#263238"/>
<path d="M84.3351 61.7011C84.3351 61.7011 84.264 61.8081 84.3157 62.0009C84.3437 62.0929 84.4084 62.2043 84.529 62.275C84.6454 62.3456 84.8134 62.3756 84.9728 62.3156L84.9168 62.2835C84.9384 62.4291 84.9814 62.5876 85.059 62.7375C85.1086 62.8338 85.171 62.9238 85.2508 62.9945C85.3283 63.0673 85.4317 63.1101 85.5222 63.1294C85.7075 63.1786 85.8992 63.1443 86.0156 63.0566C86.1341 62.973 86.2009 62.8767 86.2418 62.8124C86.2849 62.7461 86.3021 62.7075 86.2978 62.7054C86.2914 62.7011 86.2655 62.7353 86.2159 62.7932C86.1664 62.851 86.0953 62.9366 85.9833 63.0073C85.7721 63.1551 85.3025 63.0887 85.1366 62.6989C85.0655 62.5598 85.0224 62.4099 84.9987 62.2707L84.9901 62.2193L84.9427 62.2385C84.8112 62.2899 84.6669 62.2707 84.5635 62.2128C84.4579 62.1572 84.3954 62.0651 84.3631 61.9816C84.3006 61.8124 84.3459 61.6989 84.333 61.6968L84.3351 61.7011Z" fill="#455A64"/>
<path d="M88.2266 59.5659C88.2266 59.5659 88.2589 59.5895 88.3106 59.6409C88.3601 59.6901 88.4291 59.7779 88.4549 59.9085L88.4614 59.9407L88.4916 59.9235C88.6898 59.8015 88.9979 59.6623 89.3813 59.6451C89.5709 59.6366 89.7778 59.6623 89.9781 59.7394C90.1763 59.8165 90.3616 59.9535 90.5017 60.1377C90.6094 60.2811 90.6848 60.4417 90.7214 60.6066C90.7559 60.7715 90.7516 60.9364 90.7085 61.0842L90.6956 61.1291L90.743 61.1334C90.9756 61.157 91.1717 61.2812 91.2945 61.4311C91.4195 61.5809 91.4669 61.7523 91.4776 61.8936C91.4927 62.1805 91.3871 62.3347 91.4022 62.339C91.4044 62.339 91.4324 62.3069 91.4647 62.2319C91.4949 62.1591 91.5315 62.0413 91.5272 61.8915C91.5229 61.7437 91.4776 61.5553 91.3484 61.3904C91.2213 61.2276 91.0101 61.0884 90.7537 61.0563L90.7882 61.1077C90.8356 60.9471 90.8421 60.7672 90.8076 60.5895C90.7688 60.4118 90.6891 60.2383 90.5728 60.0863C90.4241 59.8914 90.2237 59.7415 90.0104 59.6623C89.7972 59.5809 89.5774 59.5574 89.3792 59.5702C88.9785 59.5959 88.6661 59.7501 88.4679 59.885L88.5045 59.9C88.47 59.7586 88.3881 59.6708 88.3321 59.6237C88.2718 59.5766 88.233 59.5638 88.2309 59.5681L88.2266 59.5659Z" fill="#455A64"/>
<path d="M87.8722 68.8961C87.842 68.909 87.7192 68.6477 87.4542 68.4293C87.1935 68.2045 86.9135 68.1274 86.9221 68.0952C86.9221 68.0674 87.2388 68.0995 87.5275 68.3436C87.8162 68.5856 87.9023 68.8918 87.8722 68.8961Z" fill="#263238"/>
<path d="M102.813 79.3935C103.052 79.3272 105.385 79.7062 105.385 79.7062C105.385 79.7062 105.478 80.2137 104.937 80.1966C104.398 80.1794 102.63 80.0381 102.63 80.0381L101.492 80.537L101.117 80.3743L102.813 79.3935Z" fill="#FF9A6C"/>
<path d="M98.0256 79.8336L101.339 80.1462L101.856 80.2083C101.856 80.2083 103.078 79.7693 103.302 79.7286C103.526 79.6879 105.581 80.7929 105.581 80.7929C105.581 80.7929 105.659 81.2661 105.086 81.1441C104.513 81.022 103.817 80.673 103.817 80.673C103.817 80.673 101.957 81.536 101.585 81.7051C101.214 81.8722 98.9994 81.8593 98.9994 81.8593L98.2173 82.369L98.0234 79.8357L98.0256 79.8336Z" fill="#FFBF9D"/>
<path d="M99.3281 84.8881L100.681 84.0358L105.328 82.3913C105.328 82.3913 105.735 82.0229 105.526 81.873C105.315 81.7232 100.369 82.4641 100.369 82.4641L99.3303 83.0465V84.8902L99.3281 84.8881Z" fill="#FFBF9D"/>
<path d="M86.2087 81.6062C86.2087 81.8632 82.1691 88.4886 81.0186 90.1439C79.3166 92.5958 77.6102 92.9041 77.6102 92.9041L75.3438 91.0219L84.6682 80.9767L87.4367 78.9702L86.2065 81.6084L86.2087 81.6062Z" fill="#455A64"/>
<path d="M84.125 84.6111C84.125 84.6111 87.7531 86.2385 89.1126 86.4698C90.7112 86.7439 99.4819 86.1293 99.4819 86.1293L99.316 82.6582L86.4992 82.3691L84.9674 81.9644L84.125 84.609V84.6111Z" fill="#455A64"/>
<g opacity="0.3">
<path d="M85.3211 81.8715C85.0561 81.9893 84.9053 82.6852 84.7049 82.8951C82.5806 85.1114 81.0251 87.6126 78.8319 89.6169C77.8861 90.482 76.8153 91.2208 75.5312 91.1565L76.8412 92.2636C77.9335 92.2422 78.6552 91.7326 79.4782 91.0195C80.3012 90.3064 80.6502 89.2828 81.2858 88.4006C82.7314 86.3898 84.1491 84.1435 85.5947 82.1328C85.5236 81.8523 85.5839 81.7516 85.3211 81.8715Z" fill="black"/>
</g>
<path d="M75.9115 91.1341C75.9115 91.1341 77.8053 91.2776 78.5205 90.8364C79.3758 90.3097 86.9423 80.4486 86.9423 80.4486L87.0091 72.7461L82.7389 68.6968L82.2973 69.3649L73.2163 79.6649L67.3906 85.1618L74.3754 88.8921L75.9115 91.1362V91.1341Z" fill="#E0E0E0"/>
<path d="M85.233 80.2204C85.0068 80.4923 85.3688 84.3747 80.2821 84.9164C75.9861 85.3747 67.0301 84.8972 64.3434 84.7387C63.6583 84.698 63.096 84.1263 63.1434 83.4474C63.1628 83.1755 63.277 82.8993 63.5635 82.6658C64.518 81.8907 65.5176 82.1305 66.1079 80.5437C66.6983 78.957 66.429 78.366 67.4717 77.7364C68.9432 76.8477 72.5476 78.4773 72.5476 78.4773C73.4525 77.1154 73.9308 75.9162 75.2019 74.2909C76.2296 72.9761 77.6257 71.1774 78.7546 70.5414C79.0325 70.3851 80.5234 69.7726 80.8379 69.7234L81.536 69.6013L82.0013 68.9932C82.6865 69.687 85.2503 72.0339 85.7027 72.8541L86.2198 75.8498L85.2352 80.2204H85.233Z" fill="#455A64"/>
<g opacity="0.3">
<path d="M97.1886 83.2643C93.8169 83.0308 90.3116 82.7974 86.147 81.9302L85.8906 82.4869C88.2928 83.9773 89.9561 84.033 91.7766 84.1636C93.5993 84.2943 95.2905 84.0137 97.0507 84.0137C97.0507 84.0137 97.2748 83.6626 97.1886 83.2643Z" fill="black"/>
</g>
<g opacity="0.3">
<path d="M78.5634 75.4196L77.1953 75.5053C77.7641 77.349 78.6819 77.9743 80.2439 79.1156C81.8058 80.257 82.0558 80.5932 83.8267 81.3812C83.9948 81.4562 85.3327 82.287 85.3736 82.1071C82.338 80.2527 80.5843 78.3319 78.5612 75.4175L78.5634 75.4196Z" fill="black"/>
</g>
<path d="M77.2281 74.215C76.7304 75.5898 77.631 76.2193 77.631 76.2193C77.631 76.2193 84.9561 82.8319 87.9142 83.166C90.8722 83.5 98.6261 83.091 98.6261 83.091V79.5021L89.181 78.4935C89.181 78.4935 85.3805 74.0416 83.2778 71.8081" fill="#455A64"/>
<path d="M83.2774 71.8073C83.2774 71.8073 83.3184 71.8437 83.3916 71.9187C83.467 71.9979 83.5748 72.1093 83.7148 72.2549C83.9949 72.5547 84.4064 72.9958 84.9234 73.5718C85.9597 74.7196 87.4355 76.392 89.2151 78.4627L89.1871 78.4477C91.8737 78.7304 95.1011 79.073 98.6344 79.4456L98.6839 79.4499V79.4991C98.6839 80.6491 98.6839 81.8547 98.6839 83.0881V83.1416L98.6301 83.1438C98.0915 83.1673 97.5162 83.1952 96.9345 83.2208C94.5366 83.3151 92.2206 83.3772 90.036 83.3343C89.7623 83.3258 89.493 83.3172 89.2237 83.3086C88.9544 83.2915 88.6894 83.2829 88.4244 83.2615C88.1594 83.2358 87.8988 83.223 87.6381 83.1694C87.5109 83.1395 87.3838 83.1052 87.2589 83.0667C87.1382 83.0217 87.0133 82.9853 86.8948 82.936C85.9425 82.5527 85.1066 82.0345 84.3245 81.5292C82.769 80.5034 81.4483 79.4649 80.328 78.5569C79.2098 77.6447 78.2985 76.8524 77.6134 76.2335H77.6155C77.329 76.0044 77.1847 75.7025 77.1136 75.4391C77.0511 75.1714 77.0532 74.9359 77.0812 74.7538C77.1071 74.5697 77.1459 74.4348 77.176 74.3448C77.2062 74.2549 77.2234 74.2121 77.2234 74.2121C77.2234 74.2121 77.2127 74.2592 77.1868 74.3491C77.1588 74.4391 77.1265 74.574 77.1028 74.756C77.0769 74.938 77.0791 75.1693 77.1459 75.4284C77.217 75.6832 77.3635 75.9787 77.6392 76.195C78.3308 76.8053 79.2486 77.5912 80.3689 78.497C81.4936 79.3985 82.8164 80.4306 84.3698 81.4478C85.1497 81.9489 85.9856 82.4628 86.9249 82.8375C87.0413 82.8868 87.1641 82.9211 87.2826 82.966C87.4032 83.0024 87.5282 83.0345 87.651 83.0645C87.8987 83.1159 88.1616 83.1288 88.4223 83.1545C88.6851 83.1759 88.9501 83.1844 89.2173 83.2016C89.4844 83.2101 89.7559 83.2187 90.0273 83.2251C92.2077 83.2658 94.5215 83.2016 96.9173 83.1074C97.4968 83.0817 98.0742 83.056 98.6107 83.0303L98.5568 83.0859C98.5568 81.8525 98.5568 80.6469 98.5568 79.497L98.6064 79.5505C95.0752 79.1694 91.8479 78.8203 89.1613 78.5312H89.144L89.1332 78.5162C87.3623 76.4391 85.8973 74.7603 84.8717 73.6018C84.359 73.0279 83.9583 72.5782 83.6803 72.2699C83.5446 72.12 83.4412 72.0043 83.3679 71.9251C83.2968 71.8459 83.2645 71.8052 83.2645 71.8052L83.2774 71.8073Z" fill="#263238"/>
<path d="M85.9216 82.4288C85.9216 82.4288 85.8549 82.5488 85.7191 82.7522C85.5748 82.9727 85.383 83.264 85.1503 83.6173C84.6742 84.3497 84.03 85.3732 83.3234 86.506C82.6167 87.6388 81.9747 88.6624 81.4985 89.399C81.2616 89.7673 81.0655 90.0628 80.9276 90.2641C80.7897 90.4654 80.71 90.5768 80.7036 90.5725C80.6971 90.5682 80.7639 90.4504 80.891 90.2406C81.0289 90.0157 81.2098 89.7181 81.4318 89.3562C81.9014 88.5981 82.5327 87.5767 83.2286 86.4482C83.9374 85.3154 84.5902 84.2983 85.0857 83.5745C85.3313 83.2126 85.5381 82.9235 85.6846 82.7265C85.8312 82.5295 85.9173 82.4246 85.9216 82.4288Z" fill="#263238"/>
<path d="M107.854 81.5584L98.9948 82.9053C98.8246 82.931 98.6674 82.8154 98.6415 82.6462L98.6286 82.5563C98.6027 82.3871 98.7191 82.2287 98.8893 82.2051L108.281 80.8218L108.166 81.2715C108.128 81.4235 108.005 81.537 107.854 81.5584Z" fill="#E0E0E0"/>
<path d="M107.853 81.5579C107.853 81.5579 107.941 81.5515 108.051 81.4466C108.105 81.393 108.146 81.3117 108.165 81.1982C108.191 81.0868 108.224 80.9605 108.258 80.817L108.284 80.8448C106.72 81.0954 103.189 81.6286 99.0865 82.2325C99.0047 82.2474 98.9012 82.2539 98.8409 82.2753C98.7741 82.301 98.7203 82.3567 98.6966 82.4252C98.6836 82.4594 98.6793 82.4937 98.6836 82.5301C98.6879 82.5644 98.6966 82.6158 98.7009 82.6522C98.7138 82.7207 98.759 82.7828 98.8194 82.8192C98.884 82.8556 98.9465 82.862 99.0305 82.8449L99.2826 82.8063C99.4506 82.7806 99.6165 82.755 99.7803 82.7314C100.437 82.6329 101.073 82.5365 101.678 82.4466C102.885 82.2667 103.975 82.1061 104.891 81.9691C105.8 81.8384 106.537 81.7314 107.058 81.6564C107.308 81.6222 107.504 81.5965 107.648 81.5772C107.711 81.5708 107.76 81.5643 107.801 81.5601C107.836 81.5558 107.853 81.5558 107.855 81.5579C107.855 81.5579 107.838 81.5643 107.803 81.5708C107.763 81.5793 107.713 81.5879 107.65 81.5986C107.506 81.6222 107.312 81.6564 107.064 81.6993C106.545 81.7828 105.808 81.9005 104.901 82.0462C103.986 82.1896 102.898 82.3588 101.691 82.5472C101.086 82.6393 100.452 82.7378 99.7953 82.8385C99.6316 82.8642 99.4657 82.8899 99.2977 82.9156L99.0456 82.9541C98.9637 82.9734 98.8452 82.9669 98.7612 82.9134C98.675 82.862 98.6104 82.7721 98.591 82.6736C98.5824 82.6243 98.5759 82.5922 98.5716 82.5387C98.5673 82.4873 98.5738 82.4359 98.591 82.3888C98.6255 82.2924 98.703 82.211 98.8 82.1725C98.9055 82.1361 98.981 82.1404 99.0714 82.1211C103.176 81.5172 106.709 81.0097 108.28 80.7977L108.314 80.7935L108.305 80.8256C108.267 80.9669 108.232 81.0932 108.204 81.2046C108.183 81.3138 108.133 81.4102 108.073 81.4616C108.015 81.5151 107.956 81.5387 107.918 81.5494C107.879 81.5601 107.857 81.5579 107.857 81.5579H107.853Z" fill="#263238"/>
<path d="M107.594 80.907L110.248 72.031C110.3 71.8639 110.476 71.7719 110.642 71.8211L110.72 71.8447C110.888 71.8961 110.981 72.0717 110.931 72.2365L108.135 81.3352L107.594 80.907Z" fill="#E0E0E0"/>
<path d="M107.594 80.9058C107.594 80.9058 107.609 80.9144 107.633 80.9315C107.661 80.9529 107.697 80.9786 107.738 81.0086C107.837 81.0836 107.971 81.1863 108.145 81.317L108.115 81.3277C108.514 79.9529 109.612 76.349 110.888 72.1669C110.894 72.0941 110.869 72.0191 110.819 71.9677C110.772 71.912 110.696 71.8928 110.612 71.8692C110.468 71.8328 110.315 71.9292 110.289 72.0876C110.19 72.4174 110.093 72.7429 109.996 73.062C109.804 73.7001 109.619 74.3147 109.442 74.9014C109.087 76.0727 108.766 77.1284 108.494 78.0192C108.223 78.9015 108.001 79.621 107.846 80.1264C107.768 80.3705 107.708 80.5611 107.665 80.7024C107.645 80.7623 107.628 80.8137 107.615 80.8523C107.602 80.8865 107.596 80.9037 107.594 80.9058C107.594 80.9058 107.594 80.8908 107.602 80.8566C107.613 80.818 107.626 80.7688 107.641 80.7088C107.68 80.5696 107.734 80.379 107.803 80.1371C107.949 79.6296 108.158 78.9122 108.415 78.0278C108.677 77.1327 108.99 76.0684 109.339 74.8907C109.513 74.2997 109.699 73.6787 109.888 73.0363C109.983 72.7151 110.082 72.3874 110.181 72.0555C110.198 71.972 110.257 71.8649 110.343 71.8135C110.429 71.7557 110.539 71.7364 110.64 71.7621C110.69 71.7771 110.722 71.7836 110.774 71.8028C110.821 71.8221 110.866 71.8542 110.901 71.8906C110.972 71.9656 111.011 72.0726 111 72.1776C110.987 72.2632 110.961 72.3189 110.944 72.3874L110.884 72.5823C110.843 72.7129 110.804 72.8414 110.765 72.9699C110.685 73.2268 110.608 73.4817 110.53 73.7322C110.375 74.2354 110.224 74.7237 110.078 75.1991C109.785 76.1455 109.509 77.0299 109.263 77.8265C108.766 79.4026 108.38 80.6317 108.156 81.3384L108.147 81.3662L108.126 81.3469C107.954 81.2056 107.82 81.0964 107.723 81.015C107.635 80.9401 107.592 80.9037 107.596 80.9037L107.594 80.9058Z" fill="#263238"/>
<path d="M85.1476 73.416C85.1325 73.4245 84.9667 73.1804 84.6801 72.8035C84.3936 72.4245 83.9735 71.9191 83.4736 71.3945C82.9738 70.8677 82.4933 70.4202 82.1443 70.0968C81.7931 69.7756 81.5755 69.5765 81.5863 69.5636C81.5906 69.5572 81.6531 69.6 81.7587 69.6814C81.8642 69.7628 82.0151 69.8848 82.1982 70.0369C82.5623 70.3452 83.0557 70.7863 83.5576 71.3174C84.0618 71.8463 84.4733 72.3645 84.7469 72.7564C84.8848 72.9513 84.9882 73.114 85.055 73.2297C85.1218 73.3453 85.1562 73.4095 85.1498 73.4138L85.1476 73.416Z" fill="#263238"/>
<g opacity="0.3">
<path d="M81.9705 84.5593C81.3435 84.7242 76.3883 84.3902 73.8999 83.6C72.116 83.0325 70.3838 82.2895 69.1967 81.4072C67.6197 80.2359 66.8656 78.9703 66.8656 78.9703C66.5791 78.8076 66.3895 79.662 66.2753 80.0175C66.1611 80.3708 65.9263 81.298 65.267 81.722C64.4612 82.2424 63.2246 82.4137 63.1147 83.4779C63.0458 84.146 63.6555 84.6964 64.3298 84.7285C66.4498 84.8313 72.3078 85.1118 73.8676 85.1097C75.7851 85.1097 79.8893 85.2167 81.9683 84.5593H81.9705Z" fill="black"/>
</g>
<path d="M82.7626 84.1877C82.7626 84.1877 82.7173 84.2305 82.6225 84.3054C82.5234 84.3718 82.3618 84.4511 82.1421 84.5153C81.7004 84.6331 81.0368 84.6802 80.2268 84.6374C79.4167 84.5988 78.4558 84.4767 77.398 84.329C76.338 84.1812 75.1724 83.9842 73.9745 83.6673C72.7788 83.3482 71.6671 82.9285 70.7192 82.4253C69.769 81.9242 68.987 81.3439 68.3902 80.7957C67.7934 80.2454 67.3841 79.7293 67.1298 79.3567C67.0027 79.1704 66.9079 79.0227 66.8519 78.9177C66.7916 78.815 66.7636 78.7593 66.7657 78.7593C66.77 78.7593 66.8045 78.8085 66.8713 78.907C66.9338 79.0077 67.0329 79.1511 67.1665 79.3332C67.4315 79.6951 67.8473 80.2004 68.4462 80.74C69.043 81.2775 69.8251 81.845 70.7687 82.3375C71.7124 82.8322 72.8154 83.2455 74.0047 83.5624C75.1961 83.8772 76.3552 84.0763 77.413 84.2305C78.4709 84.3847 79.4253 84.5153 80.2332 84.5624C81.039 84.6159 81.6961 84.5817 82.1335 84.4767C82.3511 84.4189 82.5105 84.3504 82.6117 84.2904C82.7087 84.2241 82.7604 84.1877 82.7626 84.1919V84.1877Z" fill="#263238"/>
<path d="M83.7681 82.9812C83.7444 83.0027 83.5979 82.8806 83.4384 82.7093C83.279 82.538 83.167 82.3817 83.1907 82.3624C83.2144 82.3431 83.3609 82.463 83.5203 82.6343C83.6797 82.8056 83.7918 82.962 83.7681 82.9812Z" fill="#263238"/>
<path d="M82.3408 71.58C82.3344 71.6015 82.0349 71.4644 81.52 71.3788C81.0115 71.2931 80.2704 71.2888 79.525 71.5565C78.7795 71.8263 78.215 72.3017 77.8811 72.6936C77.5407 73.0854 77.4007 73.3809 77.3834 73.3702C77.377 73.3681 77.4071 73.291 77.4739 73.1604C77.5429 73.0297 77.6549 72.8477 77.8208 72.6422C78.1461 72.231 78.7192 71.7299 79.4883 71.4516C80.2575 71.1732 81.0201 71.1924 81.5351 71.2995C81.7957 71.3531 81.9983 71.4194 82.1361 71.4751C82.2719 71.5308 82.3451 71.5715 82.3408 71.5779V71.58Z" fill="#263238"/>
<path d="M80.3307 81.5223C80.3307 81.5223 80.3048 81.5373 80.2488 81.5587C80.1928 81.5759 80.1152 81.6123 80.0075 81.6337C79.7942 81.6936 79.4753 81.7407 79.0789 81.7343C78.6825 81.73 78.2128 81.6487 77.7152 81.4923C77.2175 81.3339 76.6918 81.0919 76.1747 80.7878C75.6577 80.4816 75.188 80.1561 74.7614 79.8628C74.3348 79.5694 73.9492 79.3081 73.6152 79.1047C73.2813 78.9013 73.0055 78.7492 72.8095 78.6507C72.6134 78.5522 72.5057 78.5008 72.5078 78.4923C72.5078 78.488 72.538 78.4966 72.5919 78.518C72.6457 78.5394 72.7276 78.5672 72.8267 78.6122C73.0292 78.6979 73.3136 78.8413 73.654 79.0383C74.3413 79.4238 75.2074 80.079 76.2286 80.6936C76.7413 80.9934 77.2563 81.2332 77.7453 81.396C78.2344 81.5566 78.6933 81.6422 79.0811 81.6572C79.8631 81.6936 80.3264 81.4945 80.3307 81.5245V81.5223Z" fill="#263238"/>
<path d="M82.3405 84.1962C82.3405 84.1962 82.2845 84.2005 82.1768 84.1962C82.0583 84.1898 81.9031 84.1812 81.7071 84.1705C81.5024 84.1598 81.2547 84.1427 80.966 84.1127C80.6773 84.0827 80.3476 84.0592 79.9857 84.0078C79.6237 83.9607 79.2252 83.9136 78.8029 83.8386C78.3785 83.7744 77.9282 83.6844 77.4542 83.5881C76.5106 83.3825 75.4807 83.117 74.425 82.7529C73.3715 82.3846 72.3955 81.9564 71.5359 81.5195C71.1115 81.2882 70.7043 81.0762 70.3424 80.8428C70.1614 80.7293 69.9804 80.6266 69.8145 80.5131C69.6508 80.3996 69.4935 80.2925 69.3427 80.1876C69.0368 79.9863 68.7847 79.7743 68.5542 79.5987C68.44 79.5088 68.3322 79.4295 68.2375 79.3482C68.1448 79.2668 68.0608 79.1918 67.9832 79.1255C67.8367 78.9948 67.7204 78.892 67.6321 78.8128C67.5523 78.74 67.5136 78.7015 67.5157 78.6993C67.5179 78.6972 67.5631 78.7293 67.6471 78.7978C67.7376 78.8728 67.8604 78.9713 68.0112 79.0933C68.0909 79.1597 68.1771 79.2304 68.2719 79.3096C68.3689 79.3867 68.4787 79.4638 68.5929 79.5516C68.8256 79.7208 69.082 79.9285 69.3879 80.1233C69.5387 80.224 69.6982 80.331 69.8619 80.4403C70.0278 80.5495 70.2088 80.6501 70.3898 80.7615C70.7517 80.9906 71.1589 81.1983 71.5812 81.4253C72.4408 81.8578 73.4103 82.2797 74.4595 82.6459C75.5087 83.0078 76.5342 83.2754 77.4736 83.4853C77.9454 83.5838 78.3935 83.678 78.8158 83.7465C79.2359 83.8258 79.6324 83.8772 79.9943 83.9286C80.3541 83.9842 80.6837 84.0142 80.9703 84.0485C81.2568 84.0849 81.5067 84.1063 81.7092 84.1256C81.9031 84.1448 82.0583 84.1598 82.1768 84.1727C82.2845 84.1855 82.3405 84.1919 82.3383 84.1962H82.3405Z" fill="#263238"/>
<path d="M79.7184 118.103L79.3672 123.906L88.2091 123.972C88.1638 123.133 83.6028 121.413 83.6028 121.413L83.7407 118.267L79.7205 118.105L79.7184 118.103Z" fill="#177ED7"/>
<path d="M80.8688 121.009C80.6965 121.053 80.578 121.244 80.6168 121.415C80.6555 121.587 80.8494 121.711 81.0218 121.668C81.1941 121.625 81.345 121.403 81.2868 121.236C81.2286 121.068 80.9938 120.938 80.8365 121.019" fill="#E0E0E0"/>
<path d="M79.3672 123.903V123.162L87.8644 123.548C87.8644 123.548 88.2565 123.723 88.2069 123.997L79.3672 123.903Z" fill="#263238"/>
<path d="M83.7472 121.367C83.7472 121.41 83.5296 121.427 83.3163 121.564C83.0987 121.695 82.9888 121.881 82.9479 121.862C82.9091 121.853 82.9737 121.596 83.2365 121.436C83.4972 121.273 83.7579 121.326 83.7472 121.365V121.367Z" fill="#E0E0E0"/>
<path d="M84.6681 121.756C84.6768 121.796 84.4893 121.869 84.3428 122.049C84.1898 122.225 84.1511 122.422 84.108 122.419C84.067 122.426 84.039 122.175 84.2286 121.953C84.4139 121.73 84.6681 121.715 84.6703 121.756H84.6681Z" fill="#E0E0E0"/>
<path d="M85.1907 122.862C85.152 122.871 85.0938 122.656 85.2058 122.421C85.3178 122.185 85.5204 122.095 85.5398 122.13C85.5635 122.166 85.432 122.29 85.3415 122.483C85.2467 122.674 85.2338 122.856 85.1907 122.86V122.862Z" fill="#E0E0E0"/>
<path d="M83.6776 120.332C83.6583 120.371 83.4622 120.311 83.2166 120.326C82.9731 120.336 82.7814 120.416 82.7598 120.379C82.7361 120.347 82.9214 120.191 83.2101 120.178C83.4988 120.163 83.6992 120.3 83.6776 120.334V120.332Z" fill="#E0E0E0"/>
<path d="M83.4767 119.287C83.4767 119.304 83.3065 119.329 83.0328 119.28C82.8971 119.257 82.7377 119.21 82.5696 119.135C82.4856 119.096 82.4016 119.051 82.3154 118.998C82.2745 118.972 82.2271 118.944 82.1818 118.893C82.1344 118.848 82.1086 118.734 82.1646 118.664C82.2098 118.597 82.2896 118.567 82.3542 118.567C82.4188 118.567 82.4727 118.58 82.5201 118.591C82.6192 118.614 82.7097 118.649 82.7937 118.687C82.9617 118.764 83.0975 118.863 83.2009 118.957C83.4056 119.147 83.4723 119.308 83.4594 119.317C83.44 119.332 83.3409 119.195 83.1341 119.038C83.0307 118.959 82.8971 118.88 82.7398 118.813C82.6601 118.781 82.5761 118.753 82.4856 118.734C82.393 118.708 82.3133 118.708 82.2874 118.749C82.2788 118.764 82.2766 118.771 82.296 118.798C82.3154 118.824 82.3542 118.848 82.393 118.875C82.4705 118.927 82.5481 118.972 82.6256 119.01C82.7786 119.087 82.9273 119.141 83.0522 119.177C83.3043 119.25 83.4723 119.263 83.4702 119.287H83.4767Z" fill="#E0E0E0"/>
<path d="M83.4203 119.346C83.4052 119.352 83.3212 119.198 83.3061 118.92C83.2996 118.783 83.3147 118.616 83.3707 118.438C83.3987 118.35 83.4353 118.26 83.4849 118.172C83.5366 118.087 83.6012 117.971 83.7693 117.952C83.8576 117.95 83.9287 118.018 83.9524 118.076C83.9804 118.136 83.9869 118.187 83.9977 118.239C84.0127 118.341 84.0106 118.442 83.9977 118.534C83.9675 118.72 83.8899 118.877 83.8059 118.988C83.6314 119.215 83.4504 119.264 83.4483 119.249C83.4332 119.228 83.5862 119.147 83.7197 118.928C83.7865 118.821 83.8447 118.68 83.8619 118.515C83.8705 118.434 83.8705 118.348 83.8555 118.26C83.8425 118.166 83.8081 118.091 83.7714 118.099C83.7284 118.099 83.6529 118.168 83.6163 118.243C83.5711 118.322 83.5345 118.401 83.5043 118.481C83.4483 118.639 83.4224 118.791 83.416 118.92C83.4009 119.177 83.4461 119.339 83.4224 119.346H83.4203Z" fill="#E0E0E0"/>
<path d="M49.6789 104.239L43.9761 102.952L42.4766 111.614C43.3168 111.706 45.7643 107.511 45.7643 107.511L48.8645 108.155L49.6767 104.239H49.6789Z" fill="#177ED7"/>
<path d="M46.6037 104.899C46.5865 104.724 46.4163 104.576 46.2396 104.585C46.0629 104.595 45.91 104.764 45.9229 104.94C45.9358 105.116 46.134 105.3 46.3107 105.27C46.4852 105.24 46.6554 105.03 46.5994 104.863" fill="#E0E0E0"/>
<path d="M43.9728 102.955L44.7096 103.073L42.9473 111.347C42.9473 111.347 42.7103 111.702 42.4453 111.61L43.9728 102.955Z" fill="#263238"/>
<path d="M45.7861 107.66C45.743 107.651 45.7603 107.437 45.6612 107.206C45.5664 106.972 45.4005 106.833 45.4242 106.797C45.4392 106.758 45.6827 106.865 45.799 107.148C45.9197 107.429 45.8227 107.677 45.7861 107.66Z" fill="#E0E0E0"/>
<path d="M45.2409 108.501C45.1978 108.503 45.1569 108.309 45.0018 108.133C44.851 107.953 44.6635 107.885 44.6722 107.842C44.6722 107.801 44.9264 107.814 45.116 108.034C45.3056 108.253 45.2819 108.506 45.2409 108.499V108.501Z" fill="#E0E0E0"/>
<path d="M44.0625 108.831C44.0604 108.79 44.2823 108.769 44.4977 108.916C44.7132 109.064 44.7713 109.278 44.7326 109.291C44.6938 109.308 44.5904 109.158 44.4137 109.041C44.2392 108.916 44.0625 108.874 44.0647 108.831H44.0625Z" fill="#E0E0E0"/>
<path d="M46.821 107.759C46.7843 107.736 46.877 107.551 46.9028 107.309C46.933 107.067 46.8834 106.868 46.9244 106.853C46.9588 106.834 47.086 107.042 47.0515 107.327C47.0192 107.611 46.8511 107.787 46.821 107.759Z" fill="#E0E0E0"/>
<path d="M47.8901 107.729C47.8728 107.727 47.875 107.556 47.9676 107.297C48.0129 107.168 48.084 107.018 48.1874 106.866C48.2391 106.791 48.2973 106.714 48.3641 106.639C48.3964 106.603 48.4308 106.56 48.489 106.526C48.5407 106.487 48.6592 106.479 48.7195 106.545C48.7799 106.601 48.795 106.684 48.7842 106.746C48.7756 106.81 48.754 106.86 48.7325 106.905C48.6915 106.997 48.6441 107.082 48.5924 107.16C48.489 107.312 48.3684 107.429 48.2585 107.515C48.0366 107.684 47.8664 107.725 47.8599 107.71C47.8491 107.688 48 107.613 48.1895 107.436C48.2843 107.348 48.3856 107.23 48.4761 107.087C48.5213 107.014 48.5623 106.935 48.5967 106.851C48.6377 106.763 48.6506 106.686 48.614 106.654C48.5989 106.643 48.5946 106.641 48.5644 106.654C48.5364 106.669 48.5063 106.703 48.4718 106.738C48.4093 106.806 48.3511 106.875 48.2994 106.943C48.1982 107.082 48.1206 107.217 48.0646 107.335C47.9526 107.571 47.9116 107.733 47.8901 107.727V107.729Z" fill="#E0E0E0"/>
<path d="M47.8438 107.662C47.8395 107.645 48.0076 107.587 48.2855 107.619C48.4234 107.637 48.5871 107.677 48.753 107.761C48.8349 107.801 48.9189 107.853 48.9986 107.917C49.0762 107.983 49.1796 108.065 49.171 108.232C49.1602 108.317 49.0805 108.377 49.018 108.392C48.9534 108.412 48.9017 108.407 48.85 108.41C48.7444 108.41 48.6453 108.388 48.557 108.36C48.376 108.3 48.2359 108.2 48.139 108.099C47.9429 107.891 47.9214 107.705 47.9365 107.705C47.9602 107.694 48.0162 107.857 48.2122 108.022C48.307 108.103 48.4385 108.185 48.5979 108.23C48.6776 108.251 48.7638 108.266 48.8521 108.264C48.9469 108.266 49.0288 108.245 49.0245 108.208C49.0331 108.165 48.9749 108.08 48.9081 108.033C48.837 107.975 48.7638 107.926 48.6905 107.885C48.5419 107.804 48.3954 107.754 48.2704 107.726C48.0162 107.671 47.8503 107.688 47.8481 107.664L47.8438 107.662Z" fill="#E0E0E0"/>
<path d="M66.5258 85.8798C66.2112 86.3809 62.9386 88.0939 63.0183 93.1861L60.8833 104.323L48.1203 103.135L46.9375 108.227L63.1368 110.882C63.1368 110.882 65.4227 111.431 66.7628 108.767C68.1028 106.103 71.6879 96.3961 71.7676 96.1605C71.8473 95.925 74.0534 90.2053 74.0534 90.2053L66.5258 85.8755V85.8798Z" fill="#263238"/>
<path d="M64.1624 89.6733C64.1344 89.8253 63.2877 93.0502 66.6336 95.4528C69.9795 97.8576 79.7585 104.046 79.7585 104.046L80.0149 105.07L79.1402 120.171L84.6814 120.278C84.6814 120.278 86.2951 105.429 86.3447 103.894C86.3964 102.359 86.224 100.258 84.2484 98.5621C82.2922 96.8811 73.8898 89.6733 73.8898 89.6733C73.8898 89.6733 66.918 85.8381 66.9869 85.8787C67.0559 85.9194 64.5739 87.4227 64.1624 89.6733Z" fill="#263238"/>
<path d="M66.5234 85.8798L67.2667 84.8926C67.2667 84.8926 70.5049 86.2031 72.6055 87.7149C73.9412 88.6764 75.8975 89.9655 75.723 91.3317L66.5256 85.8798H66.5234Z" fill="#263238"/>
<path d="M79.7547 104.05C79.7547 104.05 79.7353 104.042 79.6987 104.02C79.6578 103.995 79.6039 103.965 79.5393 103.924C79.3928 103.834 79.1881 103.705 78.9296 103.545C78.3953 103.207 77.6347 102.727 76.6997 102.134C74.821 100.935 72.2249 99.2792 69.3896 97.4034C68.6787 96.9344 68.0108 96.4419 67.3472 95.9944C66.6901 95.5361 66.0589 95.0779 65.5289 94.5597C64.9946 94.0479 64.5637 93.4697 64.3245 92.8508C64.0811 92.2341 64.0121 91.6153 64.0078 91.0585C64.0121 89.9364 64.331 89.0606 64.6175 88.5103C64.764 88.234 64.9019 88.0349 65.0053 87.9064C65.0549 87.8464 65.0937 87.7993 65.1238 87.7629C65.1518 87.7308 65.1648 87.7158 65.1669 87.7158C65.1669 87.7158 65.1561 87.7351 65.1324 87.7694C65.1044 87.8079 65.0678 87.8571 65.0226 87.9192C64.9278 88.052 64.7963 88.2533 64.6563 88.5295C64.3848 89.0799 64.0811 89.9493 64.0875 91.0564C64.0961 91.6046 64.1694 92.2148 64.4107 92.8144C64.6477 93.4162 65.0721 93.9815 65.6021 94.4826C66.1278 94.9922 66.7547 95.444 67.4118 95.9002C68.0776 96.3477 68.7455 96.8402 69.4543 97.307C72.2874 99.1829 74.8792 100.849 76.7449 102.065C77.6735 102.671 78.4276 103.162 78.9554 103.506C79.2096 103.675 79.41 103.808 79.5543 103.902C79.6168 103.945 79.6685 103.98 79.7095 104.007C79.7439 104.031 79.7612 104.044 79.759 104.046L79.7547 104.05Z" fill="#455A64"/>
<path d="M80.2651 95.1461C80.2651 95.1461 80.2307 95.1268 80.1703 95.0797C80.1014 95.024 80.0152 94.9555 79.9097 94.8699C79.6748 94.675 79.3538 94.4073 78.966 94.084C78.1645 93.403 77.0765 92.4801 75.8765 91.4586C74.7067 90.3922 73.5239 89.5849 72.6535 89.0196C72.2204 88.737 71.8628 88.5121 71.6193 88.3579C71.5051 88.2851 71.4125 88.2273 71.3371 88.1781C71.2725 88.1374 71.2401 88.1138 71.2423 88.1095C71.2423 88.1052 71.2811 88.1224 71.3479 88.1588C71.4146 88.1952 71.5138 88.2487 71.6409 88.3194C71.8929 88.4629 72.257 88.6749 72.6965 88.9511C73.5756 89.4993 74.7777 90.3066 75.9498 91.3751C77.1412 92.4051 78.2206 93.3366 79.0156 94.024C79.3947 94.3581 79.7071 94.6343 79.9377 94.8356C80.0368 94.9255 80.1186 95.0005 80.1854 95.0604C80.2414 95.1118 80.2694 95.1418 80.2673 95.1439L80.2651 95.1461Z" fill="#455A64"/>
<path d="M62.8256 107.51C62.7998 107.527 62.3322 106.844 61.785 105.988C61.2356 105.129 60.8112 104.42 60.8371 104.405C60.8629 104.388 61.3304 105.071 61.8798 105.928C62.4292 106.786 62.8536 107.495 62.8278 107.51H62.8256Z" fill="#455A64"/>
<path d="M63.7453 106.523C63.7259 106.547 63.1378 106.102 62.4311 105.53C61.7245 104.956 61.1686 104.472 61.188 104.448C61.2074 104.425 61.7955 104.87 62.5022 105.442C63.2089 106.016 63.7647 106.5 63.7453 106.523Z" fill="#455A64"/>
<path d="M82.465 103.07C82.4736 103.102 81.8252 103.282 81.0366 103.532C80.2459 103.781 79.6125 104.006 79.6018 103.976C79.5953 103.961 79.7483 103.888 80.0003 103.785C80.2524 103.682 80.6057 103.552 81.0022 103.425C81.3986 103.299 81.7627 103.203 82.0298 103.143C82.2948 103.083 82.4629 103.055 82.4672 103.07H82.465Z" fill="#455A64"/>
<path d="M82.8113 104.875C82.8113 104.907 82.1995 104.924 81.4497 104.971C80.6978 105.018 80.0903 105.078 80.086 105.046C80.0817 105.016 80.6871 104.907 81.4433 104.86C82.1995 104.811 82.8135 104.845 82.8135 104.875H82.8113Z" fill="#455A64"/>
</g>
<defs>
<clipPath id="clip0_1_1082">
<rect width="71" height="97" fill="white" transform="translate(40 27)"/>
</clipPath>
</defs>
</svg>
