<svg width="150" height="150" viewBox="0 0 150 150" fill="none" xmlns="http://www.w3.org/2000/svg">
<rect width="150" height="150" rx="75" fill="#D4E9FF"/>
<path d="M108.995 115.266L105.782 114.16L107.814 108.129L112.531 109.698L112.429 110.08C111.961 111.775 109.926 118.667 109.216 119.666C108.422 120.785 108.995 115.266 108.995 115.266Z" fill="#177ED7"/>
<g opacity="0.4">
<path d="M111.751 111.87C111.271 111.61 110.905 111.182 110.723 110.667C110.54 110.161 110.554 109.606 110.761 109.109L112.445 109.677L111.751 111.87Z" fill="black"/>
</g>
<path opacity="0.4" d="M108.804 117.993C108.804 117.993 108.715 119.966 109.087 119.839C109.458 119.713 111.778 112.842 112.531 109.702L112.394 109.664L109.759 117.721C109.759 117.721 108.936 117.649 108.804 117.993Z" fill="black"/>
<path d="M112.422 109.571C112.418 109.607 112.409 109.643 112.398 109.678L112.317 109.98L111.994 111.094C111.725 112.03 111.316 113.319 110.839 114.735C110.363 116.15 109.908 117.426 109.564 118.336C109.402 118.764 109.262 119.124 109.149 119.412L109.034 119.703L108.988 119.805C108.994 119.768 109.004 119.732 109.018 119.697C109.05 119.609 109.085 119.512 109.123 119.401C109.227 119.105 109.359 118.742 109.513 118.311C109.844 117.391 110.293 116.118 110.767 114.705C111.24 113.292 111.652 112.014 111.943 111.072C112.077 110.636 112.193 110.265 112.287 109.966L112.384 109.667C112.393 109.634 112.406 109.601 112.422 109.571Z" fill="#263238"/>
<path d="M109.851 117.751C109.653 117.74 109.455 117.75 109.259 117.781C109.072 117.839 108.891 117.917 108.721 118.015C108.861 117.86 109.045 117.751 109.248 117.703C109.452 117.655 109.665 117.67 109.859 117.746L109.851 117.751Z" fill="#263238"/>
<path d="M109.547 115.666C109.547 115.688 109.42 115.736 109.251 115.779C109.151 115.815 109.044 115.828 108.939 115.817C108.939 115.795 109.065 115.744 109.232 115.704C109.399 115.663 109.541 115.644 109.547 115.666Z" fill="#263238"/>
<path d="M109.453 115.09C109.453 115.109 109.367 115.184 109.241 115.257C109.114 115.329 108.998 115.373 108.988 115.354C108.977 115.335 109.074 115.262 109.203 115.19C109.332 115.117 109.442 115.071 109.453 115.09Z" fill="#263238"/>
<path d="M108.984 114.591C108.988 114.704 108.966 114.817 108.919 114.92C108.896 115.03 108.848 115.134 108.779 115.224C108.775 115.112 108.797 115 108.844 114.898C108.9 114.726 108.962 114.586 108.984 114.591Z" fill="#263238"/>
<path d="M108.626 114.35C108.661 114.476 108.655 114.611 108.61 114.734C108.589 114.864 108.53 114.985 108.44 115.082C108.46 114.957 108.491 114.834 108.534 114.716C108.554 114.591 108.584 114.469 108.626 114.35Z" fill="#263238"/>
<path d="M108.956 115.695C108.932 115.828 108.885 115.955 108.818 116.072C108.755 116.207 108.678 116.335 108.59 116.454C108.539 116.529 108.479 116.598 108.412 116.659C108.371 116.695 108.317 116.715 108.261 116.713C108.23 116.709 108.201 116.697 108.177 116.677C108.152 116.658 108.134 116.632 108.124 116.602C108.102 116.43 108.14 116.255 108.233 116.108C108.325 115.961 108.465 115.85 108.63 115.795C108.726 115.763 108.828 115.75 108.929 115.757C109.001 115.757 109.039 115.776 109.039 115.781C108.906 115.782 108.775 115.803 108.649 115.846C108.515 115.902 108.401 115.995 108.321 116.115C108.27 116.182 108.233 116.257 108.212 116.338C108.19 116.419 108.185 116.503 108.197 116.586C108.221 116.664 108.302 116.664 108.366 116.61C108.427 116.553 108.483 116.49 108.533 116.422C108.621 116.307 108.7 116.186 108.77 116.059C108.894 115.841 108.942 115.693 108.956 115.695Z" fill="#263238"/>
<path d="M108.934 115.801C108.842 115.82 108.746 115.804 108.665 115.756C108.567 115.71 108.482 115.641 108.418 115.554C108.37 115.503 108.337 115.44 108.321 115.372C108.306 115.304 108.308 115.233 108.329 115.166C108.339 115.148 108.353 115.132 108.37 115.119C108.386 115.106 108.405 115.097 108.425 115.091C108.446 115.086 108.467 115.084 108.488 115.087C108.509 115.09 108.529 115.097 108.547 115.107C108.606 115.136 108.657 115.179 108.697 115.231C108.767 115.313 108.826 115.403 108.872 115.5C108.919 115.583 108.947 115.675 108.953 115.769C108.953 115.769 108.91 115.67 108.824 115.522C108.774 115.435 108.714 115.354 108.646 115.279C108.582 115.199 108.447 115.113 108.396 115.204C108.345 115.296 108.418 115.43 108.474 115.516C108.531 115.596 108.605 115.662 108.689 115.71C108.768 115.748 108.85 115.779 108.934 115.801Z" fill="#263238"/>
<path d="M110.731 109.137C110.744 109.137 110.658 109.304 110.599 109.589C110.518 109.957 110.543 110.341 110.672 110.695C110.8 111.05 111.027 111.361 111.326 111.591C111.554 111.771 111.724 111.839 111.719 111.86C111.676 111.853 111.635 111.838 111.598 111.817C111.49 111.77 111.388 111.711 111.293 111.642C110.975 111.415 110.733 111.097 110.599 110.729C110.465 110.362 110.447 109.962 110.545 109.583C110.575 109.471 110.614 109.361 110.664 109.255C110.679 109.212 110.702 109.172 110.731 109.137Z" fill="#263238"/>
<path d="M108.008 108.92C108.434 109.015 108.854 109.136 109.265 109.283C109.685 109.404 110.098 109.55 110.5 109.722C110.074 109.625 109.655 109.502 109.243 109.356C108.824 109.234 108.411 109.088 108.008 108.92Z" fill="#263238"/>
<path d="M110.906 112.433C110.875 112.744 110.805 113.049 110.696 113.342C110.612 113.643 110.489 113.932 110.33 114.201C110.309 114.201 110.468 113.805 110.624 113.318C110.78 112.831 110.885 112.427 110.906 112.433Z" fill="#263238"/>
<path d="M111.302 111.249C111.324 111.249 111.375 111.311 111.453 111.381C111.531 111.451 111.601 111.499 111.593 111.521C111.585 111.542 111.488 111.521 111.399 111.437C111.311 111.354 111.284 111.257 111.302 111.249Z" fill="#263238"/>
<path d="M110.894 110.614C110.913 110.614 110.961 110.665 111.004 110.749C111.047 110.832 111.066 110.908 111.047 110.918C111.029 110.929 110.977 110.867 110.934 110.784C110.891 110.7 110.875 110.625 110.894 110.614Z" fill="#263238"/>
<path d="M110.855 109.896C110.874 109.896 110.855 109.987 110.855 110.084C110.855 110.181 110.882 110.265 110.855 110.275C110.828 110.286 110.769 110.208 110.769 110.087C110.769 109.966 110.839 109.882 110.855 109.896Z" fill="#263238"/>
<path d="M110.886 109.4C110.908 109.4 110.927 109.446 110.929 109.503C110.932 109.559 110.916 109.605 110.894 109.605C110.873 109.605 110.854 109.562 110.851 109.505C110.849 109.449 110.865 109.403 110.886 109.4Z" fill="#263238"/>
<path d="M71.7198 117.796L71.1035 114.806L76.7011 113.614L77.6484 117.981L77.3067 118.078C75.7808 118.493 69.5184 120.075 68.4258 119.984C67.1932 119.879 71.7198 117.796 71.7198 117.796Z" fill="#177ED7"/>
<g opacity="0.4">
<path d="M75.6093 118.367C75.5921 117.877 75.756 117.398 76.0695 117.021C76.3773 116.649 76.8131 116.406 77.2913 116.338L77.625 117.901L75.6093 118.367Z" fill="black"/>
</g>
<path opacity="0.4" d="M69.5214 118.893C69.5214 118.893 67.9578 119.728 68.2215 119.97C68.4853 120.212 74.8768 118.837 77.6406 117.989L77.6056 117.865L70.1672 119.52C70.1672 119.52 69.8497 118.837 69.5214 118.893Z" fill="black"/>
<path d="M77.6953 117.835L77.6011 117.867L77.332 117.943L76.3228 118.212C75.4724 118.424 74.291 118.704 72.9777 118.987C71.6644 119.269 70.4749 119.495 69.6084 119.649L68.583 119.824L68.3139 119.867C68.2808 119.87 68.2474 119.87 68.2143 119.867L68.3112 119.843L68.5803 119.789L69.603 119.592C70.4641 119.425 71.6563 119.191 72.9669 118.909C74.2775 118.626 75.4589 118.357 76.3147 118.155L77.3266 117.916L77.5957 117.854C77.6279 117.843 77.6614 117.837 77.6953 117.835Z" fill="#263238"/>
<path d="M70.1953 119.599C70.1155 119.439 70.0171 119.289 69.902 119.152C69.7703 119.032 69.6259 118.926 69.4714 118.837C69.6593 118.866 69.8305 118.961 69.9531 119.107C70.0916 119.235 70.1778 119.411 70.1953 119.599Z" fill="#263238"/>
<path d="M71.6703 118.408C71.6569 118.421 71.5573 118.341 71.4496 118.23C71.342 118.12 71.2613 118.018 71.2747 118.004C71.2882 117.991 71.3877 118.071 71.4981 118.182C71.6084 118.292 71.6838 118.394 71.6703 118.408Z" fill="#263238"/>
<path d="M72.0698 118.072C72.0698 118.089 71.9594 118.048 71.8437 117.981C71.728 117.914 71.6419 117.849 71.6526 117.833C71.6634 117.817 71.763 117.857 71.8787 117.922C71.9944 117.986 72.0778 118.056 72.0698 118.072Z" fill="#263238"/>
<path d="M72.2422 117.482C72.2422 117.501 72.1184 117.544 71.9731 117.582C71.8761 117.614 71.7733 117.625 71.6717 117.614C71.7579 117.559 71.8555 117.525 71.9569 117.514C72.0484 117.482 72.1459 117.471 72.2422 117.482Z" fill="#263238"/>
<path d="M72.2656 117.091C72.1824 117.174 72.0767 117.231 71.9615 117.255C71.8508 117.297 71.7303 117.306 71.6144 117.282C71.7198 117.241 71.8288 117.209 71.94 117.188C72.045 117.144 72.1541 117.112 72.2656 117.091Z" fill="#263238"/>
<path d="M71.375 117.954C71.2602 118 71.1381 118.026 71.0144 118.029C70.881 118.041 70.7468 118.041 70.6134 118.029C70.5332 118.023 70.4538 118.009 70.3766 117.986C70.3524 117.979 70.33 117.966 70.3106 117.95C70.2912 117.934 70.2752 117.914 70.2636 117.892C70.252 117.867 70.2481 117.839 70.2524 117.811C70.2567 117.784 70.269 117.759 70.2878 117.738C70.4102 117.641 70.5628 117.59 70.7191 117.593C70.8753 117.597 71.0255 117.655 71.1436 117.757C71.2141 117.817 71.2718 117.89 71.3131 117.973C71.3301 118.001 71.3403 118.034 71.3427 118.067C71.2803 117.965 71.2022 117.875 71.1113 117.798C71.0113 117.72 70.8906 117.673 70.7641 117.663C70.6892 117.654 70.6132 117.66 70.5407 117.681C70.4681 117.702 70.4004 117.737 70.3416 117.784C70.2932 117.838 70.3416 117.9 70.4008 117.924C70.4725 117.947 70.5465 117.961 70.6215 117.967C70.7509 117.983 70.8813 117.99 71.0117 117.986C71.2351 117.975 71.3723 117.954 71.375 117.954Z" fill="#263238"/>
<path d="M71.2785 117.995C71.2174 117.93 71.1836 117.845 71.1843 117.756C71.1753 117.659 71.1891 117.561 71.2247 117.47C71.2443 117.409 71.2795 117.355 71.3267 117.312C71.3739 117.269 71.4315 117.239 71.4938 117.225C71.5319 117.225 71.5685 117.24 71.5956 117.267C71.6228 117.294 71.6384 117.33 71.6391 117.368C71.6445 117.427 71.6353 117.486 71.6122 117.54C71.5841 117.63 71.5424 117.716 71.4884 117.793C71.4468 117.869 71.3878 117.935 71.3162 117.984C71.3562 117.91 71.4002 117.838 71.4481 117.769C71.4917 117.69 71.5269 117.607 71.553 117.521C71.5853 117.435 71.5907 117.29 71.4965 117.293C71.4023 117.295 71.3323 117.414 71.292 117.497C71.2557 117.577 71.2382 117.665 71.2409 117.753C71.245 117.835 71.2577 117.916 71.2785 117.995Z" fill="#263238"/>
<path d="M77.2578 116.342C77.2578 116.355 77.0936 116.361 76.8487 116.444C76.5264 116.551 76.2409 116.747 76.0255 117.009C75.8102 117.272 75.6738 117.59 75.6323 117.927C75.5974 118.196 75.6323 118.347 75.6108 118.347C75.5893 118.347 75.5947 118.309 75.5866 118.237C75.5754 118.132 75.5754 118.026 75.5866 117.922C75.6172 117.572 75.7522 117.239 75.9741 116.966C76.199 116.696 76.4986 116.499 76.8353 116.398C76.9359 116.368 77.0398 116.349 77.1448 116.342C77.1823 116.337 77.2203 116.337 77.2578 116.342Z" fill="#263238"/>
<path d="M76.1837 114.122C76.4017 114.875 76.5751 115.641 76.7031 116.414C76.5825 116.041 76.4845 115.661 76.4098 115.276C76.3121 114.896 76.2366 114.51 76.1837 114.122Z" fill="#263238"/>
<path d="M74.7891 117.971C74.5332 118.094 74.2614 118.18 73.9817 118.227C73.7102 118.298 73.4309 118.335 73.1501 118.337C73.1501 118.316 73.5188 118.259 73.9575 118.16C74.3962 118.06 74.7837 117.955 74.7891 117.971Z" fill="#263238"/>
<path d="M75.886 117.74C75.9021 117.74 75.8725 117.823 75.8537 117.915C75.8348 118.006 75.8295 118.084 75.8079 118.087C75.7864 118.09 75.7622 118.006 75.7837 117.899C75.8052 117.791 75.8698 117.729 75.886 117.74Z" fill="#263238"/>
<path d="M76.1893 117.148C76.2055 117.148 76.1893 117.223 76.1355 117.296C76.0817 117.369 76.0413 117.414 76.0252 117.404C76.009 117.393 76.0252 117.328 76.0763 117.258C76.1274 117.188 76.1732 117.124 76.1893 117.148Z" fill="#263238"/>
<path d="M76.7344 116.773C76.7344 116.792 76.659 116.808 76.5837 116.854C76.5083 116.9 76.4572 116.956 76.441 116.948C76.4249 116.94 76.441 116.851 76.5487 116.795C76.6563 116.738 76.7344 116.754 76.7344 116.773Z" fill="#263238"/>
<path d="M77.125 116.574C77.125 116.59 77.1115 116.625 77.0685 116.654C77.0254 116.684 76.9824 116.689 76.9716 116.676C76.9608 116.663 76.9878 116.622 77.0308 116.595C77.0739 116.568 77.1142 116.558 77.125 116.574Z" fill="#263238"/>
<path d="M87.2839 75.2393C87.2839 75.2393 77.7814 102.374 80.0177 104.428C82.2541 106.481 107.575 115.825 107.575 115.825L110.32 108.131L90.4057 100.057L98.8559 81.1141C99.4972 79.6778 99.793 78.1113 99.7196 76.5401C99.6462 74.9688 99.2057 73.4367 98.4334 72.0664L96.1056 72.6046L87.2839 75.2393Z" fill="#263238"/>
<path d="M80.6161 76.7791C80.6161 76.7791 62.3161 85.4715 62.5152 88.491C62.7144 91.5105 70.4596 116.66 70.4596 116.66L78.0245 114.848L73.0673 92.4766L98.4531 78.8755L91.1708 74.0879L80.6161 76.7791Z" fill="#263238"/>
<path d="M88.4955 101.246C88.4686 101.195 88.8561 100.953 89.3028 100.616C89.7496 100.28 90.0887 99.9814 90.129 100.022C90.1694 100.062 89.8841 100.431 89.4212 100.778C88.9584 101.125 88.517 101.295 88.4955 101.246Z" fill="#455A64"/>
<path d="M87.8221 100.137C87.8221 100.083 88.3065 100.002 88.9147 99.9592C89.5229 99.9161 90.0207 99.9269 90.0234 99.9807C90.0261 100.035 89.539 100.115 88.9308 100.158C88.3226 100.201 87.8221 100.191 87.8221 100.137Z" fill="#455A64"/>
<path d="M86.1172 81.542C86.1016 81.5596 86.0889 81.5796 86.0795 81.6012L85.9799 81.7761L85.6113 82.4624C85.2991 83.0598 84.8739 83.9398 84.3948 85.0459C83.9158 86.152 83.4045 87.4976 82.8986 89.0127C82.3926 90.5278 81.9055 92.2098 81.4426 94.0048C80.9797 95.7998 80.5976 97.5033 80.2666 99.0588C80.1033 99.8393 79.949 100.578 79.8037 101.276C79.7364 101.621 79.6557 101.957 79.6207 102.288C79.5857 102.606 79.5857 102.926 79.6207 103.244C79.6511 103.533 79.718 103.818 79.8199 104.091C79.9196 104.336 80.0878 104.547 80.3043 104.7C80.6337 104.947 80.9861 105.162 81.3565 105.343C81.6606 105.493 81.8947 105.612 82.0643 105.666L82.2527 105.738C82.2739 105.749 82.2966 105.756 82.3199 105.76L82.2581 105.728L82.0751 105.639C81.9163 105.563 81.6794 105.453 81.3834 105.294C81.0202 105.108 80.6752 104.888 80.3527 104.638C80.1509 104.491 79.995 104.291 79.9033 104.059C79.8072 103.793 79.7449 103.517 79.7176 103.236C79.6841 102.925 79.6841 102.612 79.7176 102.302C79.7526 101.979 79.836 101.648 79.906 101.298C80.0567 100.606 80.2155 99.8662 80.3823 99.0857C80.7214 97.5302 81.1089 95.8213 81.5664 94.0398C82.0239 92.2582 82.511 90.5763 83.0116 89.0638C83.5121 87.5514 84.0181 86.2112 84.4756 85.0943C84.9331 83.9775 85.3529 83.1002 85.6489 82.4974L85.9934 81.8003L86.0795 81.6173C86.0944 81.5935 86.107 81.5682 86.1172 81.542Z" fill="#455A64"/>
<path d="M71.6789 31.6736C71.5551 30.8905 70.85 30.2904 70.0803 30.0912C69.2986 29.9342 68.4896 29.9805 67.7309 30.2258C67.1581 30.3343 66.6301 30.6095 66.2131 31.017C65.8491 31.4885 65.6589 32.0712 65.6749 32.6667C65.6587 33.256 65.7368 33.8454 65.6749 34.4321C65.6048 35.1407 65.3543 35.8194 64.9472 36.4036C64.5401 36.9878 63.9901 37.458 63.3497 37.7691C62.023 38.3989 60.4082 38.2885 59.1542 39.0528C58.5596 39.4165 58.091 39.9539 57.8116 40.5925C57.5323 41.2311 57.4556 41.94 57.5921 42.6235C57.7286 43.307 58.0715 43.9321 58.5747 44.4145C59.0778 44.8968 59.7169 45.2131 60.4056 45.3206C60.1549 45.8915 60.1047 46.5305 60.263 47.1336C60.4214 47.7367 60.7791 48.2685 61.2779 48.6427C61.7768 49.0168 62.3875 49.2112 63.0108 49.1944C63.6342 49.1776 64.2335 48.9505 64.7114 48.55C64.936 49.0042 65.2802 49.3886 65.7069 49.6617C66.1337 49.9349 66.627 50.0864 67.1335 50.1001C67.6387 50.1068 68.1403 50.0137 68.6095 49.8262C69.0787 49.6387 69.5062 49.3605 69.8677 49.0075C70.5874 48.2949 71.1255 47.42 71.4367 46.4562C72.2629 44.0961 72.1068 41.5233 71.9749 39.0259C71.843 36.5285 72.7553 34.86 71.6789 31.6736Z" fill="#263238"/>
<path d="M63.3336 38.9417C61.8804 39.009 61.0757 37.2705 61.1134 36.4416C61.1511 35.6127 61.727 34.9749 62.4025 34.4986C63.2892 33.9338 64.2591 33.5115 65.2766 33.2472C67.1981 32.857 66.7729 31.2907 69.5099 31.4011C70.7693 31.4522 72.5993 32.125 73.3232 33.1557C74.0472 34.1864 74.4508 35.4055 74.8438 36.6058" fill="#263238"/>
<path d="M71.4691 33.0239L71.9535 33.9551L79.9166 47.5616C80.8397 49.1413 80.218 51.1947 78.5199 52.1716C76.8029 53.1593 74.6366 52.6775 73.6758 51.0951C72.6666 49.4347 71.5767 47.7069 71.5767 47.7069C71.5767 47.7069 69.2219 48.6435 67.0932 46.1192C66.0329 44.8624 64.7304 42.5426 63.7239 40.6103C63.508 40.1942 63.3791 39.7385 63.3449 39.271C63.3107 38.8035 63.372 38.3339 63.5251 37.8908C63.6781 37.4477 63.9198 37.0404 64.2352 36.6937C64.5507 36.3469 64.9334 36.068 65.3601 35.8739L71.4691 33.0239Z" fill="#FFBE9D"/>
<path d="M65.3443 41.7695C65.3994 41.8635 65.4892 41.9321 65.5943 41.9608C65.6994 41.9895 65.8115 41.9759 65.9067 41.9229C66.0012 41.8746 66.0726 41.7908 66.1054 41.6899C66.1381 41.589 66.1296 41.4793 66.0817 41.3847C66.0265 41.2907 65.9368 41.2221 65.8317 41.1934C65.7266 41.1647 65.6144 41.1783 65.5192 41.2313C65.4722 41.2549 65.4304 41.2877 65.3961 41.3276C65.3618 41.3676 65.3358 41.4139 65.3195 41.4639C65.3033 41.514 65.2971 41.5667 65.3013 41.6192C65.3056 41.6717 65.3202 41.7227 65.3443 41.7695Z" fill="#263238"/>
<path d="M64.9255 41.499C64.9982 41.5205 65.1489 41.1545 65.5337 40.9231C65.9186 40.6916 66.3195 40.7158 66.3411 40.6539C66.3626 40.592 66.2523 40.5624 66.072 40.5463C65.8355 40.5311 65.6002 40.5904 65.3992 40.7158C65.198 40.8356 65.0405 41.0167 64.9497 41.2325C64.8798 41.3832 64.8905 41.4936 64.9255 41.499Z" fill="#263238"/>
<path d="M69.0309 39.542C69.086 39.6359 69.1757 39.7046 69.2808 39.7332C69.3859 39.7619 69.4981 39.7483 69.5933 39.6954C69.6403 39.6717 69.6822 39.639 69.7164 39.599C69.7507 39.5591 69.7767 39.5128 69.793 39.4627C69.8093 39.4127 69.8154 39.3599 69.8112 39.3075C69.8069 39.255 69.7923 39.2039 69.7682 39.1571C69.7131 39.0632 69.6234 38.9945 69.5183 38.9659C69.4131 38.9372 69.301 38.9508 69.2058 39.0037C69.1588 39.0274 69.1169 39.0602 69.0827 39.1001C69.0484 39.14 69.0224 39.1863 69.0061 39.2364C68.9898 39.2864 68.9836 39.3392 68.9879 39.3917C68.9921 39.4441 69.0067 39.4952 69.0309 39.542Z" fill="#263238"/>
<path d="M68.7581 39.2882C68.8308 39.3071 68.9815 38.9438 69.369 38.7123C69.7565 38.4809 70.1522 38.5024 70.1764 38.4432C70.2006 38.384 70.0903 38.3517 69.9073 38.3382C69.6712 38.3233 69.4362 38.3815 69.2345 38.5051C69.0333 38.6249 68.8758 38.806 68.785 39.0218C68.7178 39.1698 68.7178 39.2801 68.7581 39.2882Z" fill="#263238"/>
<path d="M69.0859 42.9887C68.8437 43.0477 68.6103 43.1382 68.3916 43.2578C68.2867 43.3063 68.1817 43.3439 68.1225 43.2874C68.054 43.1903 68.0157 43.0752 68.0122 42.9564C67.961 42.6604 67.9072 42.3536 67.8507 42.0306C67.6112 40.72 67.3744 39.6651 67.3125 39.6759C67.2506 39.6866 67.4093 40.7523 67.6489 42.0656L67.8265 42.9887C67.8357 43.1451 67.9007 43.2931 68.0095 43.4058C68.0439 43.4331 68.0844 43.4515 68.1276 43.4594C68.1707 43.4674 68.2152 43.4647 68.2571 43.4516C68.3198 43.4332 68.3802 43.4079 68.4374 43.3762C68.6692 43.2753 68.8872 43.145 69.0859 42.9887Z" fill="#263238"/>
<path d="M71.5756 47.7146C72.9025 46.9413 73.9888 45.815 74.7135 44.4609C74.7135 44.4609 74.9637 46.926 72.0223 48.3524L71.5756 47.7146Z" fill="#EB996E"/>
<path d="M67.7495 37.8383C67.8491 37.919 68.2043 37.6365 68.6887 37.4185C69.1731 37.2005 69.6145 37.1036 69.6172 36.9717C69.6172 36.9125 69.4961 36.8506 69.2862 36.8399C69.014 36.8305 68.7435 36.8868 68.4977 37.004C68.2504 37.1164 68.033 37.2851 67.8625 37.4965C67.7361 37.6634 67.7011 37.7979 67.7495 37.8383Z" fill="#263238"/>
<path d="M64.3936 40.297C64.512 40.3427 64.7246 40.0924 65.0394 39.896C65.3543 39.6995 65.6665 39.5999 65.6719 39.4708C65.6719 39.4089 65.5777 39.347 65.4028 39.3362C65.1839 39.3313 64.9685 39.392 64.7844 39.5105C64.6002 39.6289 64.4557 39.7997 64.3693 40.0009C64.3182 40.1597 64.3371 40.2727 64.3936 40.297Z" fill="#263238"/>
<path d="M62.945 38.8856C62.945 38.8856 64.8531 38.8264 66.3171 36.7999C67.2805 35.4705 68.6288 34.359 69.1024 34.4478C69.5761 34.5366 70.343 35.8365 71.8366 35.5539C71.8366 35.5539 73.0853 38.159 74.0569 37.5346C75.0284 36.9103 73.5186 34.0765 73.5186 34.0765L70.2489 31.8374L66.1986 34.2891L63.8223 35.9899L62.1215 37.5723L62.945 38.8856Z" fill="#263238"/>
<path d="M73.4245 36.8218C73.4541 36.7787 74.7701 35.3121 75.7389 36.9833C76.7077 38.6545 74.8239 39.2815 74.7943 39.2358C74.7647 39.19 73.4245 36.8218 73.4245 36.8218Z" fill="#FFBE9D"/>
<path d="M74.9465 38.2993C74.9465 38.2993 74.9868 38.2993 75.0487 38.2993C75.0917 38.2946 75.1333 38.2815 75.1711 38.2607C75.209 38.24 75.2424 38.2119 75.2694 38.1782C75.3381 38.0474 75.3707 37.9005 75.3636 37.7529C75.3565 37.6053 75.31 37.4622 75.229 37.3386C75.1509 37.1919 75.0405 37.0649 74.9061 36.9672C74.8602 36.9245 74.8047 36.8934 74.7443 36.8766C74.6839 36.8597 74.6203 36.8576 74.5589 36.8703C74.5206 36.8817 74.4873 36.9058 74.4644 36.9385C74.4414 36.9712 74.4302 37.0107 74.4324 37.0506C74.4324 37.1098 74.4674 37.1367 74.4594 37.1448C74.4513 37.1529 74.4082 37.1448 74.3813 37.0614C74.3653 37.0152 74.3653 36.9649 74.3813 36.9187C74.394 36.888 74.4127 36.86 74.4362 36.8364C74.4598 36.8129 74.4878 36.7942 74.5186 36.7815C74.5953 36.7559 74.6772 36.7501 74.7567 36.7647C74.8362 36.7793 74.9108 36.8138 74.9734 36.8649C75.1273 36.9697 75.2538 37.11 75.3421 37.274C75.5278 37.6184 75.5358 38.0329 75.3421 38.2428C75.3048 38.2815 75.2594 38.3115 75.2091 38.3306C75.1589 38.3497 75.105 38.3574 75.0514 38.3531C74.9734 38.3478 74.9411 38.3155 74.9465 38.2993Z" fill="#EB996E"/>
<path d="M75.1789 39.864C75.1789 39.864 75.1978 39.9044 75.2623 39.9501C75.3556 40.0128 75.4649 40.0473 75.5772 40.0497C75.6614 40.0538 75.7456 40.0404 75.8243 40.0103C75.9031 39.9802 75.9747 39.934 76.0347 39.8747C76.1082 39.8013 76.1646 39.7126 76.1999 39.615C76.2353 39.5173 76.2487 39.413 76.2392 39.3096C76.2231 39.1913 76.1795 39.0783 76.1119 38.9798C76.0444 38.8813 75.9548 38.7999 75.8502 38.7421C75.7457 38.6844 75.6291 38.6518 75.5097 38.6471C75.3904 38.6424 75.2716 38.6656 75.1628 38.7149C75.1242 38.7283 75.0893 38.7504 75.0605 38.7794C75.1954 38.7317 75.3372 38.7062 75.4803 38.7041C75.6325 38.7096 75.7792 38.7623 75.9002 38.8548C76.0476 38.9685 76.1443 39.1358 76.1693 39.3204C76.177 39.411 76.1654 39.5022 76.1352 39.5881C76.1051 39.6739 76.057 39.7523 75.9943 39.8182C75.9424 39.8721 75.8801 39.9149 75.8112 39.944C75.7423 39.9732 75.6682 39.988 75.5934 39.9878C75.4459 39.9894 75.3014 39.9462 75.1789 39.864Z" fill="#455A64"/>
<path d="M68.1406 31.6287C68.1406 31.6287 68.1137 31.6448 68.0653 31.6852L67.9764 31.7605L67.8688 31.8736C67.6488 32.1254 67.46 32.4028 67.3063 32.6997C67.0877 33.1399 66.8167 33.552 66.499 33.9269C66.3022 34.1347 66.0612 34.2957 65.7939 34.3979C65.5248 34.5055 65.2099 34.5701 64.9004 34.667C64.5897 34.7417 64.2993 34.8841 64.05 35.0841C63.8265 35.2848 63.6619 35.5425 63.5737 35.8296C63.4909 36.0903 63.4697 36.3666 63.5118 36.6369C63.55 36.8684 63.6322 37.0904 63.754 37.2909C63.931 37.5779 64.1747 37.818 64.4645 37.9906C64.5437 38.0348 64.6255 38.0744 64.7094 38.109C64.7386 38.1223 64.7693 38.1322 64.8009 38.1386C64.8009 38.1386 64.6798 38.0848 64.4833 37.961C64.2051 37.7836 63.9727 37.5429 63.8051 37.2586C63.6907 37.0638 63.614 36.8493 63.5791 36.6262C63.5456 36.3703 63.5695 36.1101 63.649 35.8646C63.7331 35.5923 63.8904 35.3483 64.1039 35.1595C64.3404 34.9684 64.616 34.8315 64.9112 34.7585C65.218 34.6697 65.5275 34.6051 65.8127 34.4894C66.1002 34.3849 66.3585 34.2133 66.5663 33.9888C66.8825 33.6063 67.1484 33.1848 67.3575 32.7347C67.5069 32.4392 67.6873 32.1605 67.8957 31.9032L67.998 31.7847L68.0787 31.7067C68.1191 31.6556 68.1433 31.6314 68.1406 31.6287Z" fill="#455A64"/>
<path d="M62.1946 34.9165C62.1339 34.9423 62.0783 34.9788 62.0305 35.0241C61.8939 35.1416 61.7799 35.283 61.6941 35.4413C61.5681 35.6774 61.4955 35.9383 61.4815 36.2056C61.4671 36.5334 61.5278 36.8602 61.6591 37.1609C61.9051 37.6982 62.2794 38.1667 62.749 38.5254C62.9239 38.6653 63.0719 38.7703 63.1769 38.8402C63.2282 38.8802 63.2842 38.9137 63.3438 38.9398C63.3437 38.9398 63.1285 38.7676 62.7921 38.4769C62.3446 38.1138 61.9857 37.6537 61.7425 37.1313C61.6172 36.843 61.5566 36.5306 61.5649 36.2163C61.5743 35.9594 61.6375 35.7072 61.7506 35.4763C61.8628 35.2639 62.0134 35.0741 62.1946 34.9165Z" fill="#455A64"/>
<path d="M69.5082 31.1951C69.5082 31.1951 69.5082 31.2112 69.4866 31.2462C69.4778 31.2988 69.4778 31.3524 69.4866 31.405C69.5195 31.6027 69.6275 31.7801 69.7881 31.9002C70.0281 32.06 70.2901 32.1841 70.5658 32.2689C70.884 32.3959 71.1679 32.596 71.3947 32.8528C71.6232 33.1091 71.7891 33.415 71.8791 33.7463C71.9495 34.0175 71.9705 34.2992 71.941 34.5779C71.9042 34.8354 71.8364 35.0875 71.7392 35.3287C71.7835 35.2726 71.8189 35.2099 71.8441 35.143C71.9231 34.9656 71.9774 34.7781 72.0056 34.5859C72.0419 34.297 72.0227 34.0038 71.9491 33.7221C71.8601 33.3767 71.6902 33.0574 71.4534 32.7907C71.2166 32.5239 70.9198 32.3174 70.5873 32.1881C70.3169 32.1096 70.0581 31.9955 69.8177 31.849C69.7091 31.7799 69.622 31.6818 69.5664 31.5657C69.5107 31.4496 69.4887 31.3203 69.5028 31.1924L69.5082 31.1951Z" fill="#455A64"/>
<path d="M70.6468 43.0275C70.7717 43.0847 70.8795 43.1738 70.9593 43.2857C71.0391 43.3976 71.0882 43.5285 71.1016 43.6653C71.09 43.7657 71.0513 43.8611 70.9897 43.9412C70.9281 44.0213 70.8458 44.0832 70.7517 44.1201C70.6117 44.1809 70.4557 44.1947 70.3072 44.1592C70.1587 44.1238 70.0257 44.0411 69.9282 43.9237C69.8369 43.8017 69.7936 43.6504 69.8065 43.4986C69.8194 43.3468 69.8876 43.205 69.9982 43.1002C70.0569 43.0514 70.125 43.0153 70.1982 42.9939C70.2715 42.9726 70.3484 42.9665 70.4241 42.9761C70.4998 42.9857 70.5727 43.0107 70.6383 43.0497C70.7039 43.0886 70.7608 43.1406 70.8055 43.2024" fill="#EB996E"/>
<path d="M66.6603 31.9319C66.6603 31.9507 66.8999 31.7731 67.3089 31.5766C67.8409 31.3223 68.4203 31.182 69.0097 31.1649C69.6 31.1571 70.1852 31.2745 70.7267 31.5094C71.1438 31.6897 71.3753 31.8565 71.3887 31.8377C71.4022 31.8189 71.343 31.7812 71.238 31.7031C71.0911 31.5945 70.9343 31.4999 70.7698 31.4206C70.222 31.1503 69.6177 31.0147 69.007 31.025C68.3975 31.0402 67.8001 31.1988 67.2632 31.4878C67.1016 31.5748 66.9484 31.6766 66.8057 31.7919C66.7034 31.8727 66.655 31.9238 66.6603 31.9319Z" fill="#177ED7"/>
<path d="M70.3841 42.5712C70.3168 42.6061 70.5698 43.026 70.3841 43.5373C70.1984 44.0486 69.7328 44.2747 69.7651 44.3446C69.7974 44.4146 69.9132 44.3662 70.1042 44.2585C70.3531 44.1147 70.5436 43.888 70.6425 43.618C70.7333 43.359 70.7218 43.075 70.6102 42.8241C70.5187 42.6277 70.411 42.5523 70.3841 42.5712Z" fill="#263238"/>
<path d="M79.6718 46.4017C79.6718 46.4017 78.3451 44.09 78.0921 44.456C77.8391 44.822 71.601 48.8722 72.0208 49.5989C72.4406 50.3255 73.6705 51.0871 73.6705 51.0871L79.6718 46.4017Z" fill="#177ED7"/>
<path d="M55.125 71.8646C53.914 72.1633 51.5484 72.715 50.7949 72.7984C49.2421 72.9707 49.2259 72.8361 49.2394 72.6531C49.2744 72.1633 51.9602 72.2467 51.3923 71.8969C50.8245 71.547 48.0876 72.166 48.1468 71.6627C48.2221 70.998 51.0344 71.1245 51.2712 71.1245C51.5081 71.1245 51.5161 70.7747 51.3008 70.7935C50.9914 70.815 47.7297 70.9873 47.8023 70.3333C47.84 69.97 48.4913 70.0884 48.4913 70.0884C48.4913 70.0884 51.5511 70.153 51.5727 69.8435C51.5942 69.534 49.7992 69.4318 49.191 69.4425C48.5828 69.4533 48.3459 69.1734 48.5666 68.9043C48.7146 68.724 50.5769 68.6513 51.1797 68.654C51.7826 68.6567 53.4296 68.6998 52.6437 68.0243C51.8579 67.3488 51.5108 66.5361 51.5673 66.2481C51.5882 66.1835 51.6287 66.127 51.6831 66.0863C51.7375 66.0457 51.8031 66.0229 51.871 66.0211C51.9389 66.0193 52.0057 66.0387 52.0622 66.0764C52.1186 66.1142 52.162 66.1685 52.1862 66.232C52.364 66.5291 52.5813 66.8007 52.8321 67.0393C53.0286 67.2419 53.2591 67.4086 53.513 67.5318C53.809 67.6771 54.5276 67.9947 54.7482 68.0835" fill="#FFBE9D"/>
<path d="M70.4882 53.4805L66.516 66.2824L54.3546 67.5068L54.5861 72.0818C54.5861 72.0818 68.9139 74.0249 71.0453 71.8908C73.1767 69.7567 76.25 60.7009 76.25 60.7009L70.4882 53.4805Z" fill="#177ED7"/>
<path d="M89.0262 48.3156L98.4453 72.0679L80.4145 77.1677L80.6836 69.5786L70.8716 55.9855C70.5636 55.5599 70.4023 55.0458 70.412 54.5205C70.4217 53.9953 70.6019 53.4875 70.9254 53.0736C72.7446 50.7404 76.7733 46.3026 82.2848 44.4242C83.9937 43.8375 88.1408 44.5103 89.0262 48.3156Z" fill="#177ED7"/>
<path d="M80.2937 70.2768C79.1823 72.3759 80.6651 75.1828 82.557 75.6591C84.4489 76.1355 87.1078 74.3997 87.132 72.0261C87.1697 68.8182 85.8752 67.2573 84.7799 66.9774C83.3913 66.6276 81.4187 68.1669 80.2937 70.2768Z" fill="#263238"/>
<path d="M80.2123 70.4358C80.2123 70.4358 80.2822 70.5139 80.4275 70.635C80.6329 70.8052 80.8486 70.9624 81.0734 71.1059C82.5646 72.0687 84.3069 72.5695 86.0817 72.5457C86.3518 72.5452 86.6215 72.5263 86.889 72.4892C86.9879 72.4847 87.0857 72.4666 87.1797 72.4353C87.1797 72.4111 86.7626 72.4569 86.1032 72.4353C84.3539 72.4059 82.6436 71.9138 81.1461 71.009C80.5621 70.6753 80.2284 70.4143 80.2123 70.4358Z" fill="#FAFAFA"/>
<path d="M81.1334 69.1357C81.162 69.2198 81.2038 69.2989 81.2572 69.3699C81.389 69.5715 81.5444 69.7567 81.7201 69.9216C82.3106 70.4618 83.0326 70.8376 83.8138 71.0115C84.5886 71.1791 85.3831 71.2371 86.174 71.1837C86.4754 71.1676 86.7122 71.146 86.8871 71.1272C86.9787 71.1266 87.0696 71.1111 87.1562 71.0815C86.8318 71.0637 86.5065 71.0637 86.182 71.0815C85.4014 71.1052 84.6207 71.0347 83.8569 70.8715C83.0975 70.7022 82.3908 70.3503 81.7981 69.8462C81.5604 69.625 81.3383 69.3876 81.1334 69.1357Z" fill="#177ED7"/>
<path d="M81.9107 68.1259C81.9107 68.1259 81.9537 68.1878 82.0479 68.282C82.1839 68.4131 82.3296 68.5337 82.4839 68.6426C82.9908 69.0053 83.556 69.2783 84.1551 69.45C84.7563 69.6226 85.3822 69.6927 86.0066 69.6572C86.1946 69.6454 86.3816 69.6212 86.5664 69.5846C86.6956 69.555 86.7682 69.5361 86.7656 69.5254C86.7629 69.5146 86.4722 69.5496 86.0013 69.5576C84.7719 69.5772 83.5651 69.2265 82.5377 68.5511C82.1529 68.3036 81.9322 68.1098 81.9107 68.1259Z" fill="#FAFAFA"/>
<path d="M83.0669 67.4463C83.1897 67.5604 83.3319 67.6515 83.4868 67.7154C83.8448 67.9014 84.2244 68.0424 84.6171 68.1352C85.0092 68.2305 85.4111 68.2793 85.8146 68.2806C85.9823 68.294 86.151 68.2767 86.3125 68.2294C85.7542 68.1849 85.1989 68.1085 84.6494 68.0007C84.1117 67.8464 83.5834 67.6613 83.0669 67.4463Z" fill="#177ED7"/>
<path d="M80.1546 72.3727C80.214 72.4349 80.2819 72.4884 80.3564 72.5315C80.5479 72.6658 80.7464 72.7897 80.9512 72.9028C82.3047 73.6615 83.8241 74.0756 85.3755 74.1085C85.6088 74.1156 85.8424 74.1102 86.0752 74.0923C86.161 74.094 86.2465 74.0813 86.3281 74.0547C86.3281 74.0331 85.9648 74.0547 85.3781 74.0116C83.8511 73.9191 82.3595 73.5123 80.9969 72.8167C80.4748 72.5503 80.168 72.3512 80.1546 72.3727Z" fill="#177ED7"/>
<path d="M80.7373 74.209C80.9024 74.3621 81.0892 74.49 81.2917 74.5884C82.2475 75.1105 83.3281 75.3609 84.4161 75.3124C84.6405 75.3148 84.8638 75.2821 85.0781 75.2155C83.5643 75.3063 82.0566 74.9567 80.7373 74.209Z" fill="#FAFAFA"/>
<path d="M77.4311 70.0152C77.0059 71.7914 78.6502 73.5999 80.1492 73.5999C81.6481 73.5999 83.3005 71.7914 82.8672 70.0152C82.2806 67.6174 81.0184 66.7051 80.1492 66.7051C79.0323 66.7051 77.8671 68.2337 77.4311 70.0152Z" fill="#177ED7"/>
<path opacity="0.3" d="M77.4311 70.0152C77.0059 71.7914 78.6502 73.5999 80.1492 73.5999C81.6481 73.5999 83.3005 71.7914 82.8672 70.0152C82.2806 67.6174 81.0184 66.7051 80.1492 66.7051C79.0323 66.7051 77.8671 68.2337 77.4311 70.0152Z" fill="white"/>
<path d="M78.3813 72.6405C77.913 74.2767 79.3689 76.0206 80.7656 76.0798C82.1624 76.139 83.7636 74.5243 83.4326 72.8504C82.9805 70.6006 81.8448 69.7018 81.0374 69.6668C79.9987 69.6291 78.8468 71.0043 78.3813 72.6405Z" fill="#177ED7"/>
<path d="M78.4255 74.2067C78.459 74.2334 78.4961 74.2552 78.5358 74.2713C78.6499 74.3226 78.7703 74.3588 78.8938 74.379C79.2847 74.4503 79.6881 74.3701 80.022 74.1546C80.356 73.9392 80.5953 73.6047 80.6915 73.2191C80.7917 72.8565 80.7593 72.47 80.6 72.1292C80.5556 72.0298 80.4851 71.9443 80.396 71.8817C80.3069 71.8192 80.2026 71.782 80.094 71.7739C80.0342 71.7717 79.9746 71.7828 79.9197 71.8065C79.8647 71.8303 79.8158 71.866 79.7765 71.9112C79.6979 72.0006 79.654 72.1151 79.6527 72.2341C79.6565 72.3483 79.684 72.4603 79.7336 72.5632C79.7832 72.6661 79.8537 72.7575 79.9406 72.8316C80.1046 72.9901 80.3052 73.1057 80.5246 73.168C80.739 73.2341 80.9665 73.2457 81.1865 73.2015C81.4064 73.1573 81.6119 73.0588 81.7841 72.915C81.945 72.7821 82.0743 72.6152 82.1627 72.4262C82.2512 72.2373 82.2965 72.031 82.2954 71.8224C82.2943 71.6222 82.2174 71.4298 82.0801 71.2841C82.0113 71.2145 81.9249 71.1649 81.8301 71.1407C81.7352 71.1165 81.6356 71.1187 81.5419 71.1469C81.4545 71.1796 81.3795 71.2386 81.3269 71.3157C81.2744 71.3928 81.247 71.4842 81.2485 71.5775C81.249 71.6595 81.266 71.7405 81.2983 71.8159C81.3307 71.8912 81.3778 71.9593 81.4369 72.0161C81.6347 72.2016 81.8926 72.3095 82.1635 72.3202C82.363 72.3293 82.5618 72.2925 82.7448 72.2126C82.8604 72.1639 82.9662 72.0946 83.057 72.0081C83.1189 71.9489 83.1431 71.9139 83.1404 71.9112C83.0144 72.0145 82.8738 72.0988 82.7233 72.1615C82.5467 72.229 82.3574 72.2566 82.1689 72.2422C81.9209 72.2251 81.6871 72.1202 81.5096 71.9462C81.4605 71.8989 81.4218 71.842 81.3958 71.779C81.3699 71.716 81.3573 71.6483 81.3589 71.5802C81.3576 71.5105 81.3778 71.442 81.4168 71.3843C81.4559 71.3265 81.5117 71.2821 81.5769 71.2572C81.6506 71.2382 81.7281 71.2386 81.8017 71.2585C81.8752 71.2783 81.9424 71.3168 81.9967 71.3703C82.11 71.4976 82.1715 71.6627 82.1689 71.8331C82.1681 72.0213 82.1257 72.2069 82.0448 72.3767C81.9638 72.5465 81.8463 72.6963 81.7007 72.8154C81.5443 72.9432 81.3589 73.0304 81.1608 73.0694C80.9627 73.1084 80.758 73.0978 80.565 73.0388C80.368 72.9829 80.1878 72.8793 80.0402 72.7374C79.9677 72.6763 79.9084 72.6012 79.8659 72.5165C79.8233 72.4319 79.7984 72.3395 79.7926 72.2449C79.7904 72.2033 79.7965 72.1617 79.8105 72.1225C79.8246 72.0833 79.8462 72.0473 79.8742 72.0165C79.9023 71.9857 79.9361 71.9608 79.9739 71.9432C80.0116 71.9255 80.0524 71.9156 80.094 71.9139C80.179 71.9207 80.2606 71.9507 80.3298 72.0005C80.3991 72.0503 80.4534 72.118 80.4869 72.1964C80.6358 72.5085 80.6691 72.8632 80.5811 73.1976C80.5097 73.4916 80.3523 73.7576 80.129 73.9618C79.9618 74.1051 79.7665 74.2119 79.5557 74.2754C79.3448 74.3389 79.123 74.3577 78.9045 74.3305C78.7415 74.3037 78.5812 74.2622 78.4255 74.2067Z" fill="#FAFAFA"/>
<path d="M80.2887 76.0452C80.3695 75.7334 80.5113 75.4407 80.7058 75.184C80.9233 74.917 81.2143 74.7196 81.5428 74.6162C81.6301 74.5834 81.7237 74.5702 81.8167 74.5776C81.9097 74.5851 81.9999 74.6129 82.081 74.6592C82.2371 74.7642 82.307 75.0091 82.151 75.1275C82.1138 75.1578 82.0705 75.1798 82.024 75.1918C81.9776 75.2039 81.9291 75.2058 81.8818 75.1975C81.7897 75.1786 81.7086 75.1245 81.6558 75.0468C81.6023 74.9685 81.5703 74.8776 81.5633 74.7831C81.5562 74.6886 81.5742 74.5938 81.6154 74.5085C81.6853 74.3553 81.7913 74.2213 81.9245 74.1182C82.0576 74.015 82.2139 73.9458 82.3797 73.9165C82.6083 73.8758 82.8439 73.9087 83.0525 74.0107C83.2032 74.0806 83.2732 74.1452 83.2812 74.1345C83.2294 74.0611 83.16 74.0019 83.0794 73.9622C82.8647 73.8328 82.6115 73.7823 82.3636 73.8196C82.1773 73.8448 82.0003 73.9164 81.8489 74.0279C81.6974 74.1393 81.5765 74.287 81.497 74.4574C81.4459 74.5626 81.4234 74.6795 81.4319 74.7963C81.4404 74.913 81.4796 75.0254 81.5454 75.1221C81.6181 75.2296 81.7303 75.3041 81.8576 75.3293C81.9243 75.3406 81.9926 75.3376 82.0581 75.3204C82.1235 75.3033 82.1845 75.2723 82.2371 75.2298C82.2905 75.1849 82.3307 75.1265 82.3534 75.0606C82.3762 74.9947 82.3806 74.9239 82.3663 74.8557C82.3375 74.7292 82.2627 74.6179 82.1563 74.5435C82.0578 74.4837 81.9468 74.4475 81.8319 74.4377C81.7171 74.4279 81.6016 74.4448 81.4943 74.487C81.1437 74.6023 80.8366 74.822 80.6143 75.1167C80.4651 75.3121 80.3587 75.5368 80.3021 75.7761C80.2803 75.8641 80.2757 75.9554 80.2887 76.0452Z" fill="#FAFAFA"/>
<path d="M79.779 70.256C79.779 70.2694 79.8651 70.3582 80.0481 70.4336C80.2999 70.5316 80.5748 70.554 80.8391 70.4981C81.1035 70.4421 81.3458 70.3103 81.5363 70.1187C81.6816 69.9734 81.7301 69.8496 81.7166 69.8496C81.7031 69.8496 81.6197 69.9304 81.4717 70.0488C81.2797 70.2045 81.0534 70.3124 80.8114 70.3634C80.5695 70.4144 80.3189 70.4071 80.0804 70.3421C79.9001 70.2937 79.7897 70.2371 79.779 70.256Z" fill="#FAFAFA"/>
<g opacity="0.2">
<path d="M81.435 75.9181C81.6306 75.8165 81.8043 75.6776 81.9463 75.509C82.0156 75.4233 82.0597 75.32 82.0735 75.2106C82.0873 75.1013 82.0702 74.9903 82.0244 74.8901C81.9676 74.8097 81.8943 74.7424 81.8093 74.6927C81.7244 74.643 81.6298 74.6121 81.5319 74.6021C81.3365 74.5857 81.1423 74.5569 80.9506 74.516C80.7688 74.4486 80.6023 74.3459 80.4604 74.2138C80.3186 74.0817 80.2044 73.9228 80.1244 73.7463C79.9414 73.4045 79.8284 73.0278 79.6481 72.686C79.6098 72.5869 79.5482 72.4986 79.4686 72.4283C79.389 72.358 79.2936 72.308 79.1906 72.2823C78.9026 72.2527 78.6954 72.5514 78.6093 72.8205C78.4838 73.2474 78.4753 73.7001 78.5847 74.1314C78.694 74.5627 78.9172 74.9567 79.2309 75.2722C79.866 75.8912 80.5953 76.1899 81.435 75.9073" fill="black"/>
</g>
<path d="M74.7142 67.6102C76.485 65.2689 78.5249 62.9949 79.3107 60.1638C79.9297 57.9355 79.7063 55.5888 79.6337 53.2636C79.561 50.9384 79.6848 48.5191 80.8797 46.5357C82.0745 44.5523 84.2248 43.8042 86.8433 44.8429C87.7145 45.2741 88.3945 46.0136 88.7513 46.9178C90.7105 52.4886 91.3053 56.8213 91.6632 62.7177C91.8516 65.8206 91.7789 68.9747 90.985 71.9834C90.1911 74.9921 88.6383 77.8555 86.2378 79.8443C83.8373 81.8331 80.5433 82.818 77.5211 82.0833C74.4989 81.3487 71.9181 78.7275 71.6005 75.6245C71.3206 72.71 72.9407 69.9516 74.7142 67.6102ZM77.5292 69.7632C77.7983 70.8558 78.6998 71.6766 79.6821 72.2364C80.9819 72.9845 82.5267 73.3989 83.988 73.1083C85.783 72.7504 87.2577 71.3779 88.1162 69.7578C88.9747 68.1377 89.2896 66.2916 89.4618 64.467C89.922 59.561 89.4161 54.5473 88.8617 49.6494L82.9088 59.0981C81.4045 61.722 79.3699 64.0364 78.0835 66.7733C77.6449 67.7206 77.2897 68.7674 77.5292 69.782V69.7632Z" fill="#455A64"/>
<path d="M81.9629 78.0761C82.026 78.0893 82.091 78.0893 82.154 78.0761C82.3298 78.0667 82.504 78.0378 82.6734 77.99C83.2394 77.837 83.7437 77.5114 84.116 77.0585C84.4884 76.6056 84.7103 76.0479 84.751 75.463C84.7644 75.2879 84.758 75.1119 84.7322 74.9382C84.7133 74.8171 84.6945 74.7498 84.6837 74.7525C84.673 74.7552 84.7052 75.0216 84.6514 75.4522C84.5878 76.0097 84.3644 76.5368 84.0083 76.9703C83.6521 77.4038 83.1783 77.7252 82.6438 77.8958C82.2348 78.0411 81.9603 78.0492 81.9629 78.0761Z" fill="#263238"/>
<path d="M75.9113 76.7044C75.9382 76.7044 75.949 76.4595 76.0836 76.0935C76.2502 75.6161 76.5531 75.1979 76.9549 74.8908C77.3567 74.5838 77.8397 74.4012 78.3441 74.3658C78.7317 74.3362 78.9739 74.3873 78.9766 74.3658C78.7747 74.2831 78.556 74.2498 78.3388 74.2689C77.8074 74.2833 77.2938 74.463 76.8694 74.7829C76.4486 75.1067 76.1407 75.555 75.9894 76.0639C75.9145 76.2686 75.8878 76.4877 75.9113 76.7044Z" fill="#263238"/>
<path d="M73.4849 73.0672C73.5065 73.0807 73.6249 72.8142 73.9236 72.4698C74.3108 72.0147 74.8243 71.6846 75.3991 71.5212C75.9739 71.3579 76.5843 71.3686 77.153 71.5521C77.589 71.6839 77.8285 71.8481 77.8419 71.8212C77.8554 71.7943 77.7935 71.7647 77.6831 71.6947C77.5259 71.5955 77.358 71.5143 77.1826 71.4525C76.5994 71.2381 75.9632 71.2146 75.3658 71.3853C74.7684 71.5561 74.2407 71.9123 73.859 72.4025C73.7437 72.5474 73.6445 72.7044 73.563 72.8707C73.4957 72.9945 73.4769 73.0645 73.4849 73.0672Z" fill="#263238"/>
<path d="M78.1431 55.8966C78.1727 55.9208 78.3907 55.7136 78.6302 55.4337C78.8697 55.1538 79.0419 54.8955 79.0123 54.8793C78.9827 54.8632 78.7647 55.0623 78.5252 55.3422C78.2857 55.6221 78.1108 55.8724 78.1431 55.8966Z" fill="white"/>
<path d="M77.5859 54.4444C77.5527 54.1976 77.4968 53.9544 77.4191 53.7178C77.3866 53.4714 77.3326 53.2282 77.2576 52.9912C77.1763 53.4998 77.2939 54.0202 77.5859 54.4444Z" fill="white"/>
<path d="M75.8562 55.186C75.8831 55.1591 75.7378 54.9573 75.5305 54.7339C75.3233 54.5105 75.1296 54.3491 75.0999 54.376C75.0703 54.4029 75.2184 54.6047 75.4256 54.8281C75.6328 55.0515 75.8266 55.2102 75.8562 55.186Z" fill="white"/>
<path d="M77.8924 50.1348C77.9854 50.3841 78.0988 50.6253 78.2315 50.856C78.3216 51.106 78.4323 51.3482 78.5625 51.5799C78.5204 51.0332 78.2825 50.5201 77.8924 50.1348Z" fill="white"/>
<path d="M79.0331 48.878C79.1827 48.6463 79.2911 48.3905 79.3534 48.1218C79.4612 47.8653 79.524 47.5922 79.5391 47.3145C79.3904 47.5463 79.2829 47.8022 79.2215 48.0707C79.1151 48.3277 79.0514 48.6004 79.0331 48.878Z" fill="white"/>
<path d="M75.6483 50.3891C76.0901 50.0827 76.4738 49.6999 76.7812 49.2588C76.341 49.5672 75.9577 49.9496 75.6483 50.3891Z" fill="white"/>
<path d="M73.005 52.1466C73.3238 52.2166 73.6512 52.2384 73.9765 52.2112C74.3014 52.232 74.6275 52.2066 74.9453 52.1359C74.3019 52.0426 73.6484 52.0426 73.005 52.1359V52.1466Z" fill="white"/>
<path d="M73.3734 54.3349C73.3977 54.3026 73.1366 54.0658 72.7921 53.8263C72.5959 53.6545 72.3696 53.5204 72.1247 53.4307C72.2889 53.6324 72.4864 53.8044 72.7087 53.9393C72.9046 54.1102 73.1298 54.2442 73.3734 54.3349Z" fill="white"/>
<path d="M74.0294 48.4484C73.9998 48.4753 74.1209 48.6636 74.2985 48.8709C74.4761 49.0781 74.6456 49.2288 74.6752 49.2046C74.7048 49.1804 74.5837 48.9893 74.4061 48.7821C74.2285 48.5748 74.059 48.4241 74.0294 48.4484Z" fill="white"/>
<path d="M76.5214 47.2685C76.5537 47.2901 76.7286 47.0936 76.9116 46.8299C77.0946 46.5661 77.2184 46.3347 77.1807 46.3132C77.1431 46.2916 76.9735 46.4854 76.7905 46.7491C76.6075 47.0129 76.481 47.247 76.5214 47.2685Z" fill="white"/>
<path d="M73.083 66.4951C73.0967 66.2532 73.0628 66.0109 72.9834 65.7819C72.9482 65.5412 72.8679 65.3093 72.7466 65.0984C72.7346 65.3411 72.7684 65.584 72.8462 65.8142C72.8811 66.0542 72.9615 66.2853 73.083 66.4951Z" fill="white"/>
<path d="M69.9249 64.0247C70.1302 64.0483 70.3381 64.0253 70.5331 63.9574C70.8615 63.882 71.1198 63.7932 71.1091 63.7556C70.6986 63.7506 70.2929 63.8428 69.9249 64.0247Z" fill="white"/>
<path d="M68.8906 64.1738C68.8685 63.7252 68.753 63.2862 68.5515 62.8848C68.5393 63.1099 68.5732 63.3352 68.6511 63.5468C68.6861 63.7703 68.7677 63.9839 68.8906 64.1738Z" fill="white"/>
<path d="M70.4542 67.4006C70.6666 67.3071 70.8579 67.1716 71.0166 67.0023C71.3046 66.7547 71.5145 66.5286 71.4903 66.499C71.2772 66.5928 71.0851 66.7282 70.9251 66.8973C70.6399 67.1449 70.4273 67.3629 70.4542 67.4006Z" fill="white"/>
<path d="M68.6497 67.2052C68.7066 66.9572 68.6992 66.6987 68.6281 66.4543C68.6009 66.2008 68.5082 65.9588 68.359 65.752C68.4327 66.2403 68.5278 66.7252 68.6443 67.2052H68.6497Z" fill="white"/>
<path d="M69.7653 70.3768C70.0427 70.2778 70.3025 70.1352 70.5349 69.9542C70.7929 69.8132 71.0264 69.6314 71.2266 69.416C70.9491 69.515 70.6893 69.6576 70.4569 69.8385C70.1996 69.9807 69.9662 70.1623 69.7653 70.3768Z" fill="white"/>
<path d="M66.2119 69.1963C66.3577 69.414 66.5397 69.6052 66.7501 69.7614C66.9349 69.9513 67.1517 70.1071 67.3906 70.2216C67.058 69.8131 66.6563 69.4661 66.2038 69.1963H66.2119Z" fill="white"/>
<path d="M64.7003 67.6462C65.0167 67.7261 65.3432 67.7587 65.6691 67.7431C65.9933 67.7754 66.3205 67.7609 66.6406 67.7C65.9998 67.5889 65.3463 67.5708 64.7003 67.6462Z" fill="white"/>
<path d="M65.3434 71.9219C65.6407 71.9299 65.9381 71.92 66.2342 71.8923C66.5309 71.9074 66.8282 71.9074 67.125 71.8923C66.8448 71.7672 66.5371 71.7162 66.2315 71.7443C65.9252 71.7278 65.6198 71.7889 65.3434 71.9219Z" fill="white"/>
<path d="M64.6016 70.3772C64.5686 70.1553 64.4898 69.9427 64.3701 69.7529C64.2901 69.5431 64.1683 69.3518 64.0122 69.1904C64.0446 69.4125 64.1235 69.6253 64.2436 69.8148C64.3246 70.0241 64.4463 70.2152 64.6016 70.3772Z" fill="white"/>
<path d="M61.4166 71.3519C61.6233 71.1438 61.8124 70.9187 61.9817 70.6791C62.1879 70.4704 62.3769 70.2455 62.5469 70.0063C62.0372 70.3239 61.6414 70.7951 61.4166 71.3519Z" fill="white"/>
<path d="M60.2881 67.969C60.6048 67.9655 60.9208 67.9358 61.2327 67.8802C61.5483 67.8698 61.8625 67.8329 62.1719 67.7698C61.8588 67.695 61.5337 67.6849 61.2165 67.7402C60.8945 67.7516 60.5784 67.8294 60.2881 67.969Z" fill="white"/>
<path d="M58.1397 68.2158C58.3759 68.516 58.6469 68.787 58.9471 69.0232C59.222 69.2914 59.5283 69.5254 59.8594 69.7202C59.6193 69.419 59.3437 69.1479 59.0386 68.9128C58.7682 68.6451 58.4664 68.411 58.1397 68.2158Z" fill="white"/>
<path d="M57.9538 71.1917C58.1657 71.0691 58.3649 70.9257 58.5486 70.7638C58.7587 70.6377 58.9568 70.4927 59.1406 70.3306C58.8904 70.3709 58.6569 70.482 58.4678 70.6508C58.1395 70.893 57.9377 71.1675 57.9538 71.1917Z" fill="white"/>
<path d="M56.1301 68.6631C56.2023 68.91 56.3191 69.1417 56.4746 69.3466C56.5911 69.5763 56.7479 69.7832 56.9375 69.9575C56.7492 69.4806 56.4756 69.042 56.1301 68.6631Z" fill="white"/>
<path d="M55.4305 70.5916C55.4063 70.6212 55.4682 70.7181 55.5731 70.8069C55.6781 70.8957 55.783 70.9442 55.8073 70.9146C55.8315 70.885 55.7696 70.7881 55.6646 70.6993C55.5597 70.6105 55.4547 70.5701 55.4305 70.5916Z" fill="white"/>
<path d="M94.8842 69.8949C95.0909 69.6966 95.239 69.4452 95.3121 69.1682C95.4265 68.906 95.4684 68.6179 95.4332 68.334C95.3344 68.592 95.25 68.8552 95.1803 69.1225C95.067 69.3741 94.9682 69.632 94.8842 69.8949Z" fill="white"/>
<path d="M96.0693 71.5109C96.2983 71.3555 96.4986 71.1615 96.6613 70.9377C96.8599 70.745 97.0246 70.5203 97.1484 70.2729C96.9194 70.4283 96.7191 70.6223 96.5564 70.8462C96.3578 71.0388 96.1932 71.2635 96.0693 71.5109Z" fill="white"/>
<path d="M92.3711 70.6519C92.276 71.0953 92.276 71.5539 92.3711 71.9974C92.4374 71.7798 92.4593 71.551 92.4357 71.3246C92.4602 71.0983 92.4382 70.8694 92.3711 70.6519Z" fill="white"/>
<path d="M92.9974 65.8042C92.9678 65.8311 93.2665 66.2159 93.5868 66.7327C93.907 67.2494 94.0954 67.7015 94.125 67.688C94.0539 67.3198 93.9083 66.9699 93.6971 66.66C93.5274 66.3282 93.2889 66.0364 92.9974 65.8042Z" fill="white"/>
<path d="M93.408 63.0879C93.4834 63.3542 93.6026 63.6061 93.7605 63.8333C93.8772 64.0848 94.0376 64.3135 94.2342 64.5088C94.1587 64.2425 94.0396 63.9906 93.8816 63.7634C93.7639 63.5126 93.6036 63.2841 93.408 63.0879Z" fill="white"/>
<path d="M87.9523 66.9931C88.0743 66.7433 88.1543 66.4751 88.1891 66.1992C88.267 65.9329 88.2997 65.6555 88.286 65.3784C88.0853 65.8942 87.9725 66.44 87.9523 66.9931Z" fill="white"/>
<path d="M87.4908 64.2748C87.7184 64.2548 87.9398 64.1899 88.1421 64.0837C88.3622 64.0184 88.5664 63.9085 88.7422 63.7607C88.5147 63.781 88.2934 63.846 88.0909 63.9518C87.8708 64.0171 87.6665 64.127 87.4908 64.2748Z" fill="white"/>
<path d="M85.4036 66.4214C85.6132 66.4814 85.829 66.5175 86.0467 66.529C86.2589 66.5834 86.4764 66.6141 86.6953 66.6205C86.5143 66.4821 86.2958 66.4014 86.0683 66.3891C85.8485 66.3324 85.6168 66.3437 85.4036 66.4214Z" fill="white"/>
<path d="M92.0257 68.7676C92.0015 68.7972 92.2195 68.9829 92.5639 69.0367C92.6632 69.0669 92.7675 69.0768 92.8706 69.0657C92.9737 69.0546 93.0735 69.0227 93.1641 68.9721C92.9745 68.9369 92.7832 68.9126 92.5908 68.8994C92.4049 68.8457 92.2162 68.8017 92.0257 68.7676Z" fill="white"/>
<path d="M93.7868 73.182C93.8245 73.182 93.916 72.9963 93.9914 72.7434C94.0667 72.4904 94.099 72.2778 94.064 72.267C94.029 72.2563 93.9348 72.45 93.8568 72.703C93.7788 72.956 93.7438 73.1686 93.7868 73.182Z" fill="white"/>
<path d="M91.97 59.5586C91.9483 59.781 91.973 60.0055 92.0426 60.2179C92.0663 60.4402 92.1369 60.6548 92.2498 60.8477C92.2543 60.4036 92.1624 59.9638 91.9807 59.5586H91.97Z" fill="white"/>
<g opacity="0.2">
<path d="M74.923 64.3231C74.387 64.5156 73.8178 64.5989 73.2491 64.568C72.1115 64.5607 70.9876 64.3198 69.947 63.8602C68.9378 63.3785 67.9071 62.3451 68.0471 61.2363C68.0471 61.2363 72.7432 63.0798 74.9688 64.272" fill="black"/>
</g>
<g opacity="0.2">
<path d="M88.9015 52.1841C89.0092 54.6788 89.943 61.256 88.7535 63.4493C88.2692 64.3431 87.5946 65.1196 86.7772 65.7241C85.9599 66.3285 85.0198 66.7461 84.0234 66.9473C83.0269 67.1486 81.9984 67.1285 81.0106 66.8887C80.0227 66.6488 79.0996 66.195 78.3064 65.5592C79.2638 65.8592 80.2452 66.0762 81.2398 66.2078C82.2421 66.3398 83.2614 66.2119 84.2001 65.8364C84.808 65.5505 85.3696 65.175 85.8659 64.7222C86.6439 64.0754 87.3095 63.3043 87.8358 62.4401C88.6809 60.995 88.9688 59.2942 89.0603 57.6229C89.1518 55.9517 88.9554 53.8822 88.9096 52.1841" fill="black"/>
</g>
<path d="M56.8545 51.7609L57.8828 50.9014L62.0646 55.9046L61.0363 56.7641L56.8545 51.7609Z" fill="#263238"/>
<path d="M53.3002 51.068C52.0047 49.3625 52.0464 47.1505 53.3933 46.1274C54.7402 45.1043 56.8822 45.6576 58.1777 47.3631C59.4732 49.0686 59.4316 51.2805 58.0847 52.3036C56.7378 53.3267 54.5957 52.7735 53.3002 51.068Z" fill="#263238"/>
<path d="M52.8988 51.435C51.6033 49.7295 51.6229 47.5343 52.9426 46.5319C54.2622 45.5295 56.3822 46.0994 57.6777 47.805C58.9732 49.5105 58.9536 51.7057 57.634 52.7081C56.3143 53.7105 54.1943 53.1405 52.8988 51.435Z" fill="#455A64"/>
<path d="M53.2974 51.1306C52.1151 49.5742 52.1326 47.5713 53.3362 46.657C54.5399 45.7427 56.4741 46.2632 57.6563 47.8196C58.8385 49.376 58.8211 51.3789 57.6174 52.2932C56.4137 53.2075 54.4796 52.687 53.2974 51.1306Z" fill="#E0E0E0"/>
<path d="M63.4956 58.2345L62.185 58.4202C60.9793 58.4848 60.3012 58.5683 59.9325 58.3045C59.4239 57.9466 59.9702 57.438 59.9702 57.438C59.9702 57.438 59.0632 57.2765 59.0659 56.7383C59.0659 56.3723 59.4669 56.27 59.4669 56.27C59.4669 56.27 58.6596 56.0897 58.4631 55.7963C58.194 55.3981 58.6945 55.0859 58.6945 55.0859C57.5616 54.6068 57.5589 53.961 57.7876 53.8614C58.0164 53.7618 58.8829 54.0094 58.8829 54.0094C59.5934 54.1009 61.5391 54.3835 60.6941 53.4712C59.8491 52.5589 59.545 51.5255 59.6553 51.1918C59.6887 51.1177 59.7443 51.056 59.8145 51.015C59.8846 50.9741 59.9658 50.9561 60.0466 50.9635C60.1275 50.9709 60.204 51.0034 60.2656 51.0564C60.3271 51.1093 60.3706 51.1802 60.39 51.259C60.5595 51.6469 60.7823 52.0092 61.052 52.3355C61.258 52.6053 61.5082 52.8383 61.7921 53.0244C62.1231 53.2397 62.4137 53.4093 62.664 53.5465L64.4375 54.5423L63.4956 58.2345Z" fill="#FFBE9D"/>
<path d="M84.7347 44.9217C85.2638 44.9216 85.7877 45.0262 86.2763 45.2293C86.7648 45.4325 87.2084 45.7302 87.5815 46.1053C87.9547 46.4804 88.25 46.9256 88.4505 47.4152C88.651 47.9049 88.7528 48.4293 88.7499 48.9584V58.9157C88.7499 61.432 87.2617 64.6856 85.0173 65.8213C84.1495 66.2599 83.1967 66.5044 82.225 66.5379C81.2533 66.5713 80.2859 66.3929 79.3901 66.015L62.7048 58.9776L64.4864 52.9979L80.9025 57.9012C80.9025 57.9012 80.7868 52.9144 80.733 48.9773C80.7255 48.4454 80.8238 47.9173 81.0223 47.4237C81.2207 46.9302 81.5153 46.481 81.889 46.1024C82.2626 45.7238 82.7078 45.4232 83.1986 45.2182C83.6895 45.0132 84.2162 44.9078 84.7482 44.9082L84.7347 44.9217Z" fill="#177ED7"/>
<path d="M64.4775 53.0105L64.5421 53.0375L64.7359 53.1074L65.4921 53.3658L68.2425 54.2566C70.5676 54.9966 73.7917 55.9951 77.3736 57.015C78.5954 57.3622 79.7795 57.6878 80.8721 57.9838L80.9609 58.0081V57.9192C80.9098 55.0774 80.8667 52.6176 80.8345 50.8576C80.8129 49.9884 80.7968 49.294 80.7833 48.8043C80.7833 48.5728 80.7699 48.3925 80.7645 48.266C80.7685 48.2033 80.7685 48.1404 80.7645 48.0776C80.7574 48.1411 80.7574 48.2052 80.7645 48.2687C80.7645 48.4033 80.7645 48.5863 80.7645 48.8069C80.7645 49.2967 80.7645 49.9911 80.7645 50.8576C80.7833 52.6203 80.8102 55.0801 80.8425 57.9192L80.926 57.8547C79.828 57.5559 78.6438 57.2276 77.4274 56.8778C73.8455 55.8605 70.6188 54.8782 68.2775 54.1624L65.4921 53.3066L64.7386 53.0805L64.5421 53.024C64.5212 53.0169 64.4995 53.0124 64.4775 53.0105Z" fill="#263238"/>
<path d="M62.9228 58.9555C62.9527 58.9744 62.9842 58.9906 63.017 59.004L63.3049 59.1358L64.411 59.6364L68.5231 61.4395L74.6186 64.1091C75.7704 64.6016 76.9626 65.1533 78.2328 65.6566C78.8802 65.9136 79.5447 66.1249 80.2216 66.289C80.9211 66.4619 81.6409 66.538 82.3611 66.515C83.0851 66.49 83.7977 66.3265 84.4602 66.0333C85.1025 65.7491 85.6935 65.3608 86.2095 64.8842C87.1674 63.973 87.9039 62.8545 88.3624 61.6144C88.585 61.0406 88.7394 60.4427 88.8226 59.8329C88.8603 59.5368 88.8979 59.2462 88.9141 58.9582C88.9302 58.6703 88.9571 58.3877 88.9679 58.1078C89.0163 56.9937 89.0217 55.9549 89.011 55.0076C88.9894 53.1238 88.9168 51.5817 88.863 50.5214C88.8307 49.9993 88.8064 49.5903 88.7903 49.305C88.7903 49.1704 88.7715 49.0655 88.7661 48.9874C88.7607 48.9094 88.7526 48.8798 88.7526 48.8825C88.7496 48.9183 88.7496 48.9543 88.7526 48.9901C88.7526 49.0682 88.7526 49.1731 88.7526 49.3077C88.7526 49.593 88.7795 50.002 88.8011 50.5241C88.8387 51.5844 88.8952 53.1157 88.9033 55.0076C88.9033 55.9549 88.9033 56.991 88.8441 58.1024C88.7849 59.2139 88.7069 60.4088 88.2332 61.5687C87.7727 62.796 87.0361 63.9009 86.0803 64.7981C85.5759 65.2645 84.9986 65.6454 84.3714 65.9257C83.7247 66.2106 83.0296 66.3695 82.3234 66.3939C81.6159 66.4161 80.9087 66.341 80.2216 66.1706C79.5508 66.01 78.8925 65.8014 78.2517 65.5462C76.9868 65.0483 75.7893 64.4994 74.6401 64.0096L68.5312 61.3695L64.4083 59.5987L63.2861 59.1251L62.9927 59.004C62.9709 58.9857 62.9475 58.9695 62.9228 58.9555Z" fill="#263238"/>
<path d="M86.3817 52.4976C86.414 52.5191 86.6105 52.2688 86.8204 51.9432C86.9663 51.7557 87.075 51.5419 87.1406 51.3135C86.9607 51.4689 86.8119 51.657 86.702 51.8679C86.5535 52.0538 86.4445 52.2681 86.3817 52.4976Z" fill="white"/>
<path d="M83.0394 51.5166C83.1356 51.9967 83.3238 52.4537 83.5938 52.8622C83.4976 52.3821 83.3093 51.9251 83.0394 51.5166Z" fill="white"/>
<path d="M84.7963 49.3014C84.8286 49.3256 85.0224 49.1157 85.235 48.8332C85.4476 48.5506 85.5902 48.2949 85.5579 48.2949C85.5256 48.2949 85.3319 48.4806 85.122 48.7605C84.9774 48.9165 84.8666 49.1006 84.7963 49.3014Z" fill="white"/>
<path d="M82.6449 47.5882C82.8497 47.6588 83.068 47.6809 83.2828 47.6529C83.4976 47.6249 83.703 47.5475 83.8828 47.4268C83.6752 47.4362 83.4688 47.4651 83.2665 47.5129C83.0574 47.5177 82.8491 47.5429 82.6449 47.5882Z" fill="white"/>
<path d="M85.2911 56.0558C85.3712 55.7211 85.4047 55.377 85.3906 55.0331C85.4213 54.691 85.4068 54.3462 85.3476 54.0078C85.2674 54.3425 85.2339 54.6866 85.248 55.0305C85.2174 55.3726 85.2319 55.7174 85.2911 56.0558Z" fill="white"/>
<path d="M86.9843 56.5733C87.1643 56.3686 87.3081 56.1347 87.4095 55.8817C87.5524 55.6506 87.6543 55.3966 87.7109 55.1309C87.5298 55.3337 87.3858 55.567 87.2857 55.8198C87.1421 56.0515 87.0401 56.3065 86.9843 56.5733Z" fill="white"/>
<path d="M82.2199 55.0215C82.3406 55.3327 82.5046 55.6253 82.707 55.8907C82.872 56.1807 83.0757 56.4469 83.3125 56.6819C83.0292 56.0793 82.6613 55.5202 82.2199 55.0215Z" fill="white"/>
<path d="M83.9419 58.9968C84.324 58.967 84.7009 58.8902 85.0642 58.7681C85.4366 58.692 85.7982 58.57 86.1406 58.4048C85.3829 58.5119 84.6409 58.7107 83.9312 58.9968H83.9419Z" fill="white"/>
<path d="M85.0256 61.0005C85.1922 61.2517 85.3954 61.4767 85.6284 61.6679C85.8315 61.8908 86.0675 62.0814 86.3281 62.233C86.1621 61.9814 85.9589 61.7563 85.7253 61.5656C85.5216 61.3433 85.2858 61.1528 85.0256 61.0005Z" fill="white"/>
<path d="M83.3211 64.404C83.3782 64.1197 83.39 63.8281 83.3561 63.5401C83.3672 63.2502 83.3317 62.9604 83.2512 62.6816C83.1909 62.9656 83.1791 63.2576 83.2162 63.5455C83.2051 63.8354 83.2406 64.1253 83.3211 64.404Z" fill="white"/>
<path d="M80.8567 61.0456C81.1485 60.9096 81.4202 60.7339 81.664 60.5235C81.9357 60.3492 82.1804 60.1361 82.3906 59.8911C82.0976 60.025 81.8256 60.2009 81.5833 60.4132C81.3111 60.5869 81.0663 60.8 80.8567 61.0456Z" fill="white"/>
<path d="M78.2784 62.7393C78.7161 63.1483 79.1761 63.5328 79.6562 63.8911C79.5006 63.6289 79.2915 63.4025 79.0427 63.2264C78.8239 63.0135 78.5637 62.8477 78.2784 62.7393Z" fill="white"/>
<path d="M79.4206 60.5742C79.5073 60.314 79.5492 60.041 79.5444 59.7668C79.5837 59.4987 79.5783 59.2258 79.5283 58.9595C79.4402 59.2193 79.3983 59.4925 79.4045 59.7668C79.3647 60.0349 79.3701 60.3079 79.4206 60.5742Z" fill="white"/>
<path d="M76.3959 59.6622C76.6428 59.4878 76.88 59.3 77.1064 59.0998C77.3622 58.9346 77.6085 58.7549 77.8438 58.5615C77.2497 58.7392 76.7371 59.1203 76.3959 59.638V59.6622Z" fill="white"/>
<path d="M73.7558 61.6504C74.0699 61.7805 74.4005 61.8665 74.7381 61.906C75.0684 61.9921 75.4088 62.0328 75.75 62.0272C75.4353 61.8934 75.104 61.8029 74.765 61.758C74.4353 61.6755 74.0956 61.6393 73.7558 61.6504Z" fill="white"/>
<path d="M72.6239 58.5259C72.8742 58.7369 73.1376 58.932 73.4124 59.1099C73.6596 59.3248 73.9183 59.5261 74.1875 59.7127C73.8009 59.1655 73.2548 58.7511 72.6239 58.5259Z" fill="white"/>
<path d="M73.0509 57.0715C73.8241 57.279 74.6331 57.3157 75.4219 57.1791C75.029 57.1315 74.6335 57.1099 74.2378 57.1145C73.8435 57.0739 73.4471 57.0595 73.0509 57.0715Z" fill="white"/>
<path d="M69.4477 59.0176C69.6108 59.2786 69.8122 59.5136 70.0452 59.7146C70.2455 59.9483 70.4806 60.1498 70.7422 60.312C70.5781 60.0518 70.3768 59.8169 70.1447 59.615C69.9437 59.382 69.7087 59.1806 69.4477 59.0176Z" fill="white"/>
<path d="M69.6578 57.502C69.9827 57.3432 70.2865 57.1443 70.562 56.9099C70.8636 56.7106 71.1393 56.4747 71.3828 56.2075C70.7521 56.5593 70.1718 56.9947 69.6578 57.502Z" fill="white"/>
<path d="M66.5501 54.5293C66.6594 54.8556 66.8114 55.166 67.0022 55.4524C67.1549 55.7613 67.3487 56.0483 67.5781 56.3055C67.4685 55.9788 67.3156 55.6683 67.1233 55.3824C66.9721 55.0732 66.7792 54.7861 66.5501 54.5293Z" fill="white"/>
<path d="M64.4295 58.4823C64.8356 58.4664 65.2402 58.4232 65.6405 58.3531C66.047 58.3298 66.4515 58.2804 66.8516 58.2051C66.4462 58.138 66.0325 58.138 65.6271 58.2051C65.2157 58.2329 64.8113 58.3265 64.4295 58.4823Z" fill="white"/>
<path d="M64.8871 57.6135C65.0329 57.1253 65.0886 56.6146 65.0512 56.1064C64.9537 56.3431 64.9016 56.596 64.8978 56.8519C64.8494 57.1031 64.8457 57.361 64.8871 57.6135Z" fill="white"/>
<path d="M86.5253 46.0781C86.6865 46.4094 86.888 46.7195 87.1255 47.0012C87.3243 47.312 87.5632 47.5952 87.8359 47.8435C87.6752 47.5112 87.4736 47.2002 87.2358 46.9178C87.0365 46.6082 86.7977 46.3259 86.5253 46.0781Z" fill="white"/>
<path d="M46.3414 111.224C44.5864 114.635 47.0426 119.136 50.1009 119.882C53.1592 120.627 57.4438 117.759 57.4218 113.923C57.4218 108.746 55.296 106.253 53.5264 105.824C51.2501 105.269 48.0963 107.806 46.3414 111.224Z" fill="#177ED7"/>
<path opacity="0.5" d="M46.3414 111.224C44.5864 114.635 47.0426 119.136 50.1009 119.882C53.1592 120.627 57.4438 117.759 57.4218 113.923C57.4218 108.746 55.296 106.253 53.5264 105.824C51.2501 105.269 48.0963 107.806 46.3414 111.224Z" fill="black"/>
<path d="M38.1623 111.161C37.127 115.475 41.1179 119.866 44.771 119.866C48.424 119.866 52.4186 115.46 51.3796 111.161C49.955 105.342 46.8894 103.124 44.771 103.124C42.0504 103.124 39.1977 106.84 38.1623 111.161Z" fill="#177ED7"/>
<path d="M38.0635 111.488C38.216 111.588 38.3784 111.672 38.5482 111.738C39.0008 111.948 39.4655 112.13 39.9396 112.285C40.6397 112.519 41.3548 112.705 42.0801 112.843C43.8642 113.183 45.6912 113.235 47.4918 112.997C48.2242 112.902 48.9492 112.756 49.6616 112.56C50.1434 112.435 50.6167 112.279 51.0788 112.094C51.2534 112.039 51.421 111.964 51.5781 111.87C51.5781 111.833 50.8438 112.116 49.6249 112.41C48.9129 112.573 48.1921 112.696 47.4661 112.777C46.5764 112.877 45.681 112.918 44.7859 112.898C43.8913 112.865 42.9997 112.775 42.1168 112.626C41.3976 112.5 40.6866 112.33 39.9874 112.12C38.7905 111.771 38.0819 111.448 38.0635 111.488Z" fill="#FAFAFA"/>
<path d="M39.1522 108.703C39.2438 108.842 39.3565 108.965 39.4863 109.07C39.8213 109.372 40.191 109.633 40.5877 109.848C41.9069 110.545 43.385 110.885 44.8759 110.836C46.3531 110.779 47.815 110.515 49.2193 110.054C49.759 109.889 50.1885 109.738 50.4859 109.628C50.6436 109.581 50.7952 109.516 50.9375 109.433C50.7734 109.451 50.6119 109.488 50.4565 109.543L49.1752 109.911C47.7754 110.322 46.3302 110.56 44.8723 110.619C43.416 110.665 41.9704 110.355 40.6611 109.716C40.1306 109.421 39.6258 109.082 39.1522 108.703Z" fill="#263238"/>
<path d="M40.0685 106.517C40.1682 106.6 40.278 106.671 40.3953 106.726C40.7026 106.897 41.0216 107.045 41.3499 107.171C43.5382 108.023 45.9527 108.098 48.1898 107.384C48.5252 107.278 48.8528 107.15 49.17 106.998C49.2912 106.951 49.405 106.887 49.5078 106.807C49.4895 106.771 48.9901 106.998 48.1457 107.233C45.9282 107.848 43.5764 107.775 41.4013 107.024C40.5715 106.737 40.0869 106.48 40.0685 106.517Z" fill="#FAFAFA"/>
<path d="M41.8325 104.761C42.1119 104.902 42.4117 104.999 42.721 105.047C43.4565 105.207 44.208 105.283 44.9606 105.271C45.7135 105.263 46.4629 105.166 47.1928 104.981C47.4998 104.926 47.7961 104.822 48.0703 104.673C48.0703 104.603 46.6935 105.04 44.9569 105.04C43.2203 105.04 41.8509 104.688 41.8325 104.761Z" fill="#263238"/>
<path d="M38.8619 115.042C39 115.123 39.1481 115.186 39.3025 115.229C39.7113 115.381 40.128 115.511 40.5508 115.618C43.3505 116.349 46.2855 116.392 49.1053 115.743C49.5314 115.644 49.9518 115.521 50.3646 115.376C50.5205 115.336 50.671 115.277 50.8125 115.2C50.8125 115.163 50.148 115.361 49.0722 115.567C46.2667 116.123 43.3754 116.08 40.5875 115.442C39.5191 115.203 38.873 114.987 38.8619 115.042Z" fill="#263238"/>
<path d="M40.7702 118.067C40.8631 118.132 40.9661 118.18 41.075 118.21C41.3616 118.319 41.6546 118.41 41.9524 118.482C43.9223 118.976 45.9893 118.927 47.9332 118.339C48.2271 118.253 48.5153 118.149 48.796 118.027C48.9943 117.939 49.1007 117.884 49.0934 117.869C49.0861 117.854 48.6345 118.001 47.8928 118.188C45.9601 118.685 43.9395 118.732 41.9855 118.328C41.2255 118.177 40.7849 118.034 40.7702 118.067Z" fill="#FAFAFA"/>
<path d="M61.1548 113.367C59.8331 115.938 61.6872 119.337 63.9928 119.903C66.2985 120.468 69.5 118.298 69.5 115.409C69.5 111.502 67.8992 109.623 66.5628 109.3C64.8593 108.877 62.4802 110.79 61.1548 113.367Z" fill="#177ED7"/>
<path d="M60.7149 115.99C60.7632 116.046 60.8188 116.095 60.8801 116.136C61.0527 116.259 61.2402 116.359 61.4382 116.434C62.0665 116.683 62.7661 116.683 63.3945 116.434C64.0228 116.185 64.5325 115.706 64.8196 115.094C65.1057 114.526 65.1786 113.875 65.0252 113.258C64.9838 113.076 64.8935 112.91 64.7641 112.776C64.6346 112.642 64.471 112.546 64.2909 112.498C64.1927 112.476 64.0909 112.476 63.9926 112.498C63.8944 112.519 63.802 112.562 63.7218 112.623C63.5646 112.746 63.4544 112.92 63.4098 113.115C63.3776 113.308 63.3861 113.506 63.4348 113.695C63.4835 113.885 63.5712 114.063 63.6925 114.216C63.9149 114.527 64.2098 114.779 64.5516 114.951C64.8866 115.132 65.2613 115.226 65.642 115.226C66.0227 115.226 66.3974 115.132 66.7324 114.951C67.0445 114.784 67.3153 114.55 67.525 114.266C67.7347 113.981 67.8779 113.653 67.944 113.306C68.0128 112.97 67.9497 112.62 67.7678 112.329C67.6747 112.192 67.5467 112.082 67.3969 112.011C67.2471 111.94 67.0811 111.911 66.916 111.925C66.7594 111.947 66.6141 112.019 66.5016 112.13C66.3892 112.241 66.3156 112.386 66.2918 112.542C66.2644 112.677 66.2649 112.817 66.2933 112.952C66.3217 113.087 66.3775 113.215 66.4571 113.328C66.7247 113.696 67.1154 113.957 67.5585 114.062C67.8892 114.141 68.2338 114.141 68.5645 114.062C68.7732 114.019 68.9731 113.941 69.1556 113.831C69.2206 113.796 69.279 113.75 69.3281 113.695C69.084 113.827 68.8217 113.922 68.5498 113.978C68.2305 114.031 67.9033 114.014 67.5915 113.926C67.1814 113.818 66.8242 113.565 66.5856 113.214C66.5203 113.118 66.4752 113.009 66.4531 112.895C66.431 112.781 66.4324 112.663 66.4571 112.549C66.482 112.436 66.541 112.332 66.6263 112.253C66.7116 112.173 66.819 112.122 66.9343 112.105C67.0651 112.096 67.196 112.121 67.3135 112.179C67.431 112.237 67.5308 112.326 67.6026 112.436C67.7502 112.687 67.7987 112.984 67.7384 113.269C67.6728 113.579 67.5403 113.871 67.35 114.125C67.1598 114.379 66.9164 114.588 66.637 114.738C66.3332 114.9 65.9939 114.985 65.6493 114.985C65.3048 114.985 64.9655 114.9 64.6617 114.738C64.35 114.579 64.0826 114.346 63.8834 114.058C63.7812 113.932 63.706 113.786 63.6624 113.629C63.6188 113.473 63.6078 113.309 63.63 113.148C63.6403 113.077 63.6647 113.008 63.7018 112.946C63.7389 112.884 63.7879 112.83 63.846 112.788C63.9041 112.745 63.9701 112.714 64.0402 112.697C64.1102 112.68 64.183 112.678 64.2542 112.689C64.3948 112.731 64.5216 112.809 64.6217 112.916C64.7218 113.023 64.7913 113.155 64.8233 113.298C64.9675 113.869 64.9051 114.473 64.647 115.002C64.4292 115.475 64.0751 115.873 63.63 116.144C63.3021 116.328 62.9393 116.441 62.565 116.476C62.1907 116.512 61.8132 116.468 61.4565 116.349C61.1985 116.253 60.9501 116.133 60.7149 115.99Z" fill="#FAFAFA"/>
<path d="M63.199 119.682C63.4307 119.185 63.7633 118.741 64.1756 118.379C64.6287 118.002 65.183 117.767 65.769 117.703C65.9286 117.677 66.0919 117.687 66.2474 117.731C66.4029 117.776 66.5466 117.854 66.6685 117.96C66.7287 118.012 66.7764 118.076 66.8078 118.149C66.8391 118.221 66.8534 118.3 66.8495 118.379C66.8456 118.459 66.8236 118.536 66.7853 118.605C66.7469 118.674 66.6931 118.734 66.6281 118.779C66.5561 118.816 66.4772 118.838 66.3963 118.843C66.3153 118.848 66.2343 118.836 66.1582 118.808C66.0098 118.744 65.8916 118.626 65.8278 118.478C65.7651 118.329 65.7423 118.166 65.7616 118.006C65.7809 117.846 65.8417 117.693 65.9379 117.564C66.1062 117.333 66.3274 117.146 66.5829 117.018C66.8384 116.89 67.1208 116.825 67.4065 116.829C67.803 116.833 68.1884 116.962 68.5079 117.196C68.7319 117.369 68.8273 117.498 68.842 117.487C68.8567 117.475 68.7796 117.329 68.563 117.119C68.2455 116.837 67.8418 116.67 67.4175 116.646C67.0986 116.628 66.7804 116.69 66.4913 116.826C66.2023 116.962 65.9516 117.167 65.7617 117.424C65.6466 117.581 65.5737 117.764 65.5499 117.957C65.5261 118.15 65.5522 118.346 65.6258 118.526C65.6672 118.626 65.728 118.717 65.8049 118.794C65.8818 118.871 65.9732 118.932 66.0737 118.973C66.1798 119.014 66.2933 119.032 66.4067 119.025C66.5201 119.018 66.6307 118.986 66.7309 118.933C66.8349 118.878 66.9216 118.794 66.9812 118.693C67.0408 118.591 67.0711 118.475 67.0687 118.357C67.0633 118.139 66.9769 117.931 66.8264 117.773C66.6796 117.639 66.5038 117.541 66.3127 117.486C66.1216 117.431 65.9205 117.421 65.725 117.457C65.1027 117.535 64.5188 117.8 64.0508 118.217C63.7399 118.493 63.4898 118.831 63.3165 119.208C63.2434 119.356 63.2033 119.518 63.199 119.682Z" fill="#FAFAFA"/>
<path d="M64.2878 109.851C64.2694 109.87 64.4016 110.046 64.6916 110.218C65.0778 110.46 65.5254 110.586 65.9809 110.581C66.4365 110.575 66.881 110.44 67.2616 110.189C67.548 109.991 67.6728 109.822 67.6545 109.796C67.6361 109.77 67.4709 109.903 67.1809 110.053C66.8078 110.251 66.3931 110.356 65.971 110.361C65.5489 110.367 65.1318 110.271 64.754 110.083C64.475 109.954 64.3135 109.826 64.2878 109.851Z" fill="#FAFAFA"/>
<g opacity="0.2">
<path d="M65.1656 119.849C65.5245 119.742 65.8598 119.568 66.1532 119.335C66.2977 119.216 66.4056 119.058 66.4647 118.88C66.5238 118.702 66.5316 118.511 66.4873 118.329C66.4189 118.175 66.3178 118.038 66.191 117.927C66.0642 117.816 65.9147 117.734 65.753 117.687C65.4326 117.591 65.1176 117.478 64.8094 117.349C64.5289 117.175 64.2852 116.948 64.0925 116.681C63.8997 116.413 63.7616 116.11 63.686 115.789C63.4951 115.157 63.4326 114.493 63.2454 113.861C63.2139 113.683 63.1401 113.514 63.0303 113.37C62.9204 113.225 62.7777 113.109 62.6139 113.031C62.144 112.888 61.696 113.325 61.4611 113.766C61.1101 114.437 60.9457 115.19 60.9851 115.946C61.0245 116.702 61.2662 117.434 61.685 118.065C62.5405 119.31 63.6566 120.051 65.1545 119.857" fill="black"/>
</g>
</svg>
